<svg width="120" height="119" fill="none" xmlns="http://www.w3.org/2000/svg"><path fill-rule="evenodd" clip-rule="evenodd" d="M64.416 1.725c11.732-2.352 24.641-3.114 34.88 3.087 10.595 6.415 17.474 18.082 20.093 30.203 2.478 11.465-3.181 22.435-6.272 33.749-3.284 12.017-3.648 25.382-12.324 34.309-9.45 9.726-22.877 16.958-36.377 15.806-13.186-1.124-21.64-13.581-32.14-21.65C22.129 89.433 9.147 84.317 4.11 72.541c-5.234-12.238-6.044-27.63.947-38.953C11.746 22.756 27.184 23.04 38.39 17.024c9.09-4.878 15.916-13.271 26.026-15.299z" fill="#FDF2D8"/></svg>