<svg width="120" height="119" fill="none" xmlns="http://www.w3.org/2000/svg"><path fill-rule="evenodd" clip-rule="evenodd" d="M57.395.28C73.49 1.783 84.1 12.778 95.726 21.25c9.887 7.203 21.304 14.222 23.892 24.37 2.467 9.67-7.721 18.093-10.612 27.698-3.34 11.1 2.696 24.44-7.598 32.809-10.575 8.596-28.499 7.874-44.014 9.146-17.544 1.439-39.524 8.321-51.623-1.303-12.65-10.062-.509-26.623-.856-40.44-.22-8.795-1.754-16.968-.806-25.736 1.285-11.87-2.912-25.299 7.315-34.418C22.232 3.738 40.718-1.277 57.394.28z" fill="#FDF2D8"/></svg>