<svg width="120" height="119" fill="none" xmlns="http://www.w3.org/2000/svg"><path fill-rule="evenodd" clip-rule="evenodd" d="M4.173 61.373C2.856 73.617-3.771 86.936 2.996 97.38c6.807 10.508 21.902 11.573 34.25 15.044 11.935 3.355 24.766 9.736 36.056 4.722 11.133-4.946 11.43-20.04 19.122-29.232 8.355-9.984 26.74-13.744 27.549-26.54.8-12.654-16.328-18.721-24.036-28.998C88.193 22.05 87.206 5.58 74.804 1.149 62.412-3.278 49.623 6.137 37.662 11.554c-10.428 4.722-21.2 9.537-27.462 18.851-6.075 9.038-4.875 20.26-6.027 30.968z" fill="#FDF2D8"/></svg>