<svg width="120" height="119" fill="none" xmlns="http://www.w3.org/2000/svg"><path fill-rule="evenodd" clip-rule="evenodd" d="M61.714.48C74.765-.636 90.778-.606 98.938 9.66c8.266 10.399-2.792 26.148.986 38.892 3.601 12.151 22.439 18.927 19.829 31.33C117.218 91.927 99.493 92.16 89.3 99.03c-9.65 6.503-15.957 19.867-27.586 19.97-11.631.104-18.091-13.283-27.944-19.476C22.826 92.643 5.325 92.946.913 80.782c-4.39-12.103 8.197-23.432 13.27-35.265 4.479-10.447 6.407-22.05 14.653-29.863C37.822 7.139 49.39 1.534 61.714.48z" fill="#FDF2D8"/></svg>