<svg width="50" height="50" fill="none" xmlns="http://www.w3.org/2000/svg"><path d="M29.112 46.804a.977.977 0 00-1.27.543c-.168.419-.593.7-1.058.7h-3.568c-.465 0-.89-.281-1.058-.7a.977.977 0 00-1.813.727A3.07 3.07 0 0023.216 50h3.568a3.07 3.07 0 002.87-1.926.976.976 0 00-.542-1.27z" fill="#892DFE"/><path d="M40.58 41.774a4.819 4.819 0 00-2.312-3.251 4.86 4.86 0 001.735-4.491 12.294 12.294 0 00-2.803-6.155 12.339 12.339 0 00-4.025-3.106 11.166 11.166 0 003.033-7.659c0-5.12-3.452-9.45-8.151-10.783.64-.765.99-1.72.99-2.728A3.607 3.607 0 0025.444 0c-.802 0-1.552.26-2.114.734a2.665 2.665 0 00-.962 2.069.977.977 0 001.953 0c0-.232.09-.426.268-.576.21-.177.513-.274.855-.274.909 0 1.648.74 1.648 1.648a2.29 2.29 0 01-.675 1.629 2.289 2.289 0 01-1.629.674c-.024 0-.047.002-.07.004-6.05.15-10.927 5.119-10.927 11.204 0 2.96 1.153 5.654 3.033 7.659a12.338 12.338 0 00-4.025 3.106 12.294 12.294 0 00-2.804 6.154 4.86 4.86 0 001.736 4.492 4.818 4.818 0 00-1.376 7.139l2.091 2.672a4.353 4.353 0 003.43 1.66c.74 0 1.484-.187 2.158-.576a4.36 4.36 0 001.856-5.382l-1.269-3.147a4.813 4.813 0 00-.296-.606h7.162a.977.977 0 000-1.953H16.47v-2.058c0-.265.216-.481.48-.481h16.1a.48.48 0 01.48.48v2.194a4.818 4.818 0 00-2.153 2.424l-1.268 3.147a4.36 4.36 0 001.855 5.382c.674.39 1.42.576 2.159.576 1.301 0 2.585-.58 3.43-1.66l2.091-2.672a4.817 4.817 0 00.936-3.888zM15.745 17.112c0-5.102 4.152-9.254 9.255-9.254 5.103 0 9.255 4.151 9.255 9.255 0 5.102-4.152 9.254-9.255 9.254-5.103 0-9.255-4.152-9.255-9.255zm1.066 24.507l1.269 3.148a2.399 2.399 0 01-1.021 2.96 2.398 2.398 0 01-3.074-.596l-2.091-2.673a2.866 2.866 0 013.192-4.477c.786.27 1.414.868 1.725 1.638zm16.245-9.734a.977.977 0 00-.976.976v.977H17.926v-.977a.977.977 0 00-1.953 0v1.182a2.437 2.437 0 00-1.457 2.229v1.379a2.907 2.907 0 01-2.588-3.329 10.31 10.31 0 016.515-8.126A11.147 11.147 0 0025 28.32c2.446 0 4.712-.788 6.557-2.124a10.31 10.31 0 016.515 8.126 2.909 2.909 0 01-2.588 3.329v-1.38c0-.992-.597-1.846-1.45-2.225v-1.185a.977.977 0 00-.977-.976zm5.05 12.573l-2.091 2.673a2.399 2.399 0 01-3.074.596 2.399 2.399 0 01-1.02-2.96l1.268-3.148a2.866 2.866 0 015.474.526 2.866 2.866 0 01-.557 2.313z" fill="#892DFE"/><path d="M30.058 38.616a.984.984 0 00-.69-.286.984.984 0 00-.691.286.984.984 0 00-.286.69.98.98 0 001.667.69.984.984 0 00.286-.69.984.984 0 00-.286-.69zm-2.366-18.169a.977.977 0 00-1.373.144 1.693 1.693 0 01-2.638 0 .977.977 0 00-1.517 1.23A3.636 3.636 0 0025 23.174c1.105 0 2.14-.493 2.836-1.353a.976.976 0 00-.144-1.374zm-5.16-4.025a2.275 2.275 0 00-3.213 0 .977.977 0 001.381 1.381.32.32 0 01.451 0 .974.974 0 001.381 0 .977.977 0 000-1.381zm8.148 0a2.275 2.275 0 00-3.212 0 .977.977 0 101.38 1.38.32.32 0 01.452 0 .977.977 0 001.38-1.38z" fill="#892DFE"/></svg>