<svg width="50" height="50" fill="none" xmlns="http://www.w3.org/2000/svg"><g clip-path="url(#clip0)" fill="#892DFE"><path d="M9.474 8.091c-.08 0-.159.014-.235.014-.523.196-.844.675-.715 1.197a.981.981 0 001.183.725.985.985 0 00.714-1.188.979.979 0 00-.947-.748zm9.613-1.78a.948.948 0 00-.128.01 91.46 91.46 0 00-5.848.971.965.965 0 00-.623.414.978.978 0 001 1.502 89.8 89.8 0 015.724-.951.973.973 0 00.647-.374.979.979 0 00-.772-1.571zm17.999.981l-.001-.001a92.145 92.145 0 00-5.849-.97.98.98 0 00-1.095.84.979.979 0 00.842 1.096 90.28 90.28 0 015.724.95.98.98 0 001.148-.77.978.978 0 00-.769-1.145zm3.871.842a.975.975 0 00-1.183.714c-.062.253-.022.53.113.753.135.223.348.36.601.458h.001c.077 0 .156.014.235.014a.985.985 0 00.233-1.939zM25.098 3.906a2.933 2.933 0 00-2.93 2.93 2.933 2.933 0 002.93 2.93 2.933 2.933 0 002.93-2.93 2.933 2.933 0 00-2.93-2.93zm0 3.906a.977.977 0 010-1.953.977.977 0 010 1.954z"/><path d="M48.035 48.573l-2.43-4.671V20.933l1.85-3.7a.977.977 0 00-.873-1.413h-.976v-1.953h.976a.977.977 0 00.874-1.413l-1.85-3.7V5.078a.976.976 0 00-.977-.976h-.213c-3.845 0-7.513-.784-10.901-2.33C30.975.612 28.065 0 25.098 0 22.13 0 19.22.613 16.68 1.772c-3.389 1.546-7.056 2.33-10.902 2.33h-.212a.976.976 0 00-.977.976v3.676l-1.85 3.7a.977.977 0 00.873 1.413h.977v1.953h-.977a.977.977 0 00-.873 1.414l1.85 3.7v22.968l-2.429 4.67A.977.977 0 003.028 50H7.91a.976.976 0 00.867-.526l2.265-4.357h28.111l2.266 4.357a.977.977 0 00.866.526h4.883a.976.976 0 00.867-1.427zM6.44 9.42a.977.977 0 00.103-.437V6.045c3.85-.098 7.53-.936 10.948-2.497 2.288-1.043 4.918-1.595 7.607-1.595s5.319.552 7.606 1.595c3.419 1.56 7.099 2.4 10.949 2.497v2.94c0 .15.035.3.102.436l1.247 2.493H5.193L6.44 9.421zm37.213 4.446v1.953H6.543v-1.953h37.11zm-.775 34.18l-2.265-4.357a.976.976 0 00-.867-.526H10.45a.976.976 0 00-.866.526l-2.265 4.357H4.636l1.797-3.456a.975.975 0 00.11-.45V20.703a.977.977 0 00-.103-.437l-1.247-2.493h39.81l-1.248 2.493a.982.982 0 00-.102.437v23.438c0 .156.037.31.11.45l1.797 3.456h-2.682z"/><path d="M40.723 23.633H9.473a.977.977 0 00-.977.976v13.672c0 .54.437.977.977.977h31.25c.54 0 .976-.437.976-.977V24.61a.976.976 0 00-.976-.976zm-28.32 13.672h-1.954v-11.72h1.953v11.72zm3.906 0h-1.954v-11.72h1.954v11.72zm3.906 0h-1.953v-11.72h1.953v11.72zm3.906 0h-1.953v-11.72h1.953v11.72zm3.906 0h-1.953v-11.72h1.953v11.72zm3.907 0H29.98v-11.72h1.954v11.72zm3.906 0h-1.953v-11.72h1.953v11.72zm3.906 0h-1.953v-11.72h1.953v11.72zM25.098 21.68a.978.978 0 00.976-.977.978.978 0 00-.976-.976.978.978 0 00-.977.976c0 .538.438.977.977.977zm3.906 0h7.812a.978.978 0 00.977-.977.978.978 0 00-.977-.976h-7.812a.978.978 0 00-.977.976c0 .538.439.977.977.977zm-19.531 0a.978.978 0 00.976-.977.978.978 0 00-.976-.976.978.978 0 00-.977.976c0 .538.438.977.977.977zm31.25-1.953a.978.978 0 00-.977.976.978.978 0 001.953 0 .978.978 0 00-.976-.976zM13.379 21.68h7.812a.978.978 0 00.977-.977.978.978 0 00-.977-.976H13.38a.978.978 0 00-.977.976c0 .538.439.977.977.977z"/></g><defs><clipPath id="clip0"><path fill="#fff" d="M0 0h50v50H0z"/></clipPath></defs></svg>