<svg width="50" height="50" fill="none" xmlns="http://www.w3.org/2000/svg"><g clip-path="url(#clip0)" fill="#892DFE"><path d="M9.375 24.023c0 .54.437.977.977.977h5.859c.54 0 .977-.437.977-.977v-5.859a3.91 3.91 0 00-3.907-3.906 3.91 3.91 0 00-3.906 3.906v5.86zm1.953-5.859c0-1.077.876-1.953 1.953-1.953s1.953.876 1.953 1.953v4.883h-3.906v-4.883zm21.094 9.766c.54 0 .977-.438.977-.977V25a.977.977 0 00-1.954 0v1.953c0 .54.438.977.977.977zm3.906 0c.54 0 .977-.438.977-.977V25a.977.977 0 10-1.953 0v1.953c0 .54.437.977.976.977zm3.906 0c.54 0 .977-.438.977-.977V25a.977.977 0 00-1.953 0v1.953c0 .54.437.977.976.977z"/><path d="M.977 10.352H2.93v20.507a.976.976 0 00-.954.765l-1.953 8.79A.977.977 0 00.977 41.6h1.975a5.377 5.377 0 005.349 5.86 5.377 5.377 0 005.348-5.86h4.537a5.377 5.377 0 005.349 5.86 5.377 5.377 0 005.349-5.86h4.537a5.377 5.377 0 005.349 5.86 5.377 5.377 0 005.348-5.86h4.905a.977.977 0 00.893-1.373L46.01 31.44a.974.974 0 00-.573-.524 8.338 8.338 0 001.633-4.938c0-2.6-1.241-5.083-3.32-6.641a.977.977 0 00-.586-.195h-1.953v-6.836h1.953a.977.977 0 000-1.953H31.445a.977.977 0 100 1.953h1.953v6.836h-9.765v-8.79h1.953a.977.977 0 000-1.953H23.26l-2.66-5.32a.977.977 0 00-.873-.539H6.836a.976.976 0 00-.874.54L3.302 8.4H.978a.977.977 0 000 1.953zM8.3 45.508a3.422 3.422 0 01-3.418-3.418A3.42 3.42 0 018.3 38.672a3.42 3.42 0 013.418 3.418A3.422 3.422 0 018.3 45.508zm15.234 0a3.422 3.422 0 01-3.418-3.418 3.42 3.42 0 013.418-3.418 3.42 3.42 0 013.418 3.418 3.422 3.422 0 01-3.418 3.418zm15.235 0a3.422 3.422 0 01-3.419-3.418 3.42 3.42 0 013.419-3.418 3.42 3.42 0 013.417 3.418 3.422 3.422 0 01-3.417 3.418zm8.75-5.86h-3.967a5.38 5.38 0 00-4.783-2.93 5.38 5.38 0 00-4.785 2.93H28.32a5.38 5.38 0 00-4.784-2.93 5.38 5.38 0 00-4.784 2.93h-5.667a5.38 5.38 0 00-4.783-2.93 5.38 5.38 0 00-4.784 2.93H2.194l1.519-6.837h40.77l3.038 6.837zM35.352 12.305h3.907v6.836H35.35v-6.836zm7.474 8.789a6.38 6.38 0 012.292 4.883 6.379 6.379 0 01-2.292 4.882H23.633v-9.765h19.192zM7.44 4.492h11.683l1.953 3.906h-3.4a.977.977 0 000 1.954h4.004v20.507H4.883V10.352h4.004a.977.977 0 000-1.954h-3.4L7.44 4.492z"/><path d="M13.281 10.352a.977.977 0 100-1.954.977.977 0 000 1.954z"/></g><defs><clipPath id="clip0"><path fill="#fff" d="M0 0h50v50H0z"/></clipPath></defs></svg>