<svg width="50" height="50" fill="none" xmlns="http://www.w3.org/2000/svg"><g clip-path="url(#clip0)" fill="#892DFE"><path d="M42.266 37.76a.94.94 0 00-.146-.352.932.932 0 00-.27-.27.986.986 0 00-.732-.145.944.944 0 00-.351.146.927.927 0 00-.27.27.983.983 0 00-.165.541c0 .257.105.509.286.69a.984.984 0 001.065.212.993.993 0 00.316-.211.984.984 0 00.267-.881zM21.248 25.786a.987.987 0 00-.267-.5.99.99 0 00-.881-.268.99.99 0 00-.767.768.962.962 0 00.267.88.973.973 0 00.5.267.971.971 0 00.881-.266.983.983 0 00.267-.881z"/><path d="M47.088 20.684c-4.407-5.135-11.51-8.413-19.366-9.031V8.164a4.545 4.545 0 001.814-3.628A4.541 4.541 0 0025 0a4.541 4.541 0 00-4.536 4.536c0 1.435.683 2.778 1.814 3.628v3.489c-7.857.618-14.959 3.896-19.366 9.03a.977.977 0 00.105 1.378l3.415 2.931a.978.978 0 001.378-.105c.312-.364.645-.716.995-1.055v10.754l-1.807 2.428-3.174 1.072a.977.977 0 00-.484 1.49l1.938 2.732.038 3.35a.977.977 0 001.268.921l3.197-.998 3.198.998a.976.976 0 001.268-.92l.038-3.35 1.938-2.733a.977.977 0 00-.484-1.49l-3.174-1.072-1.807-2.428v-12.38c2.389-1.712 5.325-2.956 8.556-3.63v3.551a.977.977 0 001.953 0v-3.882A28.4 28.4 0 0125 18c1.651 0 3.268.141 4.823.412v18.034a3.768 3.768 0 00-1.213-.189c-2.186 0-3.773 1.618-3.773 3.847 0 .97.22 1.774.713 2.608.818 1.382 2.918 2.794 4.426 3.736l.19.118a1.173 1.173 0 001.26.002c.047-.03.11-.07.186-.116 1.51-.938 3.613-2.346 4.438-3.74a4.858 4.858 0 00.712-2.608c0-2.229-1.587-3.847-3.775-3.847-.465 0-.866.072-1.21.188V18.828c3.3.837 6.248 2.284 8.555 4.226V34.1a.977.977 0 001.953 0v-9.118a.977.977 0 001.283.01l3.415-2.932a.977.977 0 00.105-1.377zm-38.283.554c-.65.518-1.258 1.07-1.82 1.654l-1.936-1.661a21.753 21.753 0 013.756-3.136v3.143zM25 1.953a2.586 2.586 0 012.583 2.583 2.59 2.59 0 01-1.317 2.252.976.976 0 00-.497.85v3.917h-.011l-.075-.002h-.018l-.083-.002h-.012l-.087-.002h-.113l-.077-.002h-.586l-.078.001h-.018l-.087.001h-.007l-.087.002h-.012l-.083.002h-.018a17.977 17.977 0 00-.086.002V7.638a.977.977 0 00-.497-.85 2.59 2.59 0 01-1.317-2.252A2.586 2.586 0 0125 1.953zM11.18 38.425a.984.984 0 00.471.342l2.22.75-1.355 1.91a.976.976 0 00-.18.554l-.027 2.343-2.236-.698a.975.975 0 00-.583 0l-2.236.698-.027-2.343a.977.977 0 00-.18-.554l-1.355-1.91 2.22-.75a.976.976 0 00.47-.342l1.4-1.88 1.398 1.88zm18.643-21.992A30.037 30.037 0 0025 16.047c-5.317 0-10.32 1.376-14.242 3.816v-2.937c3.642-1.96 7.963-3.146 12.538-3.383h.009a33.049 33.049 0 013.407 0c1.052.055 2.09.16 3.111.313v2.577zm3.164 21.777c.84 0 1.822.496 1.822 1.894 0 .617-.127 1.085-.44 1.613-.433.732-1.634 1.72-3.572 2.94-1.938-1.226-3.137-2.215-3.566-2.94a2.93 2.93 0 01-.441-1.613c0-1.398.98-1.894 1.82-1.894.605 0 1.028.218 1.257.646.183.343.539.556.928.557h.001c.39 0 .745-.213.93-.556.23-.43.654-.647 1.261-.647zm10.028-15.318c-2.797-2.908-6.743-5.013-11.239-6.071v-2.608c5.264 1.134 9.912 3.58 13.175 7.018l-1.936 1.661z"/><path d="M20.29 28.282a4.55 4.55 0 00-4.544 4.546 4.55 4.55 0 004.545 4.544 4.55 4.55 0 004.544-4.544 4.55 4.55 0 00-4.544-4.546zm0 7.137a2.595 2.595 0 01-2.591-2.591 2.595 2.595 0 012.591-2.592 2.595 2.595 0 012.592 2.591 2.595 2.595 0 01-2.591 2.592zm21.019 5.491a4.55 4.55 0 00-4.545 4.545A4.55 4.55 0 0041.309 50a4.55 4.55 0 004.545-4.545 4.55 4.55 0 00-4.545-4.545zm0 7.137a2.595 2.595 0 01-2.592-2.592 2.595 2.595 0 012.592-2.592 2.595 2.595 0 012.592 2.592 2.595 2.595 0 01-2.592 2.592z"/></g><defs><clipPath id="clip0"><path fill="#fff" d="M0 0h50v50H0z"/></clipPath></defs></svg>