<svg width="135" height="13" viewBox="0 0 135 13" fill="none" xmlns="http://www.w3.org/2000/svg">
<path d="M1 0.999999C1 0.999999 5.96218 12 12.0833 12C18.2045 12 17.0455 0.999999 23.1667 0.999999C29.2878 0.999999 28.1288 12 34.25 12C40.3712 12 39.2122 0.999999 45.3333 0.999999C51.4545 0.999999 50.2955 12 56.4167 12C62.5378 12 61.3788 0.999999 67.5 0.999999C73.6212 0.999999 72.4622 12 78.5833 12C84.7045 12 83.5455 0.999999 89.6667 0.999999C95.7878 0.999999 94.6288 12 100.75 12C106.871 12 105.712 0.999999 111.833 0.999999C117.954 0.999999 116.796 12 122.917 12C129.038 12 134 0.999999 134 0.999999" stroke="#375CAD" stroke-width="2"/>
</svg>
