<svg width="60" height="50" viewBox="0 0 60 50" fill="none" xmlns="http://www.w3.org/2000/svg">
<path d="M18.4492 24.6774C20.8021 25.6452 22.6203 27.2043 23.9037 29.3548C25.2941 31.3979 25.9893 33.871 25.9893 36.7742C25.9893 40.6452 24.7594 43.8172 22.2995 46.2903C19.8396 48.7634 16.7914 50 13.1551 50C9.30481 50 6.14973 48.7634 3.68984 46.2903C1.22995 43.8172 0 40.6452 0 36.7742C0 34.8387 0.213904 32.957 0.641711 31.129C1.17647 29.3011 2.13904 26.5591 3.52941 22.9032L12.0321 0H24.8663L18.4492 24.6774ZM52.4599 24.6774C54.8128 25.6452 56.631 27.2043 57.9144 29.3548C59.3048 31.3979 60 33.871 60 36.7742C60 40.6452 58.7701 43.8172 56.3102 46.2903C53.8503 48.7634 50.8021 50 47.1658 50C43.3155 50 40.1604 48.7634 37.7005 46.2903C35.2406 43.8172 34.0107 40.6452 34.0107 36.7742C34.0107 34.8387 34.2246 32.957 34.6524 31.129C35.1872 29.3011 36.1497 26.5591 37.5401 22.9032L46.0428 0H58.877L52.4599 24.6774Z" fill="white"/>
</svg>
