<svg width="120" height="119" viewBox="0 0 120 119" fill="none" xmlns="http://www.w3.org/2000/svg">
<path fill-rule="evenodd" clip-rule="evenodd" d="M4.17295 61.3731C2.85579 73.6173 -3.77107 86.9357 2.99564 97.3804C9.80309 107.888 24.8984 108.953 37.2466 112.424C49.1814 115.779 62.0122 122.16 73.3016 117.146C84.4351 112.2 84.7318 97.1062 92.424 87.9139C100.779 77.9301 119.164 74.1698 119.973 61.3731C120.773 48.7203 103.645 42.6529 95.9367 32.3756C88.1931 22.051 87.2055 5.58062 74.8039 1.14943C62.4124 -3.27815 49.6225 6.13744 37.6622 11.5536C27.2335 16.2763 16.4618 21.0906 10.2005 30.4051C4.12476 39.4435 5.32491 50.6646 4.17295 61.3731Z" fill="#FDF2D8"/>
</svg>
