<svg width="120" height="119" viewBox="0 0 120 119" fill="none" xmlns="http://www.w3.org/2000/svg">
<path fill-rule="evenodd" clip-rule="evenodd" d="M57.3945 0.280156C73.4898 1.78339 84.101 12.778 95.7263 21.2486C105.613 28.4524 117.03 35.4713 119.618 45.6182C122.085 55.2899 111.897 63.7118 109.006 73.3173C105.666 84.4167 111.702 97.7576 101.408 106.126C90.8331 114.722 72.9093 114 57.3945 115.272C39.85 116.711 17.8697 123.593 5.77142 113.969C-6.87868 103.907 5.26228 87.3461 4.91527 73.5285C4.69441 64.734 3.16085 56.5605 4.1095 47.7933C5.39385 35.9236 1.19725 22.4942 11.4241 13.3751C22.2324 3.7376 40.7179 -1.27737 57.3945 0.280156Z" fill="#FDF2D8"/>
</svg>
