<svg width="120" height="119" viewBox="0 0 120 119" fill="none" xmlns="http://www.w3.org/2000/svg">
<path fill-rule="evenodd" clip-rule="evenodd" d="M61.7137 0.480324C74.7654 -0.635644 90.7784 -0.606362 98.9383 9.65962C107.204 20.0587 96.1464 35.8082 99.9236 48.5517C103.525 60.7035 122.363 67.4792 119.753 79.8828C117.218 91.9256 99.4928 92.1592 89.2997 99.029C79.6506 105.532 73.3426 118.896 61.7137 118.999C50.0825 119.103 43.6228 105.716 33.7698 99.5226C22.8265 92.6438 5.32546 92.9463 0.913446 80.7816C-3.47625 68.6785 9.10985 57.3495 14.1827 45.5174C18.6619 35.0698 20.5902 23.4668 28.836 15.6536C37.8223 7.13885 49.3897 1.53408 61.7137 0.480324Z" fill="#FDF2D8"/>
</svg>
