<svg width="120" height="119" viewBox="0 0 120 119" fill="none" xmlns="http://www.w3.org/2000/svg">
<path fill-rule="evenodd" clip-rule="evenodd" d="M64.4159 1.72546C76.1483 -0.627072 89.0571 -1.38929 99.2969 4.81159C109.891 11.2272 116.77 22.8937 119.389 35.0153C121.867 46.4796 116.208 57.4501 113.117 68.7638C109.833 80.7809 109.469 94.1457 100.793 103.073C91.3422 112.799 77.9158 120.031 64.4159 118.879C51.23 117.755 42.7766 105.298 32.2759 97.2295C22.1293 89.4328 9.14746 84.3167 4.11126 72.541C-1.12261 60.3031 -1.93341 44.9106 5.05796 33.588C11.7466 22.7557 27.1846 23.0398 38.3913 17.0241C47.4793 12.1458 54.3061 3.75263 64.4159 1.72546Z" fill="#FDF2D8"/>
</svg>
