<svg width="50" height="50" viewBox="0 0 50 50" fill="none" xmlns="http://www.w3.org/2000/svg">
<g clip-path="url(#clip0)">
<path d="M9.375 24.0234C9.375 24.5628 9.8123 25 10.3516 25H16.2109C16.7502 25 17.1875 24.5628 17.1875 24.0234V18.1641C17.1875 16.0102 15.4352 14.2578 13.2812 14.2578C11.1273 14.2578 9.375 16.0102 9.375 18.1641V24.0234ZM11.3281 18.1641C11.3281 17.0871 12.2043 16.2109 13.2812 16.2109C14.3582 16.2109 15.2344 17.0871 15.2344 18.1641V23.0469H11.3281V18.1641Z" fill="#892DFE"/>
<path d="M32.4219 27.9297C32.9612 27.9297 33.3985 27.4925 33.3985 26.9531V25C33.3985 24.4606 32.9612 24.0234 32.4219 24.0234C31.8827 24.0234 31.4454 24.4606 31.4454 25V26.9531C31.4454 27.4925 31.8827 27.9297 32.4219 27.9297Z" fill="#892DFE"/>
<path d="M36.3282 27.9297C36.8674 27.9297 37.3047 27.4925 37.3047 26.9531V25C37.3047 24.4606 36.8674 24.0234 36.3282 24.0234C35.7889 24.0234 35.3516 24.4606 35.3516 25V26.9531C35.3516 27.4925 35.7889 27.9297 36.3282 27.9297Z" fill="#892DFE"/>
<path d="M40.2344 27.9297C40.7737 27.9297 41.211 27.4925 41.211 26.9531V25C41.211 24.4606 40.7737 24.0234 40.2344 24.0234C39.6952 24.0234 39.2579 24.4606 39.2579 25V26.9531C39.2579 27.4925 39.6952 27.9297 40.2344 27.9297Z" fill="#892DFE"/>
<path d="M0.97653 10.3516H2.92966V30.8594C2.47194 30.8594 2.07565 31.1772 1.97634 31.6241L0.0232099 40.4132C-0.0410479 40.7023 0.0293623 41.0051 0.214714 41.2361C0.400163 41.4671 0.680339 41.6016 0.97653 41.6006H2.95212C2.93747 41.7632 2.92966 41.926 2.92966 42.0898C2.92966 45.0515 5.33913 47.4609 8.30075 47.4609C11.2624 47.4609 13.6718 45.0515 13.6718 42.0898C13.6718 41.9261 13.664 41.7632 13.6494 41.6006H18.1864C18.1718 41.7632 18.1639 41.926 18.1639 42.0898C18.1639 45.0515 20.5734 47.4609 23.535 47.4609C26.4966 47.4609 28.9061 45.0515 28.9061 42.0898C28.9061 41.9261 28.8983 41.7632 28.8837 41.6006H33.4207C33.4062 41.7632 33.3984 41.926 33.3984 42.0898C33.3984 45.0515 35.8079 47.4609 38.7695 47.4609C41.7311 47.4609 44.1406 45.0515 44.1406 42.0898C44.1406 41.9261 44.1328 41.7632 44.1181 41.6016H49.0234C49.354 41.6016 49.6621 41.4344 49.8423 41.1571C50.0224 40.88 50.0501 40.5305 49.9158 40.2283L46.0095 31.4393C45.898 31.1882 45.6878 31.0026 45.4372 30.9154C46.482 29.5001 47.0703 27.7661 47.0703 25.9766C47.0703 23.377 45.829 20.8944 43.7498 19.3358C43.5808 19.2092 43.3753 19.1406 43.164 19.1406H41.2109V12.3047H43.164C43.7033 12.3047 44.1406 11.8675 44.1406 11.3281C44.1406 10.7888 43.7033 10.3516 43.164 10.3516H31.4453C30.906 10.3516 30.4687 10.7888 30.4687 11.3281C30.4687 11.8675 30.906 12.3047 31.4453 12.3047H33.3984V19.1406H23.6328V10.3516H25.5859C26.1252 10.3516 26.5625 9.91436 26.5625 9.375C26.5625 8.83564 26.1252 8.39844 25.5859 8.39844H23.2597L20.6 3.07891C20.4345 2.74805 20.0965 2.53906 19.7265 2.53906H6.83591C6.46598 2.53906 6.1279 2.74805 5.96247 3.07891L3.3027 8.39844H0.97653C0.437272 8.39844 -3.22445e-05 8.83564 -3.22445e-05 9.375C-3.22445e-05 9.91436 0.437272 10.3516 0.97653 10.3516V10.3516ZM8.30075 45.5078C6.41608 45.5078 4.88278 43.9745 4.88278 42.0898C4.88278 40.1927 6.42526 38.6719 8.30075 38.6719C10.1815 38.6719 11.7187 40.1991 11.7187 42.0898C11.7187 43.9745 10.1854 45.5078 8.30075 45.5078ZM23.5351 45.5078C21.6505 45.5078 20.1172 43.9745 20.1172 42.0898C20.1172 40.1927 21.6596 38.6719 23.5351 38.6719C25.4159 38.6719 26.9531 40.1991 26.9531 42.0898C26.9531 43.9745 25.4198 45.5078 23.5351 45.5078ZM38.7695 45.5078C36.8848 45.5078 35.3515 43.9745 35.3515 42.0898C35.3515 40.1927 36.894 38.6719 38.7695 38.6719C40.6503 38.6719 42.1875 40.1991 42.1875 42.0898C42.1875 43.9745 40.6542 45.5078 38.7695 45.5078ZM47.5207 39.6484H43.5531C42.6461 37.8715 40.8034 36.7188 38.7695 36.7188C36.7349 36.7188 34.8917 37.8723 33.9855 39.6484H28.3187C27.4117 37.8715 25.569 36.7188 23.5351 36.7188C21.5006 36.7188 19.6573 37.8723 18.7511 39.6484H13.0843C12.1773 37.8715 10.3346 36.7188 8.30075 36.7188C6.26618 36.7188 4.42292 37.8723 3.51676 39.6484H2.19391L3.71305 32.8115H44.4825L47.5207 39.6484ZM35.3515 12.3047H39.2578V19.1406H35.3515V12.3047ZM42.8254 21.0938C44.2658 22.2916 45.1172 24.0939 45.1172 25.9766C45.1172 27.8595 44.2653 29.6615 42.8245 30.8594H23.6328V21.0938H42.8254ZM7.43952 4.49219H19.123L21.0761 8.39844H17.6757C17.1365 8.39844 16.6992 8.83564 16.6992 9.375C16.6992 9.91436 17.1365 10.3516 17.6757 10.3516H21.6797V30.8594H4.88278V10.3516H8.88669C9.42594 10.3516 9.86325 9.91436 9.86325 9.375C9.86325 8.83564 9.42594 8.39844 8.88669 8.39844H5.48639L7.43952 4.49219Z" fill="#892DFE"/>
<path d="M13.2812 10.3516C13.8206 10.3516 14.2578 9.91434 14.2578 9.375C14.2578 8.83566 13.8206 8.39844 13.2812 8.39844C12.7419 8.39844 12.3047 8.83566 12.3047 9.375C12.3047 9.91434 12.7419 10.3516 13.2812 10.3516Z" fill="#892DFE"/>
</g>
<defs>
<clipPath id="clip0">
<rect width="50" height="50" fill="white"/>
</clipPath>
</defs>
</svg>
