<svg width="50" height="50" viewBox="0 0 50 50" fill="none" xmlns="http://www.w3.org/2000/svg">
<g clip-path="url(#clip0)">
<path d="M9.47373 8.09131C9.39438 8.09131 9.31542 8.10542 9.23912 8.10542H9.23836C8.71575 8.30074 8.39531 8.77986 8.52425 9.30209C8.63259 9.73964 9.02245 10.0517 9.47144 10.0517C9.55079 10.0517 9.62975 10.0452 9.70681 10.0269C10.2294 9.8968 10.5499 9.36122 10.4209 8.83861C10.3126 8.40106 9.92272 8.09131 9.47373 8.09131Z" fill="#892DFE"/>
<path d="M19.087 6.3114C19.0442 6.3114 19.0011 6.31445 18.9592 6.32018C17.1369 6.55859 15.1689 6.88475 13.1105 7.29216C12.8545 7.34175 12.6329 7.48938 12.4883 7.70605C12.343 7.92273 12.2899 8.18251 12.3407 8.43848C12.4307 8.89548 12.8332 9.22659 13.2978 9.22659C13.3611 9.22659 13.426 9.21973 13.4881 9.2079C15.505 8.80965 17.4318 8.48921 19.2117 8.2569C19.4707 8.22256 19.7 8.08981 19.8594 7.88268C20.0185 7.67668 20.0868 7.41995 20.0536 7.16093C19.9903 6.67685 19.5741 6.3114 19.087 6.3114Z" fill="#892DFE"/>
<path d="M37.0861 7.29216C37.0861 7.29216 37.0861 7.29216 37.085 7.29102C35.0235 6.88475 33.0555 6.55745 31.2363 6.32018C31.1943 6.31445 31.1512 6.3114 31.1085 6.3114C30.621 6.3114 30.2052 6.67685 30.1414 7.16093C30.0713 7.69537 30.4493 8.18633 30.9834 8.2569C32.7618 8.48921 34.6874 8.80965 36.7069 9.2079C36.7695 9.21973 36.834 9.22659 36.8973 9.22659C37.3612 9.22659 37.7636 8.89433 37.8544 8.43848C37.9578 7.91129 37.6141 7.3963 37.0861 7.29216Z" fill="#892DFE"/>
<path d="M40.957 8.1337C40.88 8.11539 40.801 8.10547 40.7216 8.10547C40.2726 8.10547 39.8828 8.41026 39.7744 8.84781C39.7119 9.10072 39.7519 9.37729 39.8866 9.60121C40.0216 9.82361 40.2353 9.96094 40.4882 10.0586H40.4893C40.5664 10.0586 40.6446 10.0727 40.7235 10.0727C41.1729 10.0727 41.5624 9.76105 41.6707 9.3235C41.8001 8.80089 41.4808 8.26378 40.957 8.1337V8.1337Z" fill="#892DFE"/>
<path d="M25.0977 3.90625C23.4821 3.90625 22.168 5.22041 22.168 6.83594C22.168 8.45146 23.4821 9.76562 25.0977 9.76562C26.7132 9.76562 28.0273 8.45146 28.0273 6.83594C28.0273 5.22041 26.7132 3.90625 25.0977 3.90625ZM25.0977 7.8125C24.559 7.8125 24.1211 7.37457 24.1211 6.83594C24.1211 6.2973 24.559 5.85938 25.0977 5.85938C25.6363 5.85938 26.0742 6.2973 26.0742 6.83594C26.0742 7.37457 25.6363 7.8125 25.0977 7.8125Z" fill="#892DFE"/>
<path d="M48.0345 48.5729L45.6056 43.9018V20.9335L47.4558 17.2337C47.6068 16.9308 47.5908 16.5714 47.4127 16.2834C47.2349 15.9954 46.9206 15.8203 46.5822 15.8203H45.6056V13.8672H46.5822C46.9206 13.8672 47.2349 13.6921 47.413 13.4041C47.5908 13.1161 47.6068 12.7567 47.4558 12.4538L45.6056 8.75397V5.07812C45.6056 4.53873 45.1685 4.10156 44.6291 4.10156H44.4162C40.5706 4.10156 36.9028 3.31764 33.5149 1.77155C30.9755 0.61264 28.0645 0 25.0978 0C22.1307 0 19.2201 0.61264 16.6807 1.77155C13.2925 3.31764 9.62503 4.10156 5.77943 4.10156H5.56657C5.02717 4.10156 4.59001 4.53873 4.59001 5.07812V8.75397L2.73988 12.4538C2.58844 12.7567 2.60484 13.1161 2.7826 13.4041C2.96075 13.6921 3.27508 13.8672 3.61344 13.8672H4.59001V15.8203H3.61344C3.27508 15.8203 2.96075 15.9954 2.7826 16.2834C2.60484 16.5714 2.58844 16.9308 2.73988 17.2337L4.59001 20.9335V43.9018L2.16119 48.5729C2.00364 48.8758 2.01585 49.2386 2.19285 49.5304C2.36985 49.8219 2.68609 50 3.02751 50H7.91032C8.27462 50 8.60879 49.7971 8.77664 49.474L11.0422 45.1172H39.1535L41.4186 49.474C41.5868 49.7971 41.921 50 42.2853 50H47.1681C47.5092 50 47.8258 49.8219 48.0028 49.53C48.1798 49.2386 48.192 48.8754 48.0345 48.5729V48.5729ZM6.44014 9.42116C6.50804 9.28535 6.54313 9.13582 6.54313 8.98438V6.04515C10.3929 5.94711 14.073 5.10864 17.4913 3.54843C19.7786 2.50473 22.4088 1.95312 25.0978 1.95312C27.7868 1.95312 30.417 2.50473 32.7043 3.54843C36.1227 5.10864 39.8027 5.94711 43.6525 6.04515V8.98438C43.6525 9.13582 43.6876 9.28535 43.7555 9.42116L45.0021 11.9141H5.19349L6.44014 9.42116ZM43.6525 13.8672V15.8203H6.54313V13.8672H43.6525ZM42.8781 48.0469L40.6126 43.6901C40.4447 43.367 40.1106 43.1641 39.7463 43.1641H10.4494C10.0851 43.1641 9.75091 43.367 9.58306 43.6901L7.31752 48.0469H4.63616L6.43289 44.5911C6.50537 44.4519 6.54313 44.2974 6.54313 44.1406V20.7031C6.54313 20.5517 6.50804 20.4021 6.44014 20.2663L5.19349 17.7734H45.0021L43.7555 20.2663C43.688 20.4021 43.6525 20.5517 43.6525 20.7031V44.1406C43.6525 44.2974 43.6903 44.4519 43.7628 44.5911L45.5595 48.0469H42.8781Z" fill="#892DFE"/>
<path d="M40.7227 23.6328H9.47266C8.93326 23.6328 8.49609 24.07 8.49609 24.6094V38.2812C8.49609 38.8206 8.93326 39.2578 9.47266 39.2578H40.7227C41.2621 39.2578 41.6992 38.8206 41.6992 38.2812V24.6094C41.6992 24.07 41.2621 23.6328 40.7227 23.6328ZM12.4023 37.3047H10.4492V25.5859H12.4023V37.3047ZM16.3086 37.3047H14.3555V25.5859H16.3086V37.3047ZM20.2148 37.3047H18.2617V25.5859H20.2148V37.3047ZM24.1211 37.3047H22.168V25.5859H24.1211V37.3047ZM28.0273 37.3047H26.0742V25.5859H28.0273V37.3047ZM31.9336 37.3047H29.9805V25.5859H31.9336V37.3047ZM35.8398 37.3047H33.8867V25.5859H35.8398V37.3047ZM39.7461 37.3047H37.793V25.5859H39.7461V37.3047Z" fill="#892DFE"/>
<path d="M25.0977 21.6797C25.6359 21.6797 26.0742 21.2414 26.0742 20.7031C26.0742 20.1649 25.6359 19.7266 25.0977 19.7266C24.5594 19.7266 24.1211 20.1649 24.1211 20.7031C24.1211 21.2414 24.5594 21.6797 25.0977 21.6797Z" fill="#892DFE"/>
<path d="M29.0039 21.6797H36.8164C37.3547 21.6797 37.793 21.2414 37.793 20.7031C37.793 20.1649 37.3547 19.7266 36.8164 19.7266H29.0039C28.4657 19.7266 28.0273 20.1649 28.0273 20.7031C28.0273 21.2414 28.4657 21.6797 29.0039 21.6797Z" fill="#892DFE"/>
<path d="M9.47266 21.6797C10.0109 21.6797 10.4492 21.2414 10.4492 20.7031C10.4492 20.1649 10.0109 19.7266 9.47266 19.7266C8.9344 19.7266 8.49609 20.1649 8.49609 20.7031C8.49609 21.2414 8.9344 21.6797 9.47266 21.6797Z" fill="#892DFE"/>
<path d="M40.7227 19.7266C40.1844 19.7266 39.7461 20.1649 39.7461 20.7031C39.7461 21.2414 40.1844 21.6797 40.7227 21.6797C41.2609 21.6797 41.6992 21.2414 41.6992 20.7031C41.6992 20.1649 41.2609 19.7266 40.7227 19.7266Z" fill="#892DFE"/>
<path d="M13.3789 21.6797H21.1914C21.7297 21.6797 22.168 21.2414 22.168 20.7031C22.168 20.1649 21.7297 19.7266 21.1914 19.7266H13.3789C12.8407 19.7266 12.4023 20.1649 12.4023 20.7031C12.4023 21.2414 12.8407 21.6797 13.3789 21.6797Z" fill="#892DFE"/>
</g>
<defs>
<clipPath id="clip0">
<rect width="50" height="50" fill="white"/>
</clipPath>
</defs>
</svg>
