<svg width="50" height="50" viewBox="0 0 50 50" fill="none" xmlns="http://www.w3.org/2000/svg">
<g clip-path="url(#clip0)">
<path d="M42.2656 37.7599C42.2539 37.6973 42.2344 37.6357 42.21 37.5763C42.1855 37.5176 42.1553 37.4609 42.1201 37.4082C42.085 37.3545 42.0439 37.3047 41.999 37.2598C41.9541 37.2148 41.9043 37.1738 41.8506 37.1387C41.7979 37.1035 41.7412 37.0732 41.6826 37.0488C41.623 37.0244 41.5615 37.0049 41.499 36.9932C41.373 36.9678 41.2441 36.9678 41.1182 36.9932C41.0557 37.0049 40.9941 37.0244 40.9346 37.0488C40.876 37.0732 40.8193 37.1035 40.7666 37.1387C40.7129 37.1738 40.6631 37.2148 40.6182 37.2598C40.5732 37.3047 40.5322 37.3545 40.4971 37.4082C40.4619 37.4609 40.4316 37.5176 40.4072 37.5763C40.3828 37.6357 40.3643 37.6973 40.3516 37.7599C40.3389 37.8224 40.332 37.8868 40.332 37.9502C40.332 38.2071 40.4365 38.459 40.6182 38.6406C40.7998 38.8223 41.0518 38.9267 41.3086 38.9267C41.3721 38.9266 41.4365 38.9199 41.499 38.9072C41.5615 38.8955 41.623 38.876 41.6826 38.8516C41.7412 38.8271 41.7979 38.7969 41.8506 38.7617C41.9043 38.7266 41.9541 38.6855 41.999 38.6406C42.1807 38.459 42.2852 38.2071 42.2852 37.9502C42.2852 37.8868 42.2783 37.8223 42.2656 37.7599Z" fill="#892DFE"/>
<path d="M21.248 25.786C21.2353 25.7235 21.2168 25.662 21.1924 25.6034C21.1679 25.5438 21.1377 25.4873 21.1025 25.4346C21.0664 25.3807 21.0263 25.3309 20.9814 25.286C20.7539 25.0595 20.417 24.955 20.0996 25.0184C20.0371 25.0311 19.9756 25.0507 19.917 25.0751C19.8584 25.0995 19.8017 25.1299 19.748 25.1649C19.6953 25.2001 19.6445 25.2411 19.5996 25.286C19.5547 25.3309 19.5136 25.3807 19.4785 25.4346C19.4433 25.4873 19.4131 25.5438 19.3886 25.6034C19.3642 25.6621 19.3457 25.7235 19.333 25.786C19.3203 25.8485 19.3134 25.913 19.3134 25.9764C19.3134 26.2333 19.4179 26.4852 19.5996 26.6668C19.6445 26.7118 19.6953 26.7528 19.748 26.7879C19.8017 26.8232 19.8584 26.8534 19.917 26.8778C19.9756 26.9022 20.0371 26.9218 20.0996 26.9335C20.1631 26.9462 20.2265 26.953 20.291 26.953C20.5478 26.953 20.7988 26.8485 20.9814 26.6668C21.1631 26.4852 21.2675 26.2333 21.2675 25.9764C21.2675 25.913 21.2607 25.8485 21.248 25.786Z" fill="#892DFE"/>
<path d="M47.0877 20.6837C42.6805 15.5492 35.5788 12.2715 27.7219 11.6529V8.16426C28.8532 7.31416 29.5358 5.97129 29.5358 4.53584C29.5358 2.03477 27.501 0 25 0C22.4989 0 20.4641 2.03477 20.4641 4.53574C20.4641 5.97119 21.1467 7.31406 22.278 8.16416V11.6528C14.4212 12.2715 7.31949 15.5492 2.91216 20.6836C2.56089 21.0929 2.60786 21.7095 3.01714 22.0607L6.43247 24.9924C6.62906 25.1611 6.88511 25.2447 7.14273 25.2251C7.40103 25.2055 7.64087 25.084 7.80952 24.8875C8.12232 24.5231 8.45454 24.1712 8.80493 23.8321V34.5858L6.998 37.0139L3.82388 38.0855C3.5314 38.1843 3.30288 38.4154 3.20747 38.7091C3.11216 39.0026 3.16109 39.324 3.3397 39.5758L5.27769 42.3084L5.31607 45.6583C5.31968 45.967 5.4689 46.2558 5.71861 46.4372C5.88745 46.56 6.08892 46.6237 6.29263 46.6237C6.39019 46.6237 6.48833 46.6092 6.58365 46.5793L9.7815 45.5807L12.9793 46.5793C13.2739 46.6715 13.5948 46.6186 13.8445 46.4372C14.0942 46.2559 14.2434 45.967 14.247 45.6583L14.2854 42.3084L16.2234 39.5758C16.4019 39.324 16.4509 39.0026 16.3556 38.7091C16.2602 38.4154 16.0317 38.1843 15.7392 38.0855L12.5651 37.0139L10.7582 34.5858V22.2069C13.1468 20.4936 16.0825 19.25 19.314 18.5769V22.127C19.314 22.6662 19.7512 23.1035 20.2906 23.1035C20.8299 23.1035 21.2671 22.6662 21.2671 22.127V18.2448C22.4829 18.0835 23.7312 18.0003 25 18.0003C26.6514 18.0003 28.268 18.1411 29.8231 18.4119V36.4459C29.4784 36.3295 29.0764 36.2571 28.6098 36.2571C26.4236 36.2571 24.8369 37.8748 24.8369 40.1038C24.8369 41.0735 25.0569 41.8778 25.5503 42.7118C26.368 44.0939 28.4678 45.5058 29.9761 46.4476C30.0534 46.4958 30.1172 46.5356 30.1653 46.5663C30.357 46.6887 30.5768 46.7498 30.7966 46.7498C31.0155 46.7498 31.2343 46.6892 31.4252 46.568C31.4727 46.5378 31.5357 46.4987 31.6117 46.4517C33.1221 45.5138 35.2255 44.1059 36.0501 42.7119C36.5428 41.8791 36.7624 41.0747 36.7624 40.1039C36.7624 37.875 35.1749 36.2572 32.9874 36.2572C32.5218 36.2572 32.1206 36.3291 31.7762 36.4448V18.8283C35.0774 19.6653 38.0246 21.1119 40.3321 23.0536V34.1006C40.3321 34.6398 40.7693 35.0771 41.3086 35.0771C41.848 35.0771 42.2852 34.6398 42.2852 34.1006V24.9834C42.4436 25.1232 42.6442 25.2089 42.8573 25.2251C42.8821 25.227 42.9068 25.2279 42.9315 25.2279C43.164 25.2279 43.3898 25.1448 43.5675 24.9924L46.9829 22.0607C47.392 21.7096 47.439 21.093 47.0877 20.6837ZM8.80484 21.2385C8.15503 21.7561 7.54663 22.308 6.98462 22.8924L5.04878 21.2308C6.1522 20.0677 7.41421 19.0185 8.80484 18.095V21.2385ZM25 1.95312C26.4241 1.95312 27.5827 3.11162 27.5827 4.53574C27.5827 5.4668 27.0781 6.32969 26.2658 6.78769C25.9587 6.96074 25.7688 7.28594 25.7688 7.63838V11.5547C25.765 11.5546 25.7612 11.5546 25.7575 11.5545C25.7328 11.5539 25.7081 11.5534 25.6833 11.5529C25.6773 11.5528 25.6711 11.5527 25.6651 11.5525C25.6375 11.552 25.6099 11.5516 25.5824 11.5511C25.5782 11.551 25.5741 11.551 25.5699 11.5509C25.5408 11.5504 25.5117 11.55 25.4825 11.5495L25.4756 11.5494C25.4467 11.549 25.4179 11.5486 25.389 11.5483C25.3828 11.5482 25.3766 11.5482 25.3704 11.5481C25.3445 11.5479 25.3187 11.5477 25.2928 11.5474C25.2839 11.5473 25.275 11.5473 25.2662 11.5472C25.2429 11.547 25.2197 11.5468 25.1964 11.5467C25.181 11.5466 25.1656 11.5466 25.1501 11.5465C25.1333 11.5464 25.1166 11.5463 25.0998 11.5463C25.0665 11.5462 25.0333 11.5461 25 11.5461C24.9667 11.5461 24.9334 11.5462 24.9001 11.5463C24.8833 11.5463 24.8666 11.5464 24.8498 11.5465C24.8343 11.5466 24.8189 11.5466 24.8035 11.5467C24.7802 11.5468 24.757 11.547 24.7337 11.5472C24.7249 11.5473 24.716 11.5473 24.7071 11.5474C24.6812 11.5476 24.6554 11.5479 24.6295 11.5481C24.6233 11.5482 24.6171 11.5482 24.6109 11.5483C24.582 11.5486 24.5532 11.549 24.5243 11.5494L24.5174 11.5495C24.4883 11.5499 24.4591 11.5504 24.43 11.5509C24.4259 11.551 24.4217 11.551 24.4175 11.5511C24.39 11.5516 24.3624 11.552 24.3348 11.5525C24.3288 11.5526 24.3226 11.5527 24.3166 11.5529C24.2918 11.5534 24.2671 11.5539 24.2424 11.5545C24.2386 11.5545 24.2349 11.5545 24.2311 11.5546V7.63838C24.2311 7.28594 24.0412 6.96084 23.7341 6.78769C22.9218 6.32978 22.4172 5.46689 22.4172 4.53574C22.4172 3.11162 23.5758 1.95312 25 1.95312ZM11.1802 38.4246C11.2988 38.584 11.463 38.7033 11.6512 38.7669L13.8709 39.5163L12.5156 41.4273C12.4007 41.5894 12.3379 41.7825 12.3357 41.9811L12.3088 44.3238L10.0725 43.6255C9.88296 43.5662 9.67984 43.5662 9.49029 43.6255L7.25396 44.3238L7.2271 41.9811C7.22486 41.7825 7.16206 41.5894 7.04722 41.4273L5.69195 39.5163L7.91167 38.7669C8.09986 38.7034 8.26411 38.584 8.38277 38.4246L9.7815 36.5451L11.1802 38.4246ZM29.823 16.4333C28.2605 16.1789 26.6453 16.0472 25 16.0472C19.683 16.0472 14.6793 17.423 10.7581 19.863V16.926C14.4 14.9659 18.721 13.7802 23.2958 13.5434C23.2989 13.5433 23.3019 13.5432 23.3049 13.543C24.4288 13.485 25.5712 13.485 26.6951 13.543C26.7006 13.5433 26.7061 13.5435 26.7116 13.5437C27.7639 13.5984 28.8028 13.7034 29.823 13.8564V16.4333V16.4333ZM32.9873 38.2103C33.8278 38.2103 34.8092 38.7061 34.8092 40.1038C34.8092 40.7213 34.6817 41.1888 34.369 41.7173C33.9362 42.4488 32.7351 43.4374 30.7975 44.657C28.8593 43.4308 27.6601 42.4423 27.2311 41.7173C26.9176 41.1874 26.7898 40.72 26.7898 40.1038C26.7898 38.7062 27.7702 38.2103 28.6096 38.2103C29.2149 38.2103 29.6379 38.4275 29.8668 38.856C30.0501 39.199 30.4059 39.4123 30.7953 39.4127H30.7963C31.1852 39.4127 31.541 39.2001 31.7251 38.8571C31.9554 38.4279 32.38 38.2103 32.9873 38.2103ZM43.0153 22.8924C40.2179 19.9836 36.2724 17.8791 31.7761 16.821V14.2127C37.0402 15.3474 41.6885 17.7921 44.9511 21.2309L43.0153 22.8924Z" fill="#892DFE"/>
<path d="M20.2905 28.2825C17.7844 28.2825 15.7455 30.3213 15.7455 32.8275C15.7455 35.3336 17.7844 37.3725 20.2905 37.3725C22.7967 37.3725 24.8355 35.3336 24.8355 32.8275C24.8355 30.3213 22.7967 28.2825 20.2905 28.2825ZM20.2905 35.4194C18.8613 35.4194 17.6986 34.2567 17.6986 32.8275C17.6986 31.3983 18.8613 30.2356 20.2905 30.2356C21.7197 30.2356 22.8824 31.3983 22.8824 32.8275C22.8824 34.2567 21.7197 35.4194 20.2905 35.4194Z" fill="#892DFE"/>
<path d="M41.3086 40.91C38.8025 40.91 36.7636 42.9489 36.7636 45.4551C36.7636 47.9612 38.8025 50.0001 41.3086 50.0001C43.8148 50.0001 45.8536 47.9612 45.8536 45.4551C45.8536 42.9489 43.8148 40.91 41.3086 40.91ZM41.3086 48.0469C39.8794 48.0469 38.7167 46.8843 38.7167 45.4551C38.7167 44.0259 39.8794 42.8632 41.3086 42.8632C42.7378 42.8632 43.9005 44.0259 43.9005 45.4551C43.9005 46.8843 42.7378 48.0469 41.3086 48.0469Z" fill="#892DFE"/>
</g>
<defs>
<clipPath id="clip0">
<rect width="50" height="50" fill="white"/>
</clipPath>
</defs>
</svg>
