<svg width="50" height="50" viewBox="0 0 50 50" fill="none" xmlns="http://www.w3.org/2000/svg">
<path d="M29.1116 46.8044C28.6112 46.6037 28.0425 46.8469 27.8418 47.3475C27.6741 47.7658 27.2489 48.0469 26.7839 48.0469H23.2163C22.7513 48.0469 22.3261 47.7658 22.1584 47.3475C21.9577 46.8469 21.3893 46.6042 20.8886 46.8044C20.388 47.0052 20.1448 47.5736 20.3455 48.0742C20.8146 49.2441 21.9413 50 23.2163 50H26.7839C28.0589 50 29.1856 49.2441 29.6546 48.0742C29.8554 47.5736 29.6122 47.0052 29.1116 46.8044Z" fill="#892DFE"/>
<path d="M40.5801 41.7736C40.3148 40.4061 39.4723 39.2221 38.2679 38.5228C38.4869 38.3439 38.6924 38.1461 38.8799 37.9282C39.8048 36.8537 40.2143 35.4333 40.0033 34.0314C39.6606 31.7537 38.6912 29.6255 37.1999 27.8768C36.0833 26.5675 34.7108 25.5124 33.1748 24.771C35.0546 22.7657 36.2077 20.0714 36.2077 17.1125C36.2076 11.992 32.7558 7.6624 28.0568 6.32852C28.6969 5.56436 29.0461 4.60967 29.0461 3.60088C29.0462 1.61533 27.4308 0 25.4453 0C25.4452 0 25.4451 0 25.445 0C24.6435 0 23.8929 0.260645 23.3314 0.733789C22.7109 1.25664 22.3692 1.9915 22.3691 2.80293C22.3691 3.34219 22.8063 3.77949 23.3457 3.77949C23.885 3.77949 24.3223 3.34228 24.3223 2.80293C24.3223 2.57061 24.4123 2.37695 24.59 2.22715C24.7998 2.05039 25.1034 1.95303 25.4451 1.95303H25.4452C26.3538 1.95303 27.0931 2.69209 27.0931 3.60068C27.0931 4.21611 26.8534 4.79463 26.4183 5.22978C25.9831 5.66484 25.4047 5.90449 24.7894 5.90449C24.7893 5.90449 24.7893 5.90449 24.7893 5.90449C24.7653 5.90449 24.7419 5.90635 24.7184 5.90811C18.6681 6.05811 13.7922 11.0266 13.7921 17.1124C13.7921 20.0713 14.9452 22.7656 16.825 24.7709C15.2891 25.5123 13.9166 26.5673 12.8 27.8767C11.3087 29.6254 10.3392 31.7536 9.99647 34.0312C9.78554 35.4332 10.195 36.8536 11.1199 37.9281C11.3074 38.146 11.5129 38.3439 11.7319 38.5228C10.5275 39.222 9.68485 40.406 9.41972 41.7735C9.1538 43.1446 9.49501 44.5619 10.3557 45.6618L12.447 48.3342C13.2919 49.4139 14.5754 49.9944 15.8772 49.9944C16.6163 49.9944 17.3614 49.8073 18.0354 49.4182C19.8969 48.3435 20.6945 46.0298 19.8909 44.0364L18.6223 40.8892C18.5375 40.6789 18.4373 40.4772 18.3255 40.2835H25.4882C26.0275 40.2835 26.4647 39.8462 26.4647 39.3069C26.4647 38.7677 26.0275 38.3304 25.4882 38.3304H16.469V36.2717C16.469 36.0065 16.6847 35.7909 16.9498 35.7909H33.0501C33.3151 35.7909 33.5309 36.0065 33.5309 36.2717V38.4654C32.5619 38.9966 31.797 39.8485 31.3774 40.8892L30.1088 44.0363C29.3052 46.0298 30.1028 48.3435 31.9643 49.4182C32.6384 49.8073 33.3832 49.9944 34.1225 49.9944C35.4242 49.9944 36.7079 49.4138 37.5528 48.3342L39.644 45.6618C40.5049 44.5619 40.846 43.1447 40.5801 41.7736ZM15.7451 17.1125C15.7452 12.0095 19.897 7.85781 24.9999 7.85771C30.1028 7.85781 34.2546 12.0095 34.2547 17.1125C34.2547 22.2155 30.103 26.3672 24.9999 26.3673C19.8969 26.3672 15.7451 22.2155 15.7451 17.1125ZM16.811 41.6194L18.0797 44.7668C18.5216 45.8632 18.0827 47.1357 17.059 47.7269C16.0353 48.318 14.7138 48.0618 13.9851 47.1307L11.8938 44.4583C11.3818 43.8041 11.1789 42.9611 11.3371 42.1455C11.4953 41.3299 11.9987 40.6238 12.7183 40.2084C13.4377 39.793 14.3009 39.7103 15.0863 39.9809C15.8718 40.2517 16.5004 40.849 16.811 41.6194ZM33.0565 31.8848C32.5172 31.8848 32.08 32.3221 32.08 32.8613V33.8379H17.9263V32.8613C17.9263 32.3221 17.4891 31.8848 16.9497 31.8848C16.4103 31.8848 15.9731 32.3221 15.9731 32.8613V34.0431C15.116 34.4201 14.5158 35.277 14.5158 36.2718V37.6508C13.7763 37.5769 13.09 37.2231 12.6001 36.654C12.0467 36.0109 11.8017 35.1609 11.9278 34.322C12.4869 30.6059 14.9646 27.5354 18.4431 26.1964C20.288 27.5317 22.5534 28.3203 24.9999 28.3203C27.4464 28.3203 29.7118 27.5317 31.5567 26.1964C35.0351 27.5354 37.5129 30.6059 38.072 34.322C38.1981 35.1609 37.9531 36.0109 37.3996 36.654C36.9098 37.2231 36.2234 37.5769 35.4839 37.6508V36.2718C35.4839 35.2795 34.8867 34.4245 34.0331 34.046V32.8613C34.0331 32.3221 33.5959 31.8848 33.0565 31.8848ZM38.1059 44.4582L36.0147 47.1306C35.2861 48.0615 33.9647 48.3178 32.9409 47.7268C31.9171 47.1356 31.4783 45.8631 31.9203 44.7665L33.189 41.6192C33.4996 40.8487 34.1282 40.2515 34.9137 39.9807C35.2179 39.8759 35.5337 39.824 35.8483 39.824C36.3461 39.824 36.8409 39.9538 37.2817 40.2083C38.0013 40.6237 38.5046 41.3298 38.6629 42.1454C38.8209 42.961 38.618 43.804 38.1059 44.4582Z" fill="#892DFE"/>
<path d="M30.0577 38.6162C29.876 38.4346 29.6241 38.3301 29.3672 38.3301C29.1104 38.3301 28.8585 38.4345 28.6768 38.6162C28.4952 38.7979 28.3907 39.0498 28.3907 39.3066C28.3907 39.5645 28.4952 39.8154 28.6768 39.997C28.8585 40.1796 29.1104 40.2832 29.3672 40.2832C29.6241 40.2832 29.876 40.1796 30.0577 39.997C30.2393 39.8154 30.3438 39.5635 30.3438 39.3066C30.3438 39.0498 30.2393 38.7979 30.0577 38.6162Z" fill="#892DFE"/>
<path d="M27.6923 20.4474C27.2733 20.1078 26.6584 20.1723 26.3188 20.5911C25.9942 20.9915 25.5135 21.2211 24.9999 21.2211C24.4863 21.2211 24.0055 20.9914 23.6811 20.5911C23.3415 20.1721 22.7266 20.1079 22.3075 20.4474C21.8885 20.7869 21.8241 21.4019 22.1638 21.8209C22.8608 22.681 23.8946 23.1741 24.9999 23.1741C26.1052 23.1741 27.1391 22.6809 27.836 21.8209C28.1757 21.4019 28.1113 20.7869 27.6923 20.4474Z" fill="#892DFE"/>
<path d="M22.5322 16.4218C21.6464 15.536 20.205 15.536 19.3189 16.4218C18.9376 16.8032 18.9375 17.4214 19.3189 17.8029C19.7003 18.1843 20.3187 18.1843 20.7 17.803C20.8243 17.6787 21.0268 17.6787 21.1512 17.803C21.3419 17.9936 21.5918 18.089 21.8417 18.089C22.0916 18.089 22.3416 17.9936 22.5322 17.803C22.9136 17.4216 22.9136 16.8033 22.5322 16.4218Z" fill="#892DFE"/>
<path d="M30.6809 16.4218C29.7949 15.536 28.3534 15.536 27.4676 16.4218C27.0862 16.8031 27.0862 17.4215 27.4676 17.8029C27.6582 17.9936 27.9082 18.0889 28.1581 18.0889C28.408 18.0889 28.658 17.9935 28.8487 17.8029C28.973 17.6787 29.1754 17.6785 29.2998 17.8029C29.6812 18.1843 30.2995 18.1842 30.6809 17.8028C31.0622 17.4215 31.0622 16.8032 30.6809 16.4218Z" fill="#892DFE"/>
</svg>
