<svg width="24" height="25" viewBox="0 0 24 25" fill="none" xmlns="http://www.w3.org/2000/svg">
<path d="M13.7625 2.26257H4.30262C3.8732 2.26257 3.52505 2.61071 3.52505 3.04014C3.52505 3.46956 3.8732 3.8177 4.30262 3.8177H8.34447C7.49172 4.35175 6.72283 5.00763 6.06259 5.76114H0.777564C0.348141 5.76119 0 6.10938 0 6.5388C0 6.96822 0.348141 7.31636 0.777564 7.31636H4.93773C4.04063 8.83774 3.52501 10.6097 3.52501 12.5C3.52501 14.6996 4.22246 16.7393 5.40756 18.4099H3.20133C2.77191 18.4099 2.42377 18.7581 2.42377 19.1875C2.42377 19.6169 2.77191 19.965 3.20133 19.965H6.76473C7.24956 20.4198 7.77855 20.8279 8.34447 21.1823H0.857767C0.428345 21.1823 0.0802033 21.5305 0.0802033 21.9599C0.0802033 22.3893 0.428345 22.7375 0.857767 22.7375H13.7625C19.4076 22.7375 24 18.1449 24 12.5C24 6.85507 19.4075 2.26257 13.7625 2.26257ZM13.7625 21.1824C8.97508 21.1824 5.08023 17.2876 5.08023 12.5001C5.08023 7.7126 8.97508 3.81775 13.7625 3.81775C18.55 3.81775 22.4448 7.7126 22.4448 12.5C22.4448 17.2875 18.55 21.1824 13.7625 21.1824Z" fill="#892DFE"/>
<path d="M13.7626 6.1488C10.2605 6.1488 7.41138 8.99797 7.41138 12.5001C7.41138 14.5885 8.42477 16.4446 9.98552 17.6029C9.99982 17.615 10.014 17.6272 10.0294 17.6383C10.0468 17.6509 10.0646 17.6626 10.0825 17.6736C11.1214 18.4147 12.392 18.8513 13.7626 18.8513C15.1333 18.8513 16.4038 18.4147 17.4427 17.6736C17.4607 17.6626 17.4785 17.6509 17.4958 17.6383C17.5112 17.6271 17.5254 17.6149 17.5397 17.6029C19.1004 16.4446 20.1139 14.5885 20.1139 12.5001C20.1139 8.99801 17.2647 6.1488 13.7626 6.1488ZM14.5402 7.76735C16.0576 8.01584 17.3377 8.97865 18.0225 10.2983L16.009 10.9526C15.6592 10.4464 15.1431 10.064 14.5402 9.88437V7.76735H14.5402ZM14.9366 12.5C14.9366 13.1473 14.41 13.674 13.7626 13.674C13.1153 13.674 12.5886 13.1474 12.5886 12.5C12.5886 11.8527 13.1153 11.326 13.7626 11.326C14.41 11.326 14.9366 11.8527 14.9366 12.5ZM12.985 7.76735V9.88437C12.3821 10.064 11.866 10.4464 11.5162 10.9526L9.50271 10.2983C10.1876 8.97865 11.4677 8.01579 12.985 7.76735ZM10.3533 15.8697C9.49648 15.0029 8.96655 13.8122 8.96655 12.5C8.96655 12.2543 8.98521 12.0128 9.02102 11.777L11.0352 12.4314C11.0346 12.4543 11.0334 12.477 11.0334 12.5C11.0334 13.1233 11.2439 13.698 11.5969 14.158L10.3533 15.8697ZM13.7626 17.2961C12.9891 17.2961 12.258 17.1119 11.6104 16.7852L12.8542 15.0732C13.1386 15.1739 13.4442 15.2293 13.7626 15.2293C14.081 15.2293 14.3867 15.1739 14.671 15.0732L15.9149 16.7852C15.2673 17.1118 14.5361 17.2961 13.7626 17.2961ZM17.1719 15.8697L15.9283 14.1581C16.2813 13.6981 16.4918 13.1233 16.4918 12.5001C16.4918 12.477 16.4907 12.4543 16.49 12.4315L18.5042 11.777C18.54 12.0129 18.5587 12.2543 18.5587 12.5001C18.5587 13.8122 18.0288 15.0029 17.1719 15.8697Z" fill="#892DFE"/>
</svg>
