<svg width="24" height="25" viewBox="0 0 24 25" fill="none" xmlns="http://www.w3.org/2000/svg">
<path d="M23.7558 9.246C22.9172 6.66539 20.1355 5.24818 17.5551 6.08649C17.2142 6.19725 16.8691 6.35044 16.528 6.54024C16.6032 6.15732 16.6422 5.78171 16.6422 5.4233C16.6422 2.6836 14.7491 0.502319 12.0493 0.502319C9.34561 0.502319 7.35778 2.68843 7.35778 5.4233C7.35778 5.78166 7.39683 6.15727 7.47197 6.54024C7.13091 6.35049 6.78581 6.19725 6.44494 6.08649C3.86466 5.24804 1.08272 6.66539 0.244177 9.246C-0.606228 11.8634 0.840708 14.7782 3.40369 15.6111C3.74457 15.7218 4.11375 15.8007 4.50122 15.8476C4.21533 16.1133 3.96305 16.3942 3.75235 16.6842C2.15743 18.8794 2.64582 21.9629 4.84097 23.5578C7.0351 25.152 9.88495 24.6715 11.485 22.4691C11.6957 22.1792 11.8848 21.8524 12.0493 21.4984C12.2137 21.8524 12.4028 22.1792 12.6135 22.4691C14.2157 24.6745 16.9695 25.1486 19.1589 23.5578C21.3541 21.9629 21.8425 18.8794 20.2476 16.6842C20.037 16.3942 19.7846 16.1133 19.4987 15.8476C19.8861 15.8007 20.2555 15.7217 20.5964 15.6111C23.1593 14.7783 24.6062 11.8635 23.7558 9.246ZM12.0493 1.90833C13.8959 1.90833 15.2362 3.38658 15.2362 5.4233C15.2362 6.33999 14.8775 7.47019 14.2766 8.4466C14.2039 8.56477 14.1703 8.69644 14.1725 8.82624L13.4405 10.0932C13.2216 9.99844 12.982 9.92499 12.7429 9.87628V6.99361C12.7429 6.60539 12.4375 6.29063 12.0493 6.29063C11.6611 6.29063 11.3463 6.60539 11.3463 6.99361V9.87633C11.1016 9.9262 10.8664 10.0022 10.6429 10.1002L9.82561 8.7616C9.81741 8.65313 9.78398 8.54513 9.72333 8.4466C9.12249 7.47019 8.76375 6.33999 8.76375 5.4233C8.7638 3.41944 10.1762 1.90833 12.0493 1.90833ZM3.83813 14.2739C2.03161 13.6869 0.977021 11.5404 1.58133 9.68049C2.1803 7.83717 4.16705 6.82482 6.0105 7.42364C6.76725 7.66955 7.59352 8.22267 8.2845 8.93564L9.49177 10.913C9.29986 11.1168 9.132 11.3433 8.99269 11.5882L6.24924 10.6968C5.87967 10.5768 5.48335 10.779 5.36339 11.1481C5.24335 11.5174 5.44552 11.914 5.81471 12.034L8.55713 12.9251C8.52534 13.2073 8.5275 13.4605 8.55886 13.7296L6.80292 14.3422C5.75053 14.5632 4.65619 14.5397 3.83813 14.2739ZM11.3462 18.6545C11.2553 19.7904 10.8829 20.906 10.3477 21.6427C9.20363 23.2173 7.23192 23.5571 5.66742 22.4204C4.09946 21.2811 3.75066 19.0786 4.88986 17.5106C5.82066 16.2293 7.43742 15.6472 7.56005 15.5673L8.99967 15.065C9.12933 15.2908 9.28266 15.5012 9.45736 15.692L7.76166 18.026C7.53342 18.3401 7.60308 18.7797 7.91714 19.0079C8.23106 19.236 8.67075 19.1666 8.89908 18.8524L10.5943 16.519C10.8322 16.6276 11.0837 16.7113 11.3462 16.7648V18.6545H11.3462ZM12.0493 15.4296C10.8864 15.4296 9.94031 14.4835 9.94031 13.3206C9.94031 12.1576 10.8864 11.2116 12.0493 11.2116C13.2122 11.2116 14.1583 12.1576 14.1583 13.3206C14.1583 14.4835 13.2122 15.4296 12.0493 15.4296ZM18.3325 22.4204C16.7169 23.5942 14.8576 23.1659 13.7509 21.6427C13.2157 20.906 12.8339 19.7904 12.7429 18.6546V16.7648C13.0054 16.7113 13.2663 16.6277 13.5041 16.5191L15.1994 18.8525C15.4276 19.1666 15.8672 19.2361 16.1813 19.0079C16.4954 18.7797 16.5651 18.3401 16.3368 18.026L14.6411 15.6921C14.8143 15.5029 14.9666 15.2944 15.0955 15.0708L16.4059 15.5429C16.5674 15.6626 18.1657 16.2106 19.11 17.5106C20.2494 19.0786 19.9005 21.2811 18.3325 22.4204ZM17.2506 14.3527L15.5389 13.736C15.5716 13.4594 15.5729 13.2045 15.5414 12.925L18.2838 12.0339C18.6531 11.9139 18.8551 11.5174 18.7351 11.1481C18.6151 10.7788 18.2185 10.5767 17.8493 10.6968L15.1058 11.5882C14.9641 11.339 14.7928 11.1089 14.5967 10.9024L15.7577 8.89299C16.44 8.20078 17.2479 7.66458 17.9894 7.42364C19.8326 6.82482 21.8196 7.83713 22.4186 9.68039C23.0229 11.5404 21.9683 13.6868 20.1618 14.2739H20.1619C19.3576 14.5352 18.2864 14.5617 17.2506 14.3527Z" fill="#892DFE"/>
</svg>
