<svg width="84" height="66" viewBox="0 0 84 66" fill="none" xmlns="http://www.w3.org/2000/svg">
<g clip-path="url(#clip0)">
<path d="M69.607 7.47066C72.5405 10.2709 77.4074 10.0708 80.2076 7.1373C81.4077 5.80396 82.1411 4.13717 82.2078 2.47026C82.2078 1.67028 82.6078 0.870091 83.2078 0.270109L84.2745 -0.796599L98.5421 13.471C99.4754 14.4044 99.4755 15.8712 98.5421 16.8046L84.2079 31.1388L83.1412 30.0721C82.5411 29.472 82.2079 28.6052 82.1412 27.7385C82.0079 26.0051 81.3412 24.2717 80.0077 22.9382C79.8077 22.7382 79.6744 22.6049 79.4744 22.4049C79.4078 22.3383 79.4078 22.3383 79.341 22.2715C79.2077 22.1382 79.0743 22.0048 78.8744 21.9382C78.8078 21.8715 78.741 21.8048 78.6078 21.8048C78.4744 21.6714 78.3412 21.6714 78.2078 21.5381C78.1412 21.4714 78.0078 21.4713 77.9412 21.4047C77.7412 21.338 77.6745 21.2713 77.4744 21.2047C77.4078 21.1381 77.2744 21.138 77.2078 21.0713C77.0746 21.0713 76.9412 20.938 76.8077 20.938C76.7411 20.8713 76.6077 20.8712 76.5411 20.8046C76.4078 20.8046 76.2077 20.738 76.0744 20.7379C75.9411 20.7379 75.8744 20.6711 75.8076 20.7379C75.6744 20.7379 75.4743 20.6712 75.3409 20.6711C75.2077 20.6711 75.2077 20.6711 75.0742 20.6711C74.9409 20.6711 74.8075 20.6711 74.6742 20.6711C74.5409 20.6711 74.4742 20.7379 74.4075 20.6711C74.2742 20.6711 74.1407 20.6711 73.9407 20.7379C73.8075 20.7379 73.7408 20.8046 73.674 20.7379C73.5408 20.7379 73.3407 20.8045 73.2073 20.8046C73.074 20.8046 73.0073 20.8714 72.8739 20.8712C72.7407 20.8712 72.5406 20.9379 72.4738 21.0046C72.4071 21.0713 72.2738 21.0713 72.2072 21.138C72.074 21.138 71.9406 21.2713 71.8071 21.2713C71.7405 21.338 71.6071 21.3381 71.5405 21.4047C71.4739 21.4713 71.2739 21.5381 71.1404 21.5381C71.0738 21.6047 71.007 21.6714 70.8738 21.6714C70.8071 21.7381 70.6072 21.8048 70.5404 21.8715C70.4737 21.9383 70.407 22.0049 70.3404 22.0715C70.2738 22.1382 70.1404 22.2715 70.0071 22.4049C69.9404 22.4715 69.8737 22.5383 69.7403 22.6716C69.6737 22.7382 69.5403 22.8716 69.4736 22.9383L69.407 23.005L69.1402 23.2717C69.0736 23.3383 68.9402 23.4717 68.8735 23.5384C68.7401 23.6718 68.7401 23.8051 68.6068 23.9384C68.5402 24.0051 68.4734 24.0718 68.4068 24.1384C68.2734 24.2718 68.2067 24.4718 68.1402 24.6718L68.0735 24.7384C68.0068 24.9384 67.8735 25.2051 67.8068 25.4051C67.2068 26.9386 67.1401 28.7387 67.6734 30.3388C67.6734 30.3388 67.6734 30.3388 67.7401 30.4054C67.8068 30.6054 67.8734 30.8055 67.9401 31.0054C67.9401 31.0054 68.0067 31.072 68.0068 31.2054C68.0735 31.4054 68.1402 31.472 68.2068 31.6721C68.2734 31.7387 68.2735 31.8721 68.3402 31.9387C68.4068 32.0054 68.4735 32.2054 68.5403 32.2721C68.6069 32.3387 68.607 32.4721 68.6736 32.5387C68.7403 32.6053 68.8736 32.7387 68.9404 32.8054C69.007 32.8721 69.1403 33.0054 69.2071 33.0722C69.2737 33.1388 69.4071 33.2722 69.4738 33.3389C69.5406 33.4056 69.6738 33.5389 69.7405 33.6056L69.8072 33.6723C69.8738 33.7389 69.9405 33.8056 70.0072 33.8723L70.2739 34.139C70.3405 34.2056 70.4073 34.2724 70.4739 34.339C70.5405 34.4056 70.6739 34.539 70.8073 34.5391C70.8739 34.6057 70.9406 34.6725 71.0739 34.6725C71.1405 34.7391 71.3405 34.8058 71.4072 34.8726C71.4739 34.9392 71.6072 34.9393 71.6739 35.0059C71.7405 35.0726 71.8739 35.0727 71.9405 35.1393C72.0071 35.2059 72.1405 35.206 72.2071 35.2727C72.2737 35.3393 72.4071 35.3394 72.4737 35.406C72.5404 35.4726 72.6737 35.4728 72.8071 35.4727C72.9403 35.4726 73.0071 35.5394 73.1404 35.5393C73.2737 35.5393 73.3404 35.606 73.4738 35.6059C73.6071 35.6059 73.6738 35.6726 73.8072 35.6725C73.9404 35.6725 74.0072 35.7393 74.1405 35.7392C74.2738 35.7392 74.2738 35.7392 74.4073 35.7392C75.274 35.8059 76.1407 36.1392 76.7408 36.7392L77.8075 37.806L63.4066 52.2068C62.4733 53.1402 61.0065 53.1403 60.073 52.2068L45.6054 37.7392L44.5387 38.8059C43.9386 39.406 43.6052 40.1394 43.5387 41.0061C43.4721 42.6729 42.8054 44.4063 41.5386 45.6731C38.805 48.6733 33.938 48.8733 30.9379 46.0065C27.871 43.0729 27.871 38.2726 30.8045 35.3391C32.138 34.0056 33.8048 33.2723 35.6048 33.2057C36.4715 33.1389 37.2716 32.8723 37.9383 32.2056L39.005 31.1389L24.6708 16.8046C23.7374 15.8713 23.7373 14.4045 24.6708 13.471L39.005 -0.863227L37.9383 -1.92994C37.3382 -2.53003 36.6049 -2.86339 35.7382 -2.92991C34.0714 -2.99654 32.338 -3.66326 31.0711 -4.93007C28.0709 -7.66358 27.8709 -12.5306 30.6712 -15.4641C33.6048 -18.531 38.4051 -18.531 41.3386 -15.5975C42.672 -14.264 43.4053 -12.5972 43.472 -10.7972C43.5387 -9.93046 43.8053 -9.13038 44.4721 -8.46366L45.5388 -7.39695L59.9396 -21.7978C60.873 -22.7312 62.3398 -22.7313 63.2732 -21.7978L77.6075 -7.46358L76.5408 -6.39687C75.9407 -5.79678 75.074 -5.46353 74.2073 -5.39679C72.4738 -5.26353 70.7404 -4.59681 69.407 -3.26338C66.5401 -0.263245 66.5401 4.53705 69.607 7.47066Z" fill="#B27FFC"/>
</g>
<defs>
<clipPath id="clip0">
<rect width="71" height="71" fill="white" transform="translate(0 15.2046) rotate(-45)"/>
</clipPath>
</defs>
</svg>
