<svg width="104" height="65" viewBox="0 0 104 65" fill="none" xmlns="http://www.w3.org/2000/svg">
<g clip-path="url(#clip0)">
<path d="M120.901 78.2598C120.619 80.8099 119.339 83.271 117.662 85.2367C113.899 89.6446 110.51 90.6703 102.533 90.6703C91.2372 90.6703 79.8556 82.3088 77.0864 80.6161C73.0692 78.1645 63.1769 81.1179 50.2551 78.5392C46.9683 77.8819 38.2415 75.3159 37.111 74.9063C29.772 71.991 24.7608 66.748 22.0297 59.3391C19.7241 53.0671 21.5629 43.7465 10.0542 43.7465C4.50311 43.7465 0 40.7455 0 37.0458C0 33.343 4.50629 30.5484 10.0542 30.342C17.5393 30.0625 22.1694 34.5783 23.4619 37.0458C25.7738 41.4664 27.9968 45.9695 30.1658 50.4504C32.9191 56.1475 35.1516 54.8328 37.3682 53.0131C37.3968 52.9909 37.4285 52.9687 37.4571 52.9433C39.3085 51.4158 41.0742 50.0439 42.9383 48.8625C43.1543 48.7228 43.3766 48.5863 43.5989 48.456C44.1006 48.1512 44.6119 47.8622 45.1359 47.5923C46.3967 46.9254 47.7241 46.3474 49.1627 45.8615C49.3945 45.7821 49.6327 45.7059 49.8708 45.636V45.6329C49.8836 45.6297 49.8931 45.6265 49.9058 45.6233C49.9661 45.6043 50.0265 45.5852 50.0868 45.5694C50.3345 45.4931 50.5886 45.4201 50.8458 45.3502C51.2427 45.2454 51.6397 45.147 52.0398 45.0549C53.6054 44.696 55.1996 44.4547 56.8002 44.3435C56.9653 44.334 57.1305 44.3245 57.2988 44.3181C59.4487 44.2038 61.6082 44.334 63.7168 44.7405C63.8597 44.7659 64.0026 44.7945 64.1487 44.8262C65.5555 45.1248 66.9401 45.5471 68.2834 46.106C68.8868 46.3569 69.4775 46.6332 70.0555 46.9285L70.8367 47.3446C72.5134 48.2719 74.0918 49.377 75.5748 50.6282C75.9717 50.9553 76.3624 51.2983 76.7466 51.6508C77.0261 51.9048 77.3024 52.1652 77.5755 52.4288C79.1379 53.95 80.586 55.6172 81.9357 57.3702C85.1145 61.4954 87.7313 66.1033 89.9352 70.4317C92.4567 75.3699 94.613 81.4005 99.6274 84.3952C104.111 87.0786 110.101 86.7865 113.931 83.0741C120.396 76.8053 117.437 69.098 117.548 68.2056C117.843 65.8524 121.657 71.3749 120.901 78.2598Z" fill="#B27FFC"/>
<path d="M120.901 78.2598C120.619 80.8098 119.339 83.271 117.662 85.2367C113.899 89.6446 110.51 90.6703 102.533 90.6703C91.2373 90.6703 79.8556 82.3088 77.0865 80.6161C74.2125 78.8631 68.3375 79.873 60.4999 79.6475V44.334C63.1643 44.5055 65.7969 45.0707 68.2835 46.106C70.9415 47.2143 73.3646 48.7672 75.578 50.625C77.9185 52.5844 80.024 54.8868 81.9325 57.3638C81.9357 57.367 81.9357 57.3701 81.9357 57.3701C85.1146 61.4954 87.7313 66.1033 89.9353 70.4317C92.4567 75.3699 94.613 81.4005 99.6274 84.3952C104.111 87.0786 110.101 86.7865 113.931 83.0741C120.396 76.8053 117.437 69.0979 117.548 68.2056C117.843 65.8524 121.657 71.3749 120.901 78.2598Z" fill="#B27FFC"/>
<path d="M64.1741 44.8264C64.1137 45.4012 64.0344 45.9696 63.9327 46.519V46.5222C63.3294 49.8408 62.0305 52.5591 60.5221 52.5591C59.0136 52.5591 57.7148 49.8408 57.1114 46.5254V46.5222C56.9843 45.8172 56.8859 45.0836 56.8256 44.3437C56.9907 44.3341 57.1558 44.3246 57.3241 44.3183C59.4741 44.2039 61.6335 44.3341 63.7422 44.7406C63.8851 44.766 64.028 44.7946 64.1741 44.8264Z" fill="#B27FFC"/>
<path d="M70.8367 47.3445C70.7001 48.0749 70.5318 48.7736 70.3317 49.4214C69.6394 51.6793 68.601 53.2926 67.4387 53.2926C65.8223 53.2926 64.4409 50.1645 63.9073 46.522V46.5189C63.8216 45.9377 63.7581 45.3407 63.7168 44.7405C63.8597 44.7659 64.0026 44.7945 64.1487 44.8262C65.5555 45.1247 66.9401 45.5471 68.2834 46.106C68.8868 46.3569 69.4775 46.6332 70.0555 46.9285L70.8367 47.3445Z" fill="#B27FFC"/>
<path d="M70.8368 47.3445C72.9645 48.5195 74.9302 49.9835 76.7467 51.6507C76.0544 54.0198 74.9874 55.7346 73.7901 55.7346C72.2404 55.7346 70.9098 52.8638 70.3318 49.4214C70.1953 48.6116 70.1 47.7732 70.0555 46.9285L70.8368 47.3445Z" fill="#B27FFC"/>
<path d="M57.2987 44.3181C57.2638 45.058 57.1908 45.8012 57.086 46.522V46.5252C56.5493 50.1645 55.171 53.2926 53.5546 53.2926C52.3923 53.2926 51.3539 51.6825 50.6616 49.4278C50.3186 48.3099 50.0614 47.0333 49.9185 45.7154C49.9121 45.6837 49.9089 45.6551 49.9058 45.6233C49.9661 45.6043 50.0264 45.5852 50.0868 45.5693C50.3345 45.4931 50.5885 45.4201 50.8458 45.3502C51.2427 45.2454 51.6397 45.147 52.0398 45.0549C53.6054 44.696 55.1996 44.4547 56.8002 44.3435C56.9653 44.334 57.1304 44.3245 57.2987 44.3181Z" fill="#B27FFC"/>
<path d="M43.5989 48.4561C43.8498 50.4949 44.3706 52.413 45.0565 53.769C45.6662 54.9757 46.4062 55.7347 47.2033 55.7347C48.7498 55.7347 50.0804 52.8671 50.6616 49.4278C50.8363 48.3862 50.9442 47.2906 50.9665 46.2045C51.97 46.4999 52.1764 45.8457 52.0398 45.0549C51.6397 45.147 51.2427 45.2455 50.8458 45.3503C50.5885 45.4201 50.3345 45.4932 50.0868 45.5694C49.9788 45.5853 49.8962 45.6043 49.8708 45.6329V45.6361C49.6327 45.7059 49.3945 45.7822 49.1627 45.8616C47.7241 46.3474 46.3967 46.9254 45.1359 47.5923L43.5989 48.4561Z" fill="#B27FFC"/>
<path d="M63.7422 44.7406C62.672 44.5341 61.5885 44.3998 60.4999 44.3315V52.5565C60.5072 52.5565 60.5145 52.5591 60.5221 52.5591C62.0306 52.5591 63.3294 49.8407 63.9328 46.5221V46.5189C64.0344 45.9696 64.1138 45.4011 64.1741 44.8263C64.0281 44.7946 63.8852 44.766 63.7422 44.7406Z" fill="#B27FFC"/>
<path d="M38.27 68.4373C40.0239 68.4373 41.4457 67.0155 41.4457 65.2616C41.4457 63.5077 40.0239 62.0859 38.27 62.0859C36.5162 62.0859 35.0944 63.5077 35.0944 65.2616C35.0944 67.0155 36.5162 68.4373 38.27 68.4373Z" fill="#B27FFC"/>
<path d="M79.5539 68.4373C81.3077 68.4373 82.7295 67.0155 82.7295 65.2616C82.7295 63.5077 81.3077 62.0859 79.5539 62.0859C77.8 62.0859 76.3782 63.5077 76.3782 65.2616C76.3782 67.0155 77.8 68.4373 79.5539 68.4373Z" fill="#B27FFC"/>
<path d="M11.2768 36.6807C12.1537 36.6807 12.8646 35.9698 12.8646 35.0928C12.8646 34.2159 12.1537 33.505 11.2768 33.505C10.3999 33.505 9.68896 34.2159 9.68896 35.0928C9.68896 35.9698 10.3999 36.6807 11.2768 36.6807Z" fill="#B27FFC"/>
</g>
<defs>
<clipPath id="clip0">
<rect width="121" height="121" fill="white"/>
</clipPath>
</defs>
</svg>
