<svg width="66" height="66" viewBox="0 0 66 66" fill="none" xmlns="http://www.w3.org/2000/svg">
<g clip-path="url(#clip0)">
<path d="M36.1548 29.845L34.6425 28.3326L16.7227 46.2524L18.235 47.7647L19.7473 49.2771L37.6671 31.3573L36.1548 29.845Z" fill="#B27FFC"/>
<path d="M18.2285 47.7634L36.1456 29.8464L37.6577 31.3584L19.7406 49.2755L18.2285 47.7634Z" fill="#B27FFC"/>
<path d="M47.3248 37.8706L51.1347 35.9293L55.0181 43.5508L51.2083 45.4921L47.3248 37.8706Z" fill="#B27FFC"/>
<path d="M56.8982 19.1255L65.3495 17.7911L66.0166 22.016L57.5653 23.3504L56.8982 19.1255Z" fill="#B27FFC"/>
<path d="M42.6506 8.43445L43.985 -0.0168766L48.2099 0.650211L46.8755 9.10154L42.6506 8.43445Z" fill="#B27FFC"/>
<path d="M20.5044 14.7977L22.4457 10.9879L30.0671 14.8713L28.1259 18.6812L20.5044 14.7977Z" fill="#B27FFC"/>
<path d="M62.3877 33.7338L53.5769 21.804L58.2659 7.73422L44.1961 12.4232L32.2663 3.61243L32.3787 18.4457L20.3086 27.0747L34.4506 31.5495L38.9254 45.6915L47.5544 33.6214L62.3877 33.7338Z" fill="#B27FFC"/>
<path d="M47.5544 33.6213L62.3877 33.7337L53.5769 21.8039L58.2659 7.73413L34.4507 31.5494L38.9255 45.6914L47.5544 33.6213Z" fill="#B27FFC"/>
<path d="M19.7474 46.2528L15.2106 41.7161L9.16141 47.7651L10.6737 52.3019L12.1859 53.8142L13.6982 55.3264L18.2351 56.8388L24.2841 50.7896L19.7474 46.2528Z" fill="#B27FFC"/>
<path d="M18.2351 56.8384L24.2841 50.7893L19.7474 46.2524L12.1859 53.8139L13.6982 55.3261L18.2351 56.8384Z" fill="#B27FFC"/>
<path d="M13.6982 52.3017L9.16138 47.7649L-5.12367 62.0501C-7.62534 64.5517 -7.62534 68.6219 -5.12367 71.1237C-2.62199 73.6254 1.44819 73.6254 3.95 71.1237L18.235 56.8387L13.6982 52.3017Z" fill="#B27FFC"/>
<path d="M3.94987 71.1236L18.2349 56.8386L13.6981 52.3018L-5.12366 71.1236C-2.62198 73.6254 1.4482 73.6254 3.94987 71.1236Z" fill="#B27FFC"/>
</g>
<defs>
<clipPath id="clip0">
<rect width="73" height="73" fill="white" transform="translate(-7)"/>
</clipPath>
</defs>
</svg>
