<svg width="57" height="46" viewBox="0 0 57 46" fill="none" xmlns="http://www.w3.org/2000/svg">
<g clip-path="url(#clip0)">
<path d="M55.667 6.42555C53.6394 3.8956 50.9258 2.06763 47.8197 1.13893C46.3355 0.695249 44.8038 0.470191 43.267 0.470191C41.7427 0.470191 40.228 0.690839 38.7582 1.12665C38.6779 -1.9654 37.71 -4.93522 35.9463 -7.48757C34.1033 -10.1548 31.5262 -12.1707 28.4934 -13.3174L26.5 -14.0709L24.117 17.9986L26.5 38.8536C28.3824 41.3081 30.9112 43.1417 33.8382 44.1699C35.5398 44.7676 37.3102 45.0707 39.0999 45.0708H39.1003C40.5112 45.0708 41.9223 44.8807 43.2943 44.5056L45.3502 43.9436L46.52 42.162C48.2993 39.452 49.1994 36.3063 49.1228 33.065C49.0494 29.9637 48.0866 26.9918 46.3343 24.4433C49.2501 23.4116 51.7756 21.5732 53.6579 19.107C55.625 16.53 56.7459 13.456 56.8993 10.2174L57 8.08852L55.667 6.42555Z" fill="#B27FFC"/>
<path d="M24.5065 -13.3172C21.4739 -12.1706 18.8968 -10.1547 17.0537 -7.48745C15.2899 -4.9351 14.3219 -1.96528 14.2417 1.12677C12.7719 0.691077 11.2573 0.47031 9.73298 0.47031C8.19619 0.47031 6.66452 0.695366 5.18038 1.13904C2.07415 2.06763 -0.6394 3.89572 -2.66705 6.42555L-4 8.08852L-3.89933 10.2174C-3.74575 13.4559 -2.625 16.53 -0.657867 19.1069C1.22444 21.573 3.74974 23.4113 6.66571 24.4432C4.91339 26.9917 3.95061 29.9637 3.87722 33.065C3.80061 36.3063 4.70072 39.4519 6.47997 42.162L7.64981 43.9435L9.7057 44.5055C11.0776 44.8806 12.4888 45.0707 13.9 45.0707C15.6898 45.0707 17.46 44.7676 19.1617 44.1698C22.0887 43.1416 24.6176 41.3079 26.5 38.8535V-14.0709L24.5065 -13.3172Z" fill="#B27FFC"/>
<path d="M36.7782 12.7771L45.805 9.8441L46.9094 13.2431L37.8825 16.1761L36.7782 12.7771Z" fill="#B27FFC"/>
<path d="M24.7129 -2.88354H28.2871V6.60839H24.7129V-2.88354Z" fill="#B27FFC"/>
<path d="M6.08601 13.246L7.19041 9.84701L16.2172 12.78L15.1128 16.179L6.08601 13.246Z" fill="#B27FFC"/>
<path d="M12.7829 33.8508L18.3641 26.1719L21.2556 28.2734L15.6743 35.9524L12.7829 33.8508Z" fill="#B27FFC"/>
<path d="M31.7575 28.2556L34.6489 26.154L40.2302 33.833L37.3387 35.9346L31.7575 28.2556Z" fill="#B27FFC"/>
<path d="M26.5 4.82129L24.117 17.9987L26.5 31.176C33.766 31.176 39.6774 25.2646 39.6774 17.9986C39.6774 10.7326 33.766 4.82129 26.5 4.82129Z" fill="#B27FFC"/>
<path d="M13.3226 17.9986C13.3226 25.2646 19.2339 31.176 26.5 31.176V4.82129C19.234 4.82129 13.3226 10.7326 13.3226 17.9986Z" fill="#B27FFC"/>
<path d="M26.5 8.39551L24.117 17.9987L26.5 27.6018C31.7952 27.6018 36.1032 23.2938 36.1032 17.9986C36.1032 12.7034 31.7952 8.39551 26.5 8.39551Z" fill="#B27FFC"/>
<path d="M16.8968 17.9986C16.8968 23.2938 21.2047 27.6018 26.5 27.6018V8.39551C21.2048 8.39551 16.8968 12.7034 16.8968 17.9986Z" fill="#B27FFC"/>
<path d="M26.5 13.415L24.5439 17.9987L26.5 22.5826C29.0274 22.5826 31.0837 20.5263 31.0837 17.9989C31.0837 15.4713 29.0274 13.415 26.5 13.415Z" fill="#B27FFC"/>
<path d="M21.9163 17.9989C21.9163 20.5263 23.9726 22.5826 26.5 22.5826V13.415C23.9726 13.415 21.9163 15.4713 21.9163 17.9989Z" fill="#B27FFC"/>
</g>
<defs>
<clipPath id="clip0">
<rect width="61" height="61" fill="white" transform="translate(-4 -15)"/>
</clipPath>
</defs>
</svg>
