<svg width="60" height="50" fill="none" xmlns="http://www.w3.org/2000/svg"><path d="M18.45 24.677c2.352.968 4.17 2.527 5.454 4.678 1.39 2.043 2.085 4.516 2.085 7.42 0 3.87-1.23 7.042-3.69 9.515-2.46 2.473-5.508 3.71-9.144 3.71-3.85 0-7.005-1.237-9.465-3.71S0 40.645 0 36.774c0-1.935.214-3.817.642-5.645.534-1.828 1.497-4.57 2.887-8.226L12.032 0h12.834L18.45 24.677zm34.01 0c2.353.968 4.171 2.527 5.454 4.678C59.304 31.398 60 33.87 60 36.775c0 3.87-1.23 7.042-3.69 9.515-2.46 2.473-5.508 3.71-9.144 3.71-3.85 0-7.006-1.237-9.465-3.71-2.46-2.473-3.69-5.645-3.69-9.516 0-1.935.214-3.817.641-5.645.535-1.828 1.498-4.57 2.888-8.226L46.043 0h12.834L52.46 24.677z" fill="#fff"/></svg>