<svg width="24" height="25" fill="none" xmlns="http://www.w3.org/2000/svg"><path d="M13.762 2.263h-9.46a.778.778 0 000 1.555h4.042A10.314 10.314 0 006.063 5.76H.778a.778.778 0 000 1.555h4.16A10.174 10.174 0 003.525 12.5c0 2.2.697 4.24 1.883 5.91H3.2a.778.778 0 000 1.555h3.564a10.3 10.3 0 001.58 1.217H.857a.778.778 0 000 1.556h12.905C19.407 22.738 24 18.145 24 12.5S19.407 2.263 13.762 2.263zm0 18.92c-4.787 0-8.682-3.895-8.682-8.683 0-4.787 3.895-8.682 8.682-8.682 4.788 0 8.683 3.895 8.683 8.682 0 4.788-3.895 8.682-8.683 8.682z" fill="#892DFE"/><path d="M13.763 6.149A6.358 6.358 0 007.41 12.5a6.346 6.346 0 002.575 5.103l.043.035a6.317 6.317 0 003.733 1.213 6.317 6.317 0 003.734-1.213c.015-.01.03-.023.044-.035a6.346 6.346 0 002.574-5.103 6.359 6.359 0 00-6.351-6.351zm.777 1.618a4.81 4.81 0 013.483 2.531l-2.014.655a2.74 2.74 0 00-1.469-1.069V7.767zm.397 4.733c0 .647-.527 1.174-1.174 1.174a1.175 1.175 0 01-1.174-1.174 1.175 1.175 0 012.348 0zm-1.952-4.733v2.117a2.74 2.74 0 00-1.469 1.069l-2.013-.655a4.81 4.81 0 013.482-2.53zm-2.632 8.103a4.78 4.78 0 01-1.332-4.093l2.014.654-.002.069c0 .623.21 1.198.564 1.658l-1.244 1.712zm3.41 1.426a4.765 4.765 0 01-2.153-.51l1.244-1.713a2.716 2.716 0 001.817 0l1.244 1.712a4.767 4.767 0 01-2.152.511zm3.409-1.426l-1.244-1.712c.353-.46.564-1.035.564-1.658l-.002-.069 2.014-.654a4.78 4.78 0 01-1.332 4.093z" fill="#892DFE"/></svg>