<svg width="24" height="25" fill="none" xmlns="http://www.w3.org/2000/svg"><path d="M23.756 9.246a4.927 4.927 0 00-6.2-3.16 5.83 5.83 0 00-1.028.454c.075-.383.114-.758.114-1.117 0-2.74-1.893-4.92-4.593-4.92-2.703 0-4.691 2.185-4.691 4.92 0 .359.039.734.114 1.117a5.833 5.833 0 00-1.027-.454 4.927 4.927 0 00-6.2 3.16c-.851 2.617.596 5.532 3.159 6.365.34.11.71.19 1.097.237a5.829 5.829 0 00-.749.836 4.927 4.927 0 001.089 6.874c2.194 1.594 5.044 1.114 6.644-1.089.21-.29.4-.617.564-.97.165.353.354.68.565.97 1.602 2.205 4.355 2.68 6.545 1.089a4.927 4.927 0 001.089-6.874 5.803 5.803 0 00-.75-.836 5.843 5.843 0 001.098-.237c2.563-.833 4.01-3.748 3.16-6.365zM12.049 1.908c1.847 0 3.187 1.479 3.187 3.515 0 .917-.359 2.047-.96 3.024a.7.7 0 00-.104.38l-.732 1.266a3.57 3.57 0 00-.697-.217V6.994a.695.695 0 00-.694-.703.703.703 0 00-.703.703v2.882c-.244.05-.48.126-.703.224l-.817-1.338a.7.7 0 00-.103-.315c-.6-.977-.96-2.107-.96-3.024 0-2.004 1.413-3.515 3.286-3.515zM3.84 14.274C2.031 13.687.976 11.54 1.58 9.68a3.52 3.52 0 014.43-2.256c.756.246 1.583.799 2.273 1.512l1.208 1.977c-.192.204-.36.43-.5.675l-2.743-.891a.703.703 0 10-.434 1.337l2.742.891c-.032.282-.03.535.002.805l-1.756.612c-1.052.221-2.147.198-2.965-.068zm7.507 4.38c-.09 1.136-.463 2.252-.998 2.989-1.144 1.574-3.116 1.914-4.68.777a3.52 3.52 0 01-.778-4.91c.93-1.28 2.547-1.863 2.67-1.943L9 15.065c.13.226.283.436.457.627l-1.695 2.334a.703.703 0 101.137.826l1.695-2.333c.238.109.49.192.752.246v1.89zm.703-3.224a2.111 2.111 0 01-2.109-2.11c0-1.162.946-2.108 2.11-2.108 1.162 0 2.108.946 2.108 2.109a2.111 2.111 0 01-2.109 2.109zm6.284 6.99c-1.616 1.174-3.475.746-4.582-.777-.535-.737-.917-1.853-1.008-2.988v-1.89c.262-.054.523-.137.761-.246l1.695 2.334a.703.703 0 001.138-.827l-1.696-2.334c.173-.19.326-.398.454-.621l1.31.472c.162.12 1.76.668 2.705 1.968a3.519 3.519 0 01-.777 4.91zm-1.082-8.067l-1.712-.617c.033-.277.034-.532.002-.811l2.743-.891a.703.703 0 10-.435-1.337l-2.743.891a3.53 3.53 0 00-.51-.686l1.162-2.009c.682-.692 1.49-1.228 2.231-1.47a3.52 3.52 0 014.43 2.257c.604 1.86-.45 4.007-2.257 4.594-.804.261-1.876.288-2.911.079z" fill="#892DFE"/></svg>