<svg width="84" height="66" fill="none" xmlns="http://www.w3.org/2000/svg"><g clip-path="url(#clip0)"><path d="M69.607 7.47c2.933 2.8 7.8 2.6 10.6-.333 1.2-1.333 1.934-3 2-4.667 0-.8.4-1.6 1-2.2l1.068-1.067 14.267 14.268c.933.933.933 2.4 0 3.334L84.208 31.139l-1.067-1.067c-.6-.6-.933-1.467-1-2.334-.133-1.733-.8-3.466-2.133-4.8l-.534-.533-.133-.134c-.133-.133-.267-.266-.467-.333-.066-.066-.133-.133-.266-.133-.134-.134-.267-.134-.4-.267-.067-.067-.2-.067-.267-.133-.2-.067-.267-.134-.467-.2-.066-.067-.2-.067-.266-.134-.133 0-.267-.133-.4-.133-.067-.067-.2-.067-.267-.133-.133 0-.333-.067-.467-.067-.133 0-.2-.067-.266 0-.134 0-.334-.067-.467-.067h-.667c-.133 0-.2.067-.267 0-.133 0-.266 0-.466.067-.133 0-.2.067-.267 0-.133 0-.333.067-.467.067-.133 0-.2.066-.333.066s-.333.067-.4.134c-.067.066-.2.066-.267.133-.133 0-.266.133-.4.133-.067.067-.2.067-.267.134-.066.066-.266.133-.4.133-.066.067-.133.133-.266.133-.067.067-.267.134-.334.2l-.2.2-.333.334-.267.267-.266.266-.067.067-.267.267-.266.266c-.134.134-.134.267-.267.4l-.2.2c-.134.134-.2.334-.267.534l-.067.066c-.066.2-.2.467-.266.667a7.368 7.368 0 00-.134 4.934l.067.066.2.6s.067.067.067.2c.066.2.133.267.2.467.066.067.067.2.133.267.067.066.133.266.2.333s.067.2.134.267l.266.266a670.484 670.484 0 00.534.534l.266.267.067.066.2.2.267.267.2.2c.066.067.2.2.333.2.067.067.134.133.267.133.067.067.267.134.333.2.067.067.2.067.267.134.066.067.2.067.266.133.067.067.2.067.267.134.067.066.2.066.267.133.066.067.2.067.333.067s.2.066.333.066c.134 0 .2.067.334.067.133 0 .2.067.333.066.133 0 .2.067.334.067h.266c.867.067 1.734.4 2.334 1l1.067 1.067-14.401 14.4c-.934.934-2.4.934-3.334 0L45.605 37.74l-1.066 1.067c-.6.6-.934 1.333-1 2.2-.067 1.667-.734 3.4-2 4.667-2.734 3-7.601 3.2-10.601.334a7.448 7.448 0 01-.133-10.668c1.333-1.333 3-2.067 4.8-2.133.867-.067 1.667-.334 2.333-1l1.067-1.067-14.334-14.334a2.334 2.334 0 010-3.334L39.005-.863 37.938-1.93c-.6-.6-1.333-.933-2.2-1-1.667-.067-3.4-.733-4.667-2-3-2.734-3.2-7.6-.4-10.534a7.448 7.448 0 0110.668-.133c1.333 1.333 2.066 3 2.133 4.8.067.867.333 1.667 1 2.333l1.067 1.067 14.4-14.4a2.334 2.334 0 013.334 0L77.607-7.465l-1.066 1.067c-.6.6-1.467.933-2.334 1-1.733.133-3.467.8-4.8 2.134-2.867 3-2.867 7.8.2 10.734z" fill="#B27FFC"/></g><defs><clipPath id="clip0"><path fill="#fff" transform="rotate(-45 18.354 7.602)" d="M0 0h71v71H0z"/></clipPath></defs></svg>