<svg width="66" height="66" fill="none" xmlns="http://www.w3.org/2000/svg"><g clip-path="url(#clip0)" fill="#B27FFC"><path d="M36.155 29.845l-1.513-1.512-17.92 17.92 1.513 1.512 1.512 1.512 17.92-17.92-1.512-1.512z"/><path d="M18.229 47.763l17.917-17.917 1.512 1.512L19.74 49.276l-1.512-1.513zm29.096-9.893l3.81-1.94 3.883 7.62-3.81 1.942-3.883-7.621zm9.573-18.745l8.452-1.334.667 4.225-8.452 1.334-.667-4.225zM42.65 8.434l1.335-8.45L48.21.65l-1.334 8.452-4.225-.668zm-22.146 6.364l1.942-3.81 7.621 3.883-1.941 3.81-7.622-3.883z"/><path d="M62.388 33.734l-8.811-11.93 4.689-14.07-14.07 4.69-11.93-8.812.113 14.834-12.07 8.629 14.142 4.474 4.474 14.142 8.63-12.07 14.833.113z"/><path d="M47.554 33.621l14.834.113-8.811-11.93 4.689-14.07L34.45 31.55l4.474 14.142 8.63-12.07zM19.747 46.253l-4.536-4.537-6.05 6.05 1.513 4.536 1.512 1.512 1.512 1.512 4.537 1.513 6.05-6.05-4.538-4.536z"/><path d="M18.235 56.838l6.05-6.049-4.538-4.537-7.561 7.562 1.512 1.512 4.537 1.512z"/><path d="M13.698 52.302l-4.537-4.537L-5.124 62.05a6.423 6.423 0 000 9.074 6.423 6.423 0 009.074 0l14.285-14.285-4.537-4.537z"/><path d="M3.95 71.124l14.285-14.285-4.537-4.537-18.822 18.822a6.423 6.423 0 009.074 0z"/></g><defs><clipPath id="clip0"><path fill="#fff" transform="translate(-7)" d="M0 0h73v73H0z"/></clipPath></defs></svg>