<svg width="104" height="65" fill="none" xmlns="http://www.w3.org/2000/svg"><g clip-path="url(#clip0)" fill="#B27FFC"><path d="M120.901 78.26c-.282 2.55-1.562 5.011-3.239 6.977-3.763 4.408-7.152 5.433-15.129 5.433-11.296 0-22.677-8.361-25.447-10.054-4.017-2.451-13.91.502-26.83-2.077-3.288-.657-12.014-3.223-13.145-3.633-7.339-2.915-12.35-8.158-15.081-15.567-2.306-6.272-.467-15.593-11.976-15.593-5.55 0-10.054-3-10.054-6.7 0-3.703 4.506-6.498 10.054-6.704 7.485-.28 12.115 4.236 13.408 6.704 2.312 4.42 4.535 8.923 6.704 13.404 2.753 5.697 4.986 4.383 7.202 2.563.029-.022.06-.044.09-.07 1.85-1.527 3.616-2.9 5.48-4.08.216-.14.439-.277.66-.407a25.065 25.065 0 011.538-.864 27.114 27.114 0 014.735-1.956v-.003l.035-.01a23.683 23.683 0 01.94-.273 37.8 37.8 0 011.194-.295 31 31 0 014.76-.712c.165-.009.33-.019.499-.025a26.495 26.495 0 016.85.508 23.4 23.4 0 015.906 2.102l.782.417a29.488 29.488 0 014.738 3.283 37.858 37.858 0 012 1.8c1.563 1.522 3.011 3.19 4.36 4.942 3.18 4.125 5.796 8.733 8 13.062 2.522 4.938 4.678 10.968 9.692 13.963 4.484 2.684 10.474 2.392 14.304-1.32 6.465-6.27 3.506-13.977 3.617-14.87.295-2.353 4.109 3.17 3.353 10.055z"/><path d="M120.901 78.26c-.282 2.55-1.562 5.011-3.239 6.977-3.763 4.408-7.152 5.433-15.129 5.433-11.296 0-22.677-8.361-25.447-10.054-2.873-1.753-8.748-.743-16.586-.969V44.334c2.664.171 5.297.737 7.784 1.772 2.657 1.108 5.08 2.661 7.294 4.519 2.34 1.96 4.446 4.262 6.355 6.739a.01.01 0 01.003.006c3.179 4.125 5.795 8.733 8 13.062 2.52 4.938 4.677 10.968 9.691 13.963 4.484 2.684 10.474 2.392 14.304-1.32 6.465-6.27 3.506-13.977 3.617-14.87.295-2.353 4.109 3.17 3.353 10.055z"/><path d="M64.174 44.826c-.06.575-.14 1.144-.241 1.693v.003c-.604 3.319-1.902 6.037-3.41 6.037-1.51 0-2.808-2.718-3.412-6.034v-.003a22.749 22.749 0 01-.285-2.178c.165-.01.33-.02.498-.026a26.491 26.491 0 016.85.508z"/><path d="M70.837 47.344c-.137.73-.305 1.43-.505 2.077-.693 2.258-1.731 3.872-2.893 3.872-1.617 0-2.998-3.129-3.532-6.771v-.003a23.103 23.103 0 01-.19-1.779 23.391 23.391 0 016.339 2.188l.78.416z"/><path d="M70.837 47.344c2.127 1.175 4.093 2.64 5.91 4.307-.693 2.369-1.76 4.084-2.957 4.084-1.55 0-2.88-2.871-3.458-6.314a22.024 22.024 0 01-.276-2.492l.78.415zm-13.538-3.026a22.87 22.87 0 01-.213 2.204v.003c-.537 3.64-1.915 6.768-3.531 6.768-1.163 0-2.201-1.61-2.893-3.865a20.317 20.317 0 01-.743-3.713.878.878 0 01-.013-.092 23.87 23.87 0 01.94-.273 37.8 37.8 0 011.194-.295 31 31 0 014.76-.712c.165-.009.33-.019.499-.025z"/><path d="M43.599 48.456c.25 2.039.772 3.957 1.458 5.313.61 1.207 1.35 1.966 2.146 1.966 1.547 0 2.877-2.868 3.459-6.307a22.44 22.44 0 00.305-3.223c1.003.295 1.21-.36 1.073-1.15-.4.092-.797.19-1.194.295-.257.07-.511.143-.76.22-.107.015-.19.034-.215.063v.003a27.103 27.103 0 00-4.735 1.956l-1.537.864zm20.143-3.716a25.56 25.56 0 00-3.242-.409v8.225c.007 0 .014.003.022.003 1.509 0 2.807-2.718 3.41-6.037v-.003c.102-.55.182-1.118.242-1.693a11.55 11.55 0 00-.432-.085zM38.27 68.437a3.176 3.176 0 100-6.351 3.176 3.176 0 000 6.351zm41.284 0a3.176 3.176 0 100-6.351 3.176 3.176 0 000 6.351zM11.277 36.68a1.588 1.588 0 100-3.175 1.588 1.588 0 000 3.176z"/></g><defs><clipPath id="clip0"><path fill="#fff" d="M0 0h121v121H0z"/></clipPath></defs></svg>