<svg width="57" height="46" fill="none" xmlns="http://www.w3.org/2000/svg"><g clip-path="url(#clip0)" fill="#B27FFC"><path d="M55.667 6.426a15.82 15.82 0 00-7.847-5.287 15.841 15.841 0 00-9.061-.012 15.814 15.814 0 00-2.813-8.615 15.82 15.82 0 00-7.453-5.83L26.5-14.07 24.117 18 26.5 38.854a15.814 15.814 0 007.338 5.316 15.834 15.834 0 009.456.336l2.056-.562 1.17-1.782a15.821 15.821 0 002.603-9.097 15.816 15.816 0 00-2.789-8.622 15.812 15.812 0 007.324-5.336 15.82 15.82 0 003.241-8.89L57 8.09l-1.333-1.663z"/><path d="M24.506-13.317a15.82 15.82 0 00-7.452 5.83 15.813 15.813 0 00-2.812 8.614 15.845 15.845 0 00-9.062.012 15.82 15.82 0 00-7.847 5.287L-4 8.089l.1 2.128a15.821 15.821 0 003.242 8.89 15.814 15.814 0 007.324 5.336 15.816 15.816 0 00-2.789 8.622 15.822 15.822 0 002.603 9.097l1.17 1.782 2.056.561a15.838 15.838 0 009.456-.336 15.815 15.815 0 007.338-5.316V-14.07l-1.994.754zm12.272 26.094l9.027-2.933 1.104 3.4-9.026 2.932-1.105-3.399z"/><path d="M24.713-2.884h3.574v9.492h-3.574v-9.492zM6.086 13.246L7.19 9.847l9.027 2.933-1.104 3.399-9.027-2.933zm6.697 20.604l5.581-7.678 2.892 2.101-5.582 7.68-2.891-2.102zm18.975-5.594l2.89-2.102 5.582 7.679-2.891 2.102-5.581-7.68z"/><path d="M26.5 4.821L24.117 18 26.5 31.176c7.266 0 13.177-5.911 13.177-13.177S33.766 4.82 26.5 4.82z"/><path d="M13.323 17.999c0 7.266 5.91 13.177 13.177 13.177V4.821c-7.266 0-13.177 5.912-13.177 13.178z"/><path d="M26.5 8.396l-2.383 9.603 2.383 9.603c5.295 0 9.603-4.308 9.603-9.603 0-5.296-4.308-9.603-9.603-9.603z"/><path d="M16.897 17.999c0 5.295 4.308 9.603 9.603 9.603V8.396c-5.295 0-9.603 4.307-9.603 9.603z"/><path d="M26.5 13.415l-1.956 4.584 1.956 4.584a4.589 4.589 0 004.584-4.584 4.589 4.589 0 00-4.584-4.584z"/><path d="M21.916 17.999a4.589 4.589 0 004.584 4.584v-9.168a4.589 4.589 0 00-4.584 4.584z"/></g><defs><clipPath id="clip0"><path fill="#fff" transform="translate(-4 -15)" d="M0 0h61v61H0z"/></clipPath></defs></svg>