<svg width="1920" height="5175" fill="none" xmlns="http://www.w3.org/2000/svg"><path fill="#fff" d="M0 0h1920v5175H0z"/><g opacity=".85"><g clip-path="url(#clip0)"><path fill="#fff" d="M0 5175h1920v-855H0z"/><path d="M1816.23 4720.81C1890.57 4712.03 1920 4760 1920 4760v-257s-150.19 68.36-187.44 156.07c-18.55 43.67 9.33 70.51 83.67 61.74z" fill="url(#paint0_linear)"/><path d="M1717.89 4492.31c-2.23-3.35-.13-8.7 4.69-11.94 4.81-3.24 10.52-3.15 12.75.21 2.23 3.36.13 8.7-4.68 11.94-4.82 3.24-10.53 3.15-12.76-.21z" fill="url(#paint1_linear)"/><path d="M1720.7 4507.29c-.91-3.7.28-7.18 2.66-7.78 2.38-.59 5.05 1.93 5.96 5.63.91 3.7-.28 7.18-2.66 7.77-2.38.6-5.04-1.92-5.96-5.62z" fill="url(#paint2_linear)"/><path d="M1748.52 4488.58c-3.05-2.26-6.7-2.49-8.16-.5-1.45 1.98-.16 5.43 2.89 7.69 3.05 2.26 6.7 2.49 8.15.5 1.46-1.98.17-5.43-2.88-7.69z" fill="url(#paint3_linear)"/><path d="M1733.55 4504.38c-2.1-3.17-2.16-6.85-.12-8.22 2.04-1.38 5.4.08 7.5 3.25 2.1 3.17 2.16 6.85.12 8.22-2.04 1.37-5.39-.08-7.5-3.25z" fill="url(#paint4_linear)"/><circle r="11.5" transform="matrix(1 0 0 -1 192.5 4963.5)" fill="url(#paint5_linear)"/><circle r="3.5" transform="matrix(1 0 0 -1 177.5 5121.5)" fill="url(#paint6_linear)"/><circle r="5.5" transform="matrix(1 0 0 -1 1680.5 5088.5)" fill="url(#paint7_linear)"/><circle r="5.5" transform="matrix(1 0 0 -1 1857.5 4701.5)" fill="url(#paint8_linear)"/><circle r="5.5" transform="matrix(1 0 0 -1 1650.5 4375.5)" fill="url(#paint9_linear)"/><path d="M180 4421.5c0-9.11-7.387-16.5-16.5-16.5s-16.5 7.39-16.5 16.5 7.387 16.5 16.5 16.5 16.5-7.39 16.5-16.5zm-28.05 0c0-6.38 5.171-11.55 11.55-11.55 6.379 0 11.55 5.17 11.55 11.55 0 6.38-5.171 11.55-11.55 11.55-6.379 0-11.55-5.17-11.55-11.55z" fill="url(#paint10_linear)"/><path d="M72 5118.5a16.484 16.484 0 00-13.281-16.18c-2.482-.5-5.045-.41-7.49.24a16.665 16.665 0 00-6.608 3.53 16.527 16.527 0 00-5.586 13.49c.166 2.52.91 4.98 2.176 7.17l4.286-2.48a11.525 11.525 0 01-.668-10.19c.678-1.64 1.724-3.1 3.056-4.26a11.56 11.56 0 014.626-2.48c1.71-.45 3.505-.51 5.242-.17a11.596 11.596 0 018.106 6.22 11.565 11.565 0 011.191 5.11H72z" fill="url(#paint11_linear)"/><path d="M1857 4375.5c0 2.53-.58 5.03-1.7 7.3a16.485 16.485 0 01-4.76 5.79c-2 1.54-4.34 2.6-6.82 3.09-2.48.5-5.05.41-7.49-.24-2.45-.66-4.71-1.87-6.61-3.53a16.45 16.45 0 01-4.36-6.1c-.97-2.33-1.39-4.86-1.22-7.39.16-2.52.91-4.98 2.17-7.17l4.29 2.48c-.89 1.53-1.41 3.25-1.53 5.01-.11 1.77.18 3.54.86 5.18.68 1.64 1.72 3.1 3.05 4.26 1.34 1.17 2.92 2.02 4.63 2.48 1.71.45 3.51.51 5.24.17 1.74-.35 3.38-1.09 4.78-2.17 1.41-1.08 2.55-2.46 3.33-4.05.78-1.59 1.19-3.34 1.19-5.11h4.95z" fill="url(#paint12_linear)"/><path d="M180 4749c0-16.57-13.431-30-30-30-16.569 0-30 13.43-30 30s13.431 30 30 30c16.569 0 30-13.43 30-30zm-54 0c0-13.25 10.745-24 24-24s24 10.75 24 24-10.745 24-24 24-24-10.75-24-24z" fill="url(#paint13_linear)"/><path d="M313.5 4594l3.704-11.4h11.988l-9.698-7.05 3.704-11.4-9.698 7.05-9.698-7.05 3.704 11.4-9.698 7.05h11.988l3.704 11.4z" fill="url(#paint14_linear)"/><path d="M1644.82 4884.63l-1.41-9.34 8.44-4.23-9.31-1.55-1.41-9.33-4.35 8.38-9.32-1.55 6.63 6.73-4.35 8.39 8.45-4.23 6.63 6.73z" fill="url(#paint15_linear)"/><circle cx="95.5" cy="4652.5" r="5.5" fill="url(#paint16_linear)"/></g><path fill="#fff" d="M0 3240h1920v1080H0z"/><path d="M175.89 3426.69c-2.228 3.35-.13 8.7 4.686 11.94s10.526 3.15 12.755-.21c2.228-3.36.13-8.7-4.686-11.94s-10.526-3.15-12.755.21z" fill="url(#paint17_linear)"/><path d="M178.705 3411.71c-.911 3.7.278 7.18 2.657 7.78 2.379.59 5.046-1.93 5.957-5.63.911-3.7-.279-7.18-2.658-7.77-2.378-.6-5.045 1.92-5.956 5.62z" fill="url(#paint18_linear)"/><path d="M206.517 3430.42c-3.048 2.26-6.698 2.49-8.153.5-1.454-1.98-.162-5.43 2.886-7.69 3.048-2.26 6.698-2.49 8.152-.5 1.455 1.98.163 5.43-2.885 7.69z" fill="url(#paint19_linear)"/><path d="M191.551 3414.62c-2.104 3.17-2.158 6.85-.121 8.22 2.038 1.38 5.395-.08 7.5-3.25 2.104-3.17 2.159-6.85.121-8.22-2.037-1.37-5.395.08-7.5 3.25z" fill="url(#paint20_linear)"/><circle cx="249.5" cy="3324.5" r="3.5" fill="url(#paint21_linear)"/><circle cx="1688.5" cy="3941.5" r="5.5" fill="url(#paint22_linear)"/><path d="M1700 3341.5c0-2.53-.58-5.03-1.7-7.3a16.485 16.485 0 00-4.76-5.79c-2-1.54-4.34-2.6-6.82-3.09-2.48-.5-5.05-.41-7.49.24-2.45.66-4.71 1.87-6.61 3.53a16.45 16.45 0 00-4.36 6.1c-.97 2.33-1.39 4.86-1.22 7.39.16 2.52.91 4.98 2.17 7.17l4.29-2.48c-.89-1.53-1.41-3.25-1.53-5.01-.11-1.77.18-3.54.86-5.18.68-1.64 1.72-3.1 3.05-4.26 1.34-1.17 2.92-2.02 4.63-2.48 1.71-.45 3.51-.51 5.24-.17 1.74.35 3.38 1.09 4.78 2.17 1.41 1.08 2.55 2.46 3.33 4.05.78 1.59 1.19 3.34 1.19 5.11h4.95z" fill="url(#paint23_linear)"/><path d="M175 3861c0 16.57-13.431 30-30 30-16.569 0-30-13.43-30-30s13.431-30 30-30c16.569 0 30 13.43 30 30zm-54 0c0 13.25 10.745 24 24 24s24-10.75 24-24-10.745-24-24-24-24 10.75-24 24z" fill="url(#paint24_linear)"/><path d="M1726.5 3891l3.7 11.4h11.99l-9.7 7.05 3.71 11.4-9.7-7.05-9.7 7.05 3.71-11.4-9.7-7.05h11.99l3.7-11.4z" fill="url(#paint25_linear)"/><path d="M1683.5 4122l3.7 11.4h11.99l-9.7 7.05 3.71 11.4-9.7-7.05-9.7 7.05 3.71-11.4-9.7-7.05h11.99l3.7-11.4z" fill="url(#paint26_linear)"/><path d="M233.261 4214.82l-1.41 9.34 8.447 4.22-9.318 1.55-1.41 9.34-4.349-8.39-9.318 1.55 6.63-6.73-4.349-8.38 8.447 4.22 6.63-6.72z" fill="url(#paint27_linear)"/><path d="M46.26 4208.82l-1.409 9.34 8.447 4.22-9.318 1.55-1.41 9.34-4.349-8.39-9.318 1.55 6.63-6.73-4.349-8.38 8.447 4.22 6.63-6.72z" fill="url(#paint28_linear)"/><path d="M206 4122.5c0 9.11-7.387 16.5-16.5 16.5s-16.5-7.39-16.5-16.5 7.387-16.5 16.5-16.5 16.5 7.39 16.5 16.5zm-28.05 0c0 6.38 5.171 11.55 11.55 11.55 6.379 0 11.55-5.17 11.55-11.55 0-6.38-5.171-11.55-11.55-11.55-6.379 0-11.55 5.17-11.55 11.55z" fill="url(#paint29_linear)"/><path d="M1803 3444c0 16.57-13.43 30-30 30s-30-13.43-30-30 13.43-30 30-30 30 13.43 30 30zm-54 0c0 13.25 10.75 24 24 24s24-10.75 24-24-10.75-24-24-24-24 10.75-24 24z" fill="url(#paint30_linear)"/><circle cx="98.5" cy="3747.5" r="5.5" fill="url(#paint31_linear)"/><path d="M51.26 3555.82l-1.409 9.34 8.447 4.22-9.318 1.55-1.41 9.34-4.349-8.39-9.318 1.55 6.63-6.73-4.349-8.38 8.447 4.22 6.63-6.72z" fill="url(#paint32_linear)"/><circle cx="87.5" cy="3381.5" r="5.5" fill="url(#paint33_linear)"/><path d="M1817 3801c0 4.73-1.12 9.4-3.27 13.62a29.977 29.977 0 01-9.1 10.65 30.003 30.003 0 01-12.94 5.36c-4.67.74-9.46.36-13.96-1.1l1.85-5.7c3.61 1.17 7.43 1.47 11.17.87 3.75-.59 7.29-2.06 10.36-4.28 3.06-2.23 5.55-5.15 7.27-8.52 1.72-3.38 2.62-7.11 2.62-10.9h6z" fill="url(#paint34_linear)"/><path d="M189.5 3568l3.704 11.4h11.988l-9.698 7.05 3.704 11.4-9.698-7.05-9.698 7.05 3.704-11.4-9.698-7.05h11.988l3.704-11.4z" fill="url(#paint35_linear)"/><circle cx="1775.5" cy="3652.5" r="11.5" fill="url(#paint36_linear)"/><circle cx="1762.5" cy="3811.5" r="5.5" fill="url(#paint37_linear)"/><path d="M1871 3997.5c0 2.53-.58 5.03-1.7 7.3a16.485 16.485 0 01-4.76 5.79c-2 1.54-4.34 2.6-6.82 3.09-2.48.5-5.05.41-7.49-.24-2.45-.66-4.71-1.87-6.61-3.53a16.45 16.45 0 01-4.36-6.1c-.97-2.33-1.39-4.86-1.22-7.39.16-2.52.91-4.98 2.17-7.17l4.29 2.48c-.89 1.53-1.41 3.25-1.53 5.01-.11 1.77.18 3.54.86 5.18.68 1.64 1.72 3.1 3.05 4.26 1.34 1.17 2.92 2.02 4.63 2.48 1.71.45 3.51.51 5.24.17 1.74-.35 3.38-1.09 4.78-2.17 1.41-1.08 2.55-2.46 3.33-4.05.78-1.59 1.19-3.34 1.19-5.11h4.95z" fill="url(#paint38_linear)"/><path fill="#fff" d="M0 2160h1920v1080H0z"/><path d="M132 2456.5a16.505 16.505 0 01-6.455 13.09 16.46 16.46 0 01-6.826 3.09c-2.482.5-5.045.41-7.49-.24a16.669 16.669 0 01-6.608-3.53 16.531 16.531 0 01-5.586-13.49c.166-2.52.91-4.98 2.176-7.17l4.286 2.48a11.536 11.536 0 00-.668 10.19c.678 1.64 1.724 3.1 3.056 4.26a11.555 11.555 0 004.626 2.48c1.711.45 3.505.51 5.242.17a11.59 11.59 0 008.106-6.22 11.573 11.573 0 001.191-5.11H132z" fill="url(#paint39_linear)"/><circle cx="1719.5" cy="2284.5" r="3.5" fill="url(#paint40_linear)"/><circle cx="1829.5" cy="2377.5" r="5.5" fill="url(#paint41_linear)"/><path d="M1805 2722c0 16.57-13.43 30-30 30s-30-13.43-30-30 13.43-30 30-30 30 13.43 30 30zm-54 0c0 13.25 10.75 24 24 24s24-10.75 24-24-10.75-24-24-24-24 10.75-24 24z" fill="url(#paint42_linear)"/><path d="M1681.89 2469.69c-2.23 3.35-.13 8.7 4.69 11.94 4.81 3.24 10.52 3.15 12.75-.21 2.23-3.36.13-8.7-4.68-11.94-4.82-3.24-10.53-3.15-12.76.21z" fill="url(#paint43_linear)"/><path d="M1684.7 2454.71c-.91 3.7.28 7.18 2.66 7.78 2.38.59 5.05-1.93 5.96-5.63.91-3.7-.28-7.18-2.66-7.77-2.38-.6-5.04 1.92-5.96 5.62z" fill="url(#paint44_linear)"/><path d="M1712.52 2473.42c-3.05 2.26-6.7 2.49-8.16.5-1.45-1.98-.16-5.43 2.89-7.69 3.05-2.26 6.7-2.49 8.15-.5 1.46 1.98.17 5.43-2.88 7.69z" fill="url(#paint45_linear)"/><path d="M1697.55 2457.62c-2.1 3.17-2.16 6.85-.12 8.22 2.04 1.38 5.4-.08 7.5-3.25 2.1-3.17 2.16-6.85.12-8.22-2.04-1.37-5.39.08-7.5 3.25z" fill="url(#paint46_linear)"/><path d="M1715.5 2922l3.7 11.4h11.99l-9.7 7.05 3.71 11.4-9.7-7.05-9.7 7.05 3.71-11.4-9.7-7.05h11.99l3.7-11.4z" fill="url(#paint47_linear)"/><circle cx="126.5" cy="2781.5" r="3.5" fill="url(#paint48_linear)"/><circle cx="120.5" cy="2335.5" r="5.5" fill="url(#paint49_linear)"/><circle cx="1651.5" cy="2288.5" r="5.5" fill="url(#paint50_linear)"/><path d="M88 3163.5a16.484 16.484 0 00-13.281-16.18c-2.482-.5-5.045-.41-7.49.24a16.665 16.665 0 00-6.608 3.53 16.527 16.527 0 00-5.586 13.49c.166 2.52.91 4.98 2.176 7.17l4.286-2.48a11.525 11.525 0 01-.668-10.19c.678-1.64 1.724-3.1 3.056-4.26a11.56 11.56 0 014.626-2.48c1.71-.45 3.505-.51 5.242-.17a11.596 11.596 0 018.106 6.22 11.565 11.565 0 011.191 5.11H88z" fill="url(#paint51_linear)"/><circle cx="93.5" cy="2613.5" r="5.5" fill="url(#paint52_linear)"/><path d="M177.261 2909.82l-1.41 9.34 8.447 4.22-9.318 1.55-1.41 9.34-4.349-8.39-9.318 1.55 6.63-6.73-4.349-8.38 8.447 4.22 6.63-6.72z" fill="url(#paint53_linear)"/><circle cx="182.5" cy="3081.5" r="11.5" fill="url(#paint54_linear)"/><circle cx="1702.5" cy="3096.5" r="3.5" fill="url(#paint55_linear)"/><path d="M1824 2234.5c0 9.11-7.39 16.5-16.5 16.5s-16.5-7.39-16.5-16.5 7.39-16.5 16.5-16.5 16.5 7.39 16.5 16.5zm-28.05 0c0 6.38 5.17 11.55 11.55 11.55 6.38 0 11.55-5.17 11.55-11.55 0-6.38-5.17-11.55-11.55-11.55-6.38 0-11.55 5.17-11.55 11.55z" fill="url(#paint56_linear)"/><path d="M1822 3130.5c0 2.53-.58 5.03-1.7 7.3a16.485 16.485 0 01-4.76 5.79c-2 1.54-4.34 2.6-6.82 3.09-2.48.5-5.05.41-7.49-.24-2.45-.66-4.71-1.87-6.61-3.53a16.45 16.45 0 01-4.36-6.1c-.97-2.33-1.39-4.86-1.22-7.39.16-2.52.91-4.98 2.17-7.17l4.29 2.48c-.89 1.53-1.41 3.25-1.53 5.01-.11 1.77.18 3.54.86 5.18.68 1.64 1.72 3.1 3.05 4.26 1.34 1.17 2.92 2.02 4.63 2.48 1.71.45 3.51.51 5.24.17 1.74-.35 3.38-1.09 4.78-2.17 1.41-1.08 2.55-2.46 3.33-4.05.78-1.59 1.19-3.34 1.19-5.11h4.95z" fill="url(#paint57_linear)"/><path d="M209.261 2556.82l-1.41 9.34 8.447 4.22-9.318 1.55-1.41 9.34-4.349-8.39-9.318 1.55 6.63-6.73-4.349-8.38 8.447 4.22 6.63-6.72z" fill="url(#paint58_linear)"/><path fill="#fff" d="M0 1080h1920v1080H0z"/><path d="M175.89 1266.69c-2.228 3.35-.13 8.7 4.686 11.94s10.526 3.15 12.755-.21c2.228-3.36.13-8.7-4.686-11.94s-10.526-3.15-12.755.21z" fill="url(#paint59_linear)"/><path d="M178.705 1251.71c-.911 3.7.278 7.18 2.657 7.78 2.379.59 5.046-1.93 5.957-5.63.911-3.7-.279-7.18-2.658-7.77-2.378-.6-5.045 1.92-5.956 5.62z" fill="url(#paint60_linear)"/><path d="M206.517 1270.42c-3.048 2.26-6.698 2.49-8.153.5-1.454-1.98-.162-5.43 2.886-7.69 3.048-2.26 6.698-2.49 8.152-.5 1.455 1.98.163 5.43-2.885 7.69z" fill="url(#paint61_linear)"/><path d="M191.551 1254.62c-2.104 3.17-2.158 6.85-.121 8.22 2.038 1.38 5.395-.08 7.5-3.25 2.104-3.17 2.159-6.85.121-8.22-2.037-1.37-5.395.08-7.5 3.25z" fill="url(#paint62_linear)"/><circle cx="249.5" cy="1164.5" r="3.5" fill="url(#paint63_linear)"/><circle cx="1688.5" cy="1781.5" r="5.5" fill="url(#paint64_linear)"/><path d="M1700 1181.5c0-2.53-.58-5.03-1.7-7.3a16.485 16.485 0 00-4.76-5.79c-2-1.54-4.34-2.6-6.82-3.09-2.48-.5-5.05-.41-7.49.24-2.45.66-4.71 1.87-6.61 3.53a16.45 16.45 0 00-4.36 6.1c-.97 2.33-1.39 4.86-1.22 7.39.16 2.52.91 4.98 2.17 7.17l4.29-2.48c-.89-1.53-1.41-3.25-1.53-5.01-.11-1.77.18-3.54.86-5.18.68-1.64 1.72-3.1 3.05-4.26 1.34-1.17 2.92-2.02 4.63-2.48 1.71-.45 3.51-.51 5.24-.17 1.74.35 3.38 1.09 4.78 2.17 1.41 1.08 2.55 2.46 3.33 4.05.78 1.59 1.19 3.34 1.19 5.11h4.95z" fill="url(#paint65_linear)"/><path d="M175 1701c0 16.57-13.431 30-30 30-16.569 0-30-13.43-30-30s13.431-30 30-30c16.569 0 30 13.43 30 30zm-54 0c0 13.25 10.745 24 24 24s24-10.75 24-24-10.745-24-24-24-24 10.75-24 24z" fill="url(#paint66_linear)"/><path d="M1726.5 1731l3.7 11.4h11.99l-9.7 7.05 3.71 11.4-9.7-7.05-9.7 7.05 3.71-11.4-9.7-7.05h11.99l3.7-11.4z" fill="url(#paint67_linear)"/><path d="M1683.5 1962l3.7 11.4h11.99l-9.7 7.05 3.71 11.4-9.7-7.05-9.7 7.05 3.71-11.4-9.7-7.05h11.99l3.7-11.4z" fill="url(#paint68_linear)"/><path d="M233.261 2054.82l-1.41 9.34 8.447 4.22-9.318 1.55-1.41 9.34-4.349-8.39-9.318 1.55 6.63-6.73-4.349-8.38 8.447 4.22 6.63-6.72z" fill="url(#paint69_linear)"/><path d="M46.26 2048.82l-1.409 9.34 8.447 4.22-9.318 1.55-1.41 9.34-4.349-8.39-9.318 1.55 6.63-6.73-4.349-8.38 8.447 4.22 6.63-6.72z" fill="url(#paint70_linear)"/><path d="M206 1962.5c0 9.11-7.387 16.5-16.5 16.5s-16.5-7.39-16.5-16.5 7.387-16.5 16.5-16.5 16.5 7.39 16.5 16.5zm-28.05 0c0 6.38 5.171 11.55 11.55 11.55 6.379 0 11.55-5.17 11.55-11.55 0-6.38-5.171-11.55-11.55-11.55-6.379 0-11.55 5.17-11.55 11.55z" fill="url(#paint71_linear)"/><path d="M1803 1284c0 16.57-13.43 30-30 30s-30-13.43-30-30 13.43-30 30-30 30 13.43 30 30zm-54 0c0 13.25 10.75 24 24 24s24-10.75 24-24-10.75-24-24-24-24 10.75-24 24z" fill="url(#paint72_linear)"/><circle cx="98.5" cy="1587.5" r="5.5" fill="url(#paint73_linear)"/><path d="M51.26 1395.82l-1.409 9.34 8.447 4.22-9.318 1.55-1.41 9.34-4.349-8.39-9.318 1.55 6.63-6.73-4.349-8.38 8.447 4.22 6.63-6.72z" fill="url(#paint74_linear)"/><circle cx="87.5" cy="1221.5" r="5.5" fill="url(#paint75_linear)"/><path d="M1817 1641c0 4.73-1.12 9.4-3.27 13.62a29.977 29.977 0 01-9.1 10.65 30.003 30.003 0 01-12.94 5.36c-4.67.74-9.46.36-13.96-1.1l1.85-5.7c3.61 1.17 7.43 1.47 11.17.87 3.75-.59 7.29-2.06 10.36-4.28 3.06-2.23 5.55-5.15 7.27-8.52 1.72-3.38 2.62-7.11 2.62-10.9h6z" fill="url(#paint76_linear)"/><path d="M189.5 1408l3.704 11.4h11.988l-9.698 7.05 3.704 11.4-9.698-7.05-9.698 7.05 3.704-11.4-9.698-7.05h11.988l3.704-11.4z" fill="url(#paint77_linear)"/><circle cx="1775.5" cy="1492.5" r="11.5" fill="url(#paint78_linear)"/><circle cx="1762.5" cy="1651.5" r="5.5" fill="url(#paint79_linear)"/><path d="M1871 1837.5c0 2.53-.58 5.03-1.7 7.3a16.485 16.485 0 01-4.76 5.79c-2 1.54-4.34 2.6-6.82 3.09-2.48.5-5.05.41-7.49-.24-2.45-.66-4.71-1.87-6.61-3.53a16.45 16.45 0 01-4.36-6.1c-.97-2.33-1.39-4.86-1.22-7.39.16-2.52.91-4.98 2.17-7.17l4.29 2.48c-.89 1.53-1.41 3.25-1.53 5.01-.11 1.77.18 3.54.86 5.18.68 1.64 1.72 3.1 3.05 4.26 1.34 1.17 2.92 2.02 4.63 2.48 1.71.45 3.51.51 5.24.17 1.74-.35 3.38-1.09 4.78-2.17 1.41-1.08 2.55-2.46 3.33-4.05.78-1.59 1.19-3.34 1.19-5.11h4.95z" fill="url(#paint80_linear)"/><path fill="#fff" d="M0 0h1920v1080H0z"/><path d="M103.769 679.195C29.427 687.969 0 640 0 640v257s150.193-68.356 187.444-156.071c18.545-43.67-9.333-70.508-83.675-61.734z" fill="url(#paint81_linear)"/><path d="M1831.91 261.844C1832.53 321.117 1920 355 1920 355V.694c-43.73-.524-132.48-1.257-137.71 0-5.24 1.256-90.79 100.482-57.71 153.34 33.09 52.859 142.34-53.826 142.72 22.504.19 38.254-35.79 47.056-35.39 85.306z" fill="url(#paint82_linear)"/><path d="M332.499 197.628c2.547 3.836.149 9.946-5.355 13.649-5.504 3.702-12.03 3.594-14.576-.241-2.547-3.835-.149-9.946 5.355-13.648 5.503-3.703 12.03-3.595 14.576.24z" fill="url(#paint83_linear)"/><path d="M329.283 180.512c1.041 4.229-.318 8.207-3.037 8.885-2.718.678-5.766-2.2-6.808-6.429-1.041-4.229.319-8.206 3.037-8.885 2.719-.678 5.767 2.201 6.808 6.429z" fill="url(#paint84_linear)"/><path d="M297.497 201.894c3.484 2.586 7.655 2.843 9.318.574 1.662-2.269.186-6.204-3.298-8.79-3.483-2.586-7.655-2.843-9.317-.574-1.662 2.268-.186 6.204 3.297 8.79z" fill="url(#paint85_linear)"/><path d="M314.601 183.84c2.405 3.623 2.467 7.829.139 9.395-2.329 1.567-6.166-.1-8.572-3.722-2.405-3.622-2.467-7.829-.138-9.395 2.329-1.566 6.166.1 8.571 3.722z" fill="url(#paint86_linear)"/><path d="M1717.89 907.688c-2.23 3.356-.13 8.703 4.69 11.943 4.81 3.239 10.52 3.145 12.75-.211 2.23-3.356.13-8.703-4.68-11.942-4.82-3.24-10.53-3.146-12.76.21z" fill="url(#paint87_linear)"/><path d="M1720.7 892.712c-.91 3.7.28 7.181 2.66 7.774 2.38.594 5.05-1.925 5.96-5.625.91-3.7-.28-7.181-2.66-7.774-2.38-.594-5.04 1.925-5.96 5.625z" fill="url(#paint88_linear)"/><path d="M1748.52 911.421c-3.05 2.263-6.7 2.487-8.16.502-1.45-1.985-.16-5.428 2.89-7.691 3.05-2.263 6.7-2.488 8.15-.503 1.46 1.986.17 5.429-2.88 7.692z" fill="url(#paint89_linear)"/><path d="M1733.55 895.624c-2.1 3.17-2.16 6.85-.12 8.221 2.04 1.37 5.4-.088 7.5-3.258 2.1-3.169 2.16-6.849.12-8.22-2.04-1.371-5.39.088-7.5 3.257z" fill="url(#paint90_linear)"/><circle cx="192.5" cy="436.5" r="11.5" fill="url(#paint91_linear)"/><circle cx="177.5" cy="278.5" r="3.5" fill="url(#paint92_linear)"/><circle cx="1680.5" cy="311.5" r="5.5" fill="url(#paint93_linear)"/><circle cx="1857.5" cy="698.5" r="5.5" fill="url(#paint94_linear)"/><circle cx="1650.5" cy="1024.5" r="5.5" fill="url(#paint95_linear)"/><path d="M180 978.5c0 9.113-7.387 16.5-16.5 16.5s-16.5-7.387-16.5-16.5 7.387-16.5 16.5-16.5 16.5 7.387 16.5 16.5zm-28.05 0c0 6.379 5.171 11.55 11.55 11.55 6.379 0 11.55-5.171 11.55-11.55 0-6.379-5.171-11.55-11.55-11.55-6.379 0-11.55 5.171-11.55 11.55z" fill="url(#paint96_linear)"/><path d="M72 281.5a16.5 16.5 0 11-30.79-8.25l4.287 2.475A11.55 11.55 0 1067.05 281.5H72z" fill="url(#paint97_linear)"/><path d="M1857 1024.5c0-2.53-.58-5.03-1.7-7.3a16.485 16.485 0 00-4.76-5.79c-2-1.54-4.34-2.6-6.82-3.09-2.48-.5-5.05-.41-7.49.24-2.45.66-4.71 1.87-6.61 3.53a16.45 16.45 0 00-4.36 6.1c-.97 2.33-1.39 4.86-1.22 7.39.16 2.52.91 4.98 2.17 7.17l4.29-2.48c-.89-1.53-1.41-3.25-1.53-5.01-.11-1.77.18-3.54.86-5.18.68-1.64 1.72-3.1 3.05-4.26 1.34-1.17 2.92-2.02 4.63-2.48 1.71-.45 3.51-.51 5.24-.17 1.74.35 3.38 1.09 4.78 2.17 1.41 1.08 2.55 2.46 3.33 4.05.78 1.59 1.19 3.34 1.19 5.11h4.95z" fill="url(#paint98_linear)"/><path d="M1795 491c0 16.569-13.43 30-30 30s-30-13.431-30-30c0-16.569 13.43-30 30-30s30 13.431 30 30zm-54 0c0 13.255 10.75 24 24 24s24-10.745 24-24-10.75-24-24-24-24 10.745-24 24z" fill="url(#paint99_linear)"/><path d="M1644.82 515.374l-1.41 9.34 8.44 4.226-9.31 1.546-1.41 9.339-4.35-8.384-9.32 1.545 6.63-6.727-4.35-8.384 8.45 4.226 6.63-6.727z" fill="url(#paint100_linear)"/><path d="M163.261 122.817l-1.41 9.34 8.447 4.226-9.318 1.546-1.41 9.339-4.349-8.384-9.318 1.545 6.63-6.727-4.349-8.384 8.447 4.227 6.63-6.728z" fill="url(#paint101_linear)"/></g><defs><linearGradient id="paint1_linear" x1="1746.1" y1="4524.88" x2="1735.89" y2="4473.57" gradientUnits="userSpaceOnUse"><stop stop-color="#E9D8FF" stop-opacity=".6"/><stop offset=".526" stop-color="#EEDEF5" stop-opacity=".4"/><stop offset="1" stop-color="#FDF2D8" stop-opacity=".6"/></linearGradient><linearGradient id="paint51_linear" x1="60.561" y1="3191.2" x2="70.191" y2="3142.83" gradientUnits="userSpaceOnUse"><stop stop-color="#E9D8FF" stop-opacity=".6"/><stop offset=".526" stop-color="#EEDEF5" stop-opacity=".4"/><stop offset="1" stop-color="#FDF2D8" stop-opacity=".6"/></linearGradient><linearGradient id="paint2_linear" x1="1746.1" y1="4524.88" x2="1735.89" y2="4473.57" gradientUnits="userSpaceOnUse"><stop stop-color="#E9D8FF" stop-opacity=".6"/><stop offset=".526" stop-color="#EEDEF5" stop-opacity=".4"/><stop offset="1" stop-color="#FDF2D8" stop-opacity=".6"/></linearGradient><linearGradient id="paint3_linear" x1="1746.1" y1="4524.88" x2="1735.89" y2="4473.57" gradientUnits="userSpaceOnUse"><stop stop-color="#E9D8FF" stop-opacity=".6"/><stop offset=".526" stop-color="#EEDEF5" stop-opacity=".4"/><stop offset="1" stop-color="#FDF2D8" stop-opacity=".6"/></linearGradient><linearGradient id="paint4_linear" x1="1746.1" y1="4524.88" x2="1735.89" y2="4473.57" gradientUnits="userSpaceOnUse"><stop stop-color="#E9D8FF" stop-opacity=".6"/><stop offset=".526" stop-color="#EEDEF5" stop-opacity=".4"/><stop offset="1" stop-color="#FDF2D8" stop-opacity=".6"/></linearGradient><linearGradient id="paint5_linear" x1="3.876" y1="-7.806" x2="10.588" y2="25.909" gradientUnits="userSpaceOnUse"><stop stop-color="#E9D8FF" stop-opacity=".6"/><stop offset=".526" stop-color="#EEDEF5" stop-opacity=".4"/><stop offset="1" stop-color="#FDF2D8" stop-opacity=".6"/></linearGradient><linearGradient id="paint6_linear" x1="1.18" y1="-2.376" x2="3.222" y2="7.885" gradientUnits="userSpaceOnUse"><stop stop-color="#E9D8FF" stop-opacity=".6"/><stop offset=".526" stop-color="#EEDEF5" stop-opacity=".4"/><stop offset="1" stop-color="#FDF2D8" stop-opacity=".6"/></linearGradient><linearGradient id="paint7_linear" x1="1.854" y1="-3.733" x2="5.064" y2="12.391" gradientUnits="userSpaceOnUse"><stop stop-color="#E9D8FF" stop-opacity=".6"/><stop offset=".526" stop-color="#EEDEF5" stop-opacity=".4"/><stop offset="1" stop-color="#FDF2D8" stop-opacity=".6"/></linearGradient><linearGradient id="paint8_linear" x1="1.854" y1="-3.733" x2="5.064" y2="12.391" gradientUnits="userSpaceOnUse"><stop stop-color="#E9D8FF" stop-opacity=".6"/><stop offset=".526" stop-color="#EEDEF5" stop-opacity=".4"/><stop offset="1" stop-color="#FDF2D8" stop-opacity=".6"/></linearGradient><linearGradient id="paint9_linear" x1="1.854" y1="-3.733" x2="5.064" y2="12.391" gradientUnits="userSpaceOnUse"><stop stop-color="#E9D8FF" stop-opacity=".6"/><stop offset=".526" stop-color="#EEDEF5" stop-opacity=".4"/><stop offset="1" stop-color="#FDF2D8" stop-opacity=".6"/></linearGradient><linearGradient id="paint10_linear" x1="152.561" y1="4449.2" x2="162.191" y2="4400.83" gradientUnits="userSpaceOnUse"><stop stop-color="#E9D8FF" stop-opacity=".6"/><stop offset=".526" stop-color="#EEDEF5" stop-opacity=".4"/><stop offset="1" stop-color="#FDF2D8" stop-opacity=".6"/></linearGradient><linearGradient id="paint11_linear" x1="44.561" y1="5146.2" x2="54.191" y2="5097.83" gradientUnits="userSpaceOnUse"><stop stop-color="#E9D8FF" stop-opacity=".6"/><stop offset=".526" stop-color="#EEDEF5" stop-opacity=".4"/><stop offset="1" stop-color="#FDF2D8" stop-opacity=".6"/></linearGradient><linearGradient id="paint12_linear" x1="1829.56" y1="4347.8" x2="1839.19" y2="4396.17" gradientUnits="userSpaceOnUse"><stop stop-color="#E9D8FF" stop-opacity=".6"/><stop offset=".526" stop-color="#EEDEF5" stop-opacity=".4"/><stop offset="1" stop-color="#FDF2D8" stop-opacity=".6"/></linearGradient><linearGradient id="paint13_linear" x1="130.111" y1="4799.36" x2="147.621" y2="4711.41" gradientUnits="userSpaceOnUse"><stop stop-color="#E9D8FF" stop-opacity=".6"/><stop offset=".526" stop-color="#EEDEF5" stop-opacity=".4"/><stop offset="1" stop-color="#FDF2D8" stop-opacity=".6"/></linearGradient><linearGradient id="paint14_linear" x1="302.561" y1="4605.2" x2="312.191" y2="4556.83" gradientUnits="userSpaceOnUse"><stop stop-color="#E9D8FF" stop-opacity=".6"/><stop offset=".526" stop-color="#EEDEF5" stop-opacity=".4"/><stop offset="1" stop-color="#FDF2D8" stop-opacity=".6"/></linearGradient><linearGradient id="paint15_linear" x1="1641.06" y1="4896.37" x2="1630.79" y2="4858.89" gradientUnits="userSpaceOnUse"><stop stop-color="#E9D8FF" stop-opacity=".6"/><stop offset=".526" stop-color="#EEDEF5" stop-opacity=".4"/><stop offset="1" stop-color="#FDF2D8" stop-opacity=".6"/></linearGradient><linearGradient id="paint16_linear" x1="91.854" y1="4643.27" x2="95.064" y2="4659.39" gradientUnits="userSpaceOnUse"><stop stop-color="#E9D8FF" stop-opacity=".6"/><stop offset=".526" stop-color="#EEDEF5" stop-opacity=".4"/><stop offset="1" stop-color="#FDF2D8" stop-opacity=".6"/></linearGradient><linearGradient id="paint17_linear" x1="204.102" y1="3394.12" x2="193.888" y2="3445.43" gradientUnits="userSpaceOnUse"><stop stop-color="#E9D8FF" stop-opacity=".6"/><stop offset=".526" stop-color="#EEDEF5" stop-opacity=".4"/><stop offset="1" stop-color="#FDF2D8" stop-opacity=".6"/></linearGradient><linearGradient id="paint18_linear" x1="204.102" y1="3394.12" x2="193.888" y2="3445.43" gradientUnits="userSpaceOnUse"><stop stop-color="#E9D8FF" stop-opacity=".6"/><stop offset=".526" stop-color="#EEDEF5" stop-opacity=".4"/><stop offset="1" stop-color="#FDF2D8" stop-opacity=".6"/></linearGradient><linearGradient id="paint19_linear" x1="204.102" y1="3394.12" x2="193.888" y2="3445.43" gradientUnits="userSpaceOnUse"><stop stop-color="#E9D8FF" stop-opacity=".6"/><stop offset=".526" stop-color="#EEDEF5" stop-opacity=".4"/><stop offset="1" stop-color="#FDF2D8" stop-opacity=".6"/></linearGradient><linearGradient id="paint20_linear" x1="204.102" y1="3394.12" x2="193.888" y2="3445.43" gradientUnits="userSpaceOnUse"><stop stop-color="#E9D8FF" stop-opacity=".6"/><stop offset=".526" stop-color="#EEDEF5" stop-opacity=".4"/><stop offset="1" stop-color="#FDF2D8" stop-opacity=".6"/></linearGradient><linearGradient id="paint21_linear" x1="247.18" y1="3318.62" x2="249.222" y2="3328.89" gradientUnits="userSpaceOnUse"><stop stop-color="#E9D8FF" stop-opacity=".6"/><stop offset=".526" stop-color="#EEDEF5" stop-opacity=".4"/><stop offset="1" stop-color="#FDF2D8" stop-opacity=".6"/></linearGradient><linearGradient id="paint22_linear" x1="1684.85" y1="3932.27" x2="1688.06" y2="3948.39" gradientUnits="userSpaceOnUse"><stop stop-color="#E9D8FF" stop-opacity=".6"/><stop offset=".526" stop-color="#EEDEF5" stop-opacity=".4"/><stop offset="1" stop-color="#FDF2D8" stop-opacity=".6"/></linearGradient><linearGradient id="paint23_linear" x1="1672.56" y1="3369.2" x2="1682.19" y2="3320.83" gradientUnits="userSpaceOnUse"><stop stop-color="#E9D8FF" stop-opacity=".6"/><stop offset=".526" stop-color="#EEDEF5" stop-opacity=".4"/><stop offset="1" stop-color="#FDF2D8" stop-opacity=".6"/></linearGradient><linearGradient id="paint24_linear" x1="125.111" y1="3810.64" x2="142.621" y2="3898.59" gradientUnits="userSpaceOnUse"><stop stop-color="#E9D8FF" stop-opacity=".6"/><stop offset=".526" stop-color="#EEDEF5" stop-opacity=".4"/><stop offset="1" stop-color="#FDF2D8" stop-opacity=".6"/></linearGradient><linearGradient id="paint25_linear" x1="1715.56" y1="3879.8" x2="1725.19" y2="3928.17" gradientUnits="userSpaceOnUse"><stop stop-color="#E9D8FF" stop-opacity=".6"/><stop offset=".526" stop-color="#EEDEF5" stop-opacity=".4"/><stop offset="1" stop-color="#FDF2D8" stop-opacity=".6"/></linearGradient><linearGradient id="paint26_linear" x1="1672.56" y1="4110.8" x2="1682.19" y2="4159.17" gradientUnits="userSpaceOnUse"><stop stop-color="#E9D8FF" stop-opacity=".6"/><stop offset=".526" stop-color="#EEDEF5" stop-opacity=".4"/><stop offset="1" stop-color="#FDF2D8" stop-opacity=".6"/></linearGradient><linearGradient id="paint27_linear" x1="229.502" y1="4203.07" x2="219.232" y2="4240.55" gradientUnits="userSpaceOnUse"><stop stop-color="#E9D8FF" stop-opacity=".6"/><stop offset=".526" stop-color="#EEDEF5" stop-opacity=".4"/><stop offset="1" stop-color="#FDF2D8" stop-opacity=".6"/></linearGradient><linearGradient id="paint28_linear" x1="42.502" y1="4197.07" x2="32.232" y2="4234.55" gradientUnits="userSpaceOnUse"><stop stop-color="#E9D8FF" stop-opacity=".6"/><stop offset=".526" stop-color="#EEDEF5" stop-opacity=".4"/><stop offset="1" stop-color="#FDF2D8" stop-opacity=".6"/></linearGradient><linearGradient id="paint29_linear" x1="178.561" y1="4094.8" x2="188.191" y2="4143.17" gradientUnits="userSpaceOnUse"><stop stop-color="#E9D8FF" stop-opacity=".6"/><stop offset=".526" stop-color="#EEDEF5" stop-opacity=".4"/><stop offset="1" stop-color="#FDF2D8" stop-opacity=".6"/></linearGradient><linearGradient id="paint30_linear" x1="1753.11" y1="3393.64" x2="1770.62" y2="3481.59" gradientUnits="userSpaceOnUse"><stop stop-color="#E9D8FF" stop-opacity=".6"/><stop offset=".526" stop-color="#EEDEF5" stop-opacity=".4"/><stop offset="1" stop-color="#FDF2D8" stop-opacity=".6"/></linearGradient><linearGradient id="paint31_linear" x1="94.854" y1="3738.27" x2="98.064" y2="3754.39" gradientUnits="userSpaceOnUse"><stop stop-color="#E9D8FF" stop-opacity=".6"/><stop offset=".526" stop-color="#EEDEF5" stop-opacity=".4"/><stop offset="1" stop-color="#FDF2D8" stop-opacity=".6"/></linearGradient><linearGradient id="paint32_linear" x1="47.502" y1="3544.07" x2="37.232" y2="3581.55" gradientUnits="userSpaceOnUse"><stop stop-color="#E9D8FF" stop-opacity=".6"/><stop offset=".526" stop-color="#EEDEF5" stop-opacity=".4"/><stop offset="1" stop-color="#FDF2D8" stop-opacity=".6"/></linearGradient><linearGradient id="paint33_linear" x1="83.854" y1="3372.27" x2="87.064" y2="3388.39" gradientUnits="userSpaceOnUse"><stop stop-color="#E9D8FF" stop-opacity=".6"/><stop offset=".526" stop-color="#EEDEF5" stop-opacity=".4"/><stop offset="1" stop-color="#FDF2D8" stop-opacity=".6"/></linearGradient><linearGradient id="paint34_linear" x1="1767.11" y1="3750.64" x2="1784.62" y2="3838.59" gradientUnits="userSpaceOnUse"><stop stop-color="#E9D8FF" stop-opacity=".6"/><stop offset=".526" stop-color="#EEDEF5" stop-opacity=".4"/><stop offset="1" stop-color="#FDF2D8" stop-opacity=".6"/></linearGradient><linearGradient id="paint35_linear" x1="178.561" y1="3556.8" x2="188.191" y2="3605.17" gradientUnits="userSpaceOnUse"><stop stop-color="#E9D8FF" stop-opacity=".6"/><stop offset=".526" stop-color="#EEDEF5" stop-opacity=".4"/><stop offset="1" stop-color="#FDF2D8" stop-opacity=".6"/></linearGradient><linearGradient id="paint36_linear" x1="1767.88" y1="3633.19" x2="1774.59" y2="3666.91" gradientUnits="userSpaceOnUse"><stop stop-color="#E9D8FF" stop-opacity=".6"/><stop offset=".526" stop-color="#EEDEF5" stop-opacity=".4"/><stop offset="1" stop-color="#FDF2D8" stop-opacity=".6"/></linearGradient><linearGradient id="paint37_linear" x1="1758.85" y1="3802.27" x2="1762.06" y2="3818.39" gradientUnits="userSpaceOnUse"><stop stop-color="#E9D8FF" stop-opacity=".6"/><stop offset=".526" stop-color="#EEDEF5" stop-opacity=".4"/><stop offset="1" stop-color="#FDF2D8" stop-opacity=".6"/></linearGradient><linearGradient id="paint38_linear" x1="1843.56" y1="3969.8" x2="1853.19" y2="4018.17" gradientUnits="userSpaceOnUse"><stop stop-color="#E9D8FF" stop-opacity=".6"/><stop offset=".526" stop-color="#EEDEF5" stop-opacity=".4"/><stop offset="1" stop-color="#FDF2D8" stop-opacity=".6"/></linearGradient><linearGradient id="paint39_linear" x1="104.561" y1="2428.8" x2="114.191" y2="2477.17" gradientUnits="userSpaceOnUse"><stop stop-color="#E9D8FF" stop-opacity=".6"/><stop offset=".526" stop-color="#EEDEF5" stop-opacity=".4"/><stop offset="1" stop-color="#FDF2D8" stop-opacity=".6"/></linearGradient><linearGradient id="paint40_linear" x1="1717.18" y1="2278.62" x2="1719.22" y2="2288.89" gradientUnits="userSpaceOnUse"><stop stop-color="#E9D8FF" stop-opacity=".6"/><stop offset=".526" stop-color="#EEDEF5" stop-opacity=".4"/><stop offset="1" stop-color="#FDF2D8" stop-opacity=".6"/></linearGradient><linearGradient id="paint41_linear" x1="1825.85" y1="2368.27" x2="1829.06" y2="2384.39" gradientUnits="userSpaceOnUse"><stop stop-color="#E9D8FF" stop-opacity=".6"/><stop offset=".526" stop-color="#EEDEF5" stop-opacity=".4"/><stop offset="1" stop-color="#FDF2D8" stop-opacity=".6"/></linearGradient><linearGradient id="paint42_linear" x1="1755.11" y1="2671.64" x2="1772.62" y2="2759.59" gradientUnits="userSpaceOnUse"><stop stop-color="#E9D8FF" stop-opacity=".6"/><stop offset=".526" stop-color="#EEDEF5" stop-opacity=".4"/><stop offset="1" stop-color="#FDF2D8" stop-opacity=".6"/></linearGradient><linearGradient id="paint43_linear" x1="1710.1" y1="2437.12" x2="1699.89" y2="2488.43" gradientUnits="userSpaceOnUse"><stop stop-color="#E9D8FF" stop-opacity=".6"/><stop offset=".526" stop-color="#EEDEF5" stop-opacity=".4"/><stop offset="1" stop-color="#FDF2D8" stop-opacity=".6"/></linearGradient><linearGradient id="paint44_linear" x1="1710.1" y1="2437.12" x2="1699.89" y2="2488.43" gradientUnits="userSpaceOnUse"><stop stop-color="#E9D8FF" stop-opacity=".6"/><stop offset=".526" stop-color="#EEDEF5" stop-opacity=".4"/><stop offset="1" stop-color="#FDF2D8" stop-opacity=".6"/></linearGradient><linearGradient id="paint45_linear" x1="1710.1" y1="2437.12" x2="1699.89" y2="2488.43" gradientUnits="userSpaceOnUse"><stop stop-color="#E9D8FF" stop-opacity=".6"/><stop offset=".526" stop-color="#EEDEF5" stop-opacity=".4"/><stop offset="1" stop-color="#FDF2D8" stop-opacity=".6"/></linearGradient><linearGradient id="paint46_linear" x1="1710.1" y1="2437.12" x2="1699.89" y2="2488.43" gradientUnits="userSpaceOnUse"><stop stop-color="#E9D8FF" stop-opacity=".6"/><stop offset=".526" stop-color="#EEDEF5" stop-opacity=".4"/><stop offset="1" stop-color="#FDF2D8" stop-opacity=".6"/></linearGradient><linearGradient id="paint47_linear" x1="1704.56" y1="2910.8" x2="1714.19" y2="2959.17" gradientUnits="userSpaceOnUse"><stop stop-color="#E9D8FF" stop-opacity=".6"/><stop offset=".526" stop-color="#EEDEF5" stop-opacity=".4"/><stop offset="1" stop-color="#FDF2D8" stop-opacity=".6"/></linearGradient><linearGradient id="paint48_linear" x1="124.18" y1="2775.62" x2="126.222" y2="2785.89" gradientUnits="userSpaceOnUse"><stop stop-color="#E9D8FF" stop-opacity=".6"/><stop offset=".526" stop-color="#EEDEF5" stop-opacity=".4"/><stop offset="1" stop-color="#FDF2D8" stop-opacity=".6"/></linearGradient><linearGradient id="paint49_linear" x1="116.854" y1="2326.27" x2="120.064" y2="2342.39" gradientUnits="userSpaceOnUse"><stop stop-color="#E9D8FF" stop-opacity=".6"/><stop offset=".526" stop-color="#EEDEF5" stop-opacity=".4"/><stop offset="1" stop-color="#FDF2D8" stop-opacity=".6"/></linearGradient><linearGradient id="paint50_linear" x1="1647.85" y1="2279.27" x2="1651.06" y2="2295.39" gradientUnits="userSpaceOnUse"><stop stop-color="#E9D8FF" stop-opacity=".6"/><stop offset=".526" stop-color="#EEDEF5" stop-opacity=".4"/><stop offset="1" stop-color="#FDF2D8" stop-opacity=".6"/></linearGradient><linearGradient id="paint0_linear" x1="1887.48" y1="4847.23" x2="1790.47" y2="4481.28" gradientUnits="userSpaceOnUse"><stop stop-color="#E9D8FF" stop-opacity=".6"/><stop offset=".526" stop-color="#EEDEF5" stop-opacity=".4"/><stop offset="1" stop-color="#FDF2D8" stop-opacity=".6"/></linearGradient><linearGradient id="paint52_linear" x1="89.854" y1="2604.27" x2="93.064" y2="2620.39" gradientUnits="userSpaceOnUse"><stop stop-color="#E9D8FF" stop-opacity=".6"/><stop offset=".526" stop-color="#EEDEF5" stop-opacity=".4"/><stop offset="1" stop-color="#FDF2D8" stop-opacity=".6"/></linearGradient><linearGradient id="paint53_linear" x1="173.502" y1="2898.07" x2="163.232" y2="2935.55" gradientUnits="userSpaceOnUse"><stop stop-color="#E9D8FF" stop-opacity=".6"/><stop offset=".526" stop-color="#EEDEF5" stop-opacity=".4"/><stop offset="1" stop-color="#FDF2D8" stop-opacity=".6"/></linearGradient><linearGradient id="paint54_linear" x1="174.876" y1="3062.19" x2="181.588" y2="3095.91" gradientUnits="userSpaceOnUse"><stop stop-color="#E9D8FF" stop-opacity=".6"/><stop offset=".526" stop-color="#EEDEF5" stop-opacity=".4"/><stop offset="1" stop-color="#FDF2D8" stop-opacity=".6"/></linearGradient><linearGradient id="paint55_linear" x1="1700.18" y1="3090.62" x2="1702.22" y2="3100.89" gradientUnits="userSpaceOnUse"><stop stop-color="#E9D8FF" stop-opacity=".6"/><stop offset=".526" stop-color="#EEDEF5" stop-opacity=".4"/><stop offset="1" stop-color="#FDF2D8" stop-opacity=".6"/></linearGradient><linearGradient id="paint56_linear" x1="1796.56" y1="2206.8" x2="1806.19" y2="2255.17" gradientUnits="userSpaceOnUse"><stop stop-color="#E9D8FF" stop-opacity=".6"/><stop offset=".526" stop-color="#EEDEF5" stop-opacity=".4"/><stop offset="1" stop-color="#FDF2D8" stop-opacity=".6"/></linearGradient><linearGradient id="paint57_linear" x1="1794.56" y1="3102.8" x2="1804.19" y2="3151.17" gradientUnits="userSpaceOnUse"><stop stop-color="#E9D8FF" stop-opacity=".6"/><stop offset=".526" stop-color="#EEDEF5" stop-opacity=".4"/><stop offset="1" stop-color="#FDF2D8" stop-opacity=".6"/></linearGradient><linearGradient id="paint58_linear" x1="205.502" y1="2545.07" x2="195.232" y2="2582.55" gradientUnits="userSpaceOnUse"><stop stop-color="#E9D8FF" stop-opacity=".6"/><stop offset=".526" stop-color="#EEDEF5" stop-opacity=".4"/><stop offset="1" stop-color="#FDF2D8" stop-opacity=".6"/></linearGradient><linearGradient id="paint59_linear" x1="204.102" y1="1234.12" x2="193.888" y2="1285.43" gradientUnits="userSpaceOnUse"><stop stop-color="#E9D8FF" stop-opacity=".6"/><stop offset=".526" stop-color="#EEDEF5" stop-opacity=".4"/><stop offset="1" stop-color="#FDF2D8" stop-opacity=".6"/></linearGradient><linearGradient id="paint60_linear" x1="204.102" y1="1234.12" x2="193.888" y2="1285.43" gradientUnits="userSpaceOnUse"><stop stop-color="#E9D8FF" stop-opacity=".6"/><stop offset=".526" stop-color="#EEDEF5" stop-opacity=".4"/><stop offset="1" stop-color="#FDF2D8" stop-opacity=".6"/></linearGradient><linearGradient id="paint61_linear" x1="204.102" y1="1234.12" x2="193.888" y2="1285.43" gradientUnits="userSpaceOnUse"><stop stop-color="#E9D8FF" stop-opacity=".6"/><stop offset=".526" stop-color="#EEDEF5" stop-opacity=".4"/><stop offset="1" stop-color="#FDF2D8" stop-opacity=".6"/></linearGradient><linearGradient id="paint62_linear" x1="204.102" y1="1234.12" x2="193.888" y2="1285.43" gradientUnits="userSpaceOnUse"><stop stop-color="#E9D8FF" stop-opacity=".6"/><stop offset=".526" stop-color="#EEDEF5" stop-opacity=".4"/><stop offset="1" stop-color="#FDF2D8" stop-opacity=".6"/></linearGradient><linearGradient id="paint63_linear" x1="247.18" y1="1158.62" x2="249.222" y2="1168.89" gradientUnits="userSpaceOnUse"><stop stop-color="#E9D8FF" stop-opacity=".6"/><stop offset=".526" stop-color="#EEDEF5" stop-opacity=".4"/><stop offset="1" stop-color="#FDF2D8" stop-opacity=".6"/></linearGradient><linearGradient id="paint64_linear" x1="1684.85" y1="1772.27" x2="1688.06" y2="1788.39" gradientUnits="userSpaceOnUse"><stop stop-color="#E9D8FF" stop-opacity=".6"/><stop offset=".526" stop-color="#EEDEF5" stop-opacity=".4"/><stop offset="1" stop-color="#FDF2D8" stop-opacity=".6"/></linearGradient><linearGradient id="paint65_linear" x1="1672.56" y1="1209.2" x2="1682.19" y2="1160.83" gradientUnits="userSpaceOnUse"><stop stop-color="#E9D8FF" stop-opacity=".6"/><stop offset=".526" stop-color="#EEDEF5" stop-opacity=".4"/><stop offset="1" stop-color="#FDF2D8" stop-opacity=".6"/></linearGradient><linearGradient id="paint66_linear" x1="125.111" y1="1650.64" x2="142.621" y2="1738.59" gradientUnits="userSpaceOnUse"><stop stop-color="#E9D8FF" stop-opacity=".6"/><stop offset=".526" stop-color="#EEDEF5" stop-opacity=".4"/><stop offset="1" stop-color="#FDF2D8" stop-opacity=".6"/></linearGradient><linearGradient id="paint67_linear" x1="1715.56" y1="1719.8" x2="1725.19" y2="1768.17" gradientUnits="userSpaceOnUse"><stop stop-color="#E9D8FF" stop-opacity=".6"/><stop offset=".526" stop-color="#EEDEF5" stop-opacity=".4"/><stop offset="1" stop-color="#FDF2D8" stop-opacity=".6"/></linearGradient><linearGradient id="paint68_linear" x1="1672.56" y1="1950.8" x2="1682.19" y2="1999.17" gradientUnits="userSpaceOnUse"><stop stop-color="#E9D8FF" stop-opacity=".6"/><stop offset=".526" stop-color="#EEDEF5" stop-opacity=".4"/><stop offset="1" stop-color="#FDF2D8" stop-opacity=".6"/></linearGradient><linearGradient id="paint69_linear" x1="229.502" y1="2043.07" x2="219.232" y2="2080.55" gradientUnits="userSpaceOnUse"><stop stop-color="#E9D8FF" stop-opacity=".6"/><stop offset=".526" stop-color="#EEDEF5" stop-opacity=".4"/><stop offset="1" stop-color="#FDF2D8" stop-opacity=".6"/></linearGradient><linearGradient id="paint70_linear" x1="42.502" y1="2037.07" x2="32.232" y2="2074.55" gradientUnits="userSpaceOnUse"><stop stop-color="#E9D8FF" stop-opacity=".6"/><stop offset=".526" stop-color="#EEDEF5" stop-opacity=".4"/><stop offset="1" stop-color="#FDF2D8" stop-opacity=".6"/></linearGradient><linearGradient id="paint71_linear" x1="178.561" y1="1934.8" x2="188.191" y2="1983.17" gradientUnits="userSpaceOnUse"><stop stop-color="#E9D8FF" stop-opacity=".6"/><stop offset=".526" stop-color="#EEDEF5" stop-opacity=".4"/><stop offset="1" stop-color="#FDF2D8" stop-opacity=".6"/></linearGradient><linearGradient id="paint72_linear" x1="1753.11" y1="1233.64" x2="1770.62" y2="1321.59" gradientUnits="userSpaceOnUse"><stop stop-color="#E9D8FF" stop-opacity=".6"/><stop offset=".526" stop-color="#EEDEF5" stop-opacity=".4"/><stop offset="1" stop-color="#FDF2D8" stop-opacity=".6"/></linearGradient><linearGradient id="paint73_linear" x1="94.854" y1="1578.27" x2="98.064" y2="1594.39" gradientUnits="userSpaceOnUse"><stop stop-color="#E9D8FF" stop-opacity=".6"/><stop offset=".526" stop-color="#EEDEF5" stop-opacity=".4"/><stop offset="1" stop-color="#FDF2D8" stop-opacity=".6"/></linearGradient><linearGradient id="paint74_linear" x1="47.502" y1="1384.07" x2="37.232" y2="1421.55" gradientUnits="userSpaceOnUse"><stop stop-color="#E9D8FF" stop-opacity=".6"/><stop offset=".526" stop-color="#EEDEF5" stop-opacity=".4"/><stop offset="1" stop-color="#FDF2D8" stop-opacity=".6"/></linearGradient><linearGradient id="paint75_linear" x1="83.854" y1="1212.27" x2="87.064" y2="1228.39" gradientUnits="userSpaceOnUse"><stop stop-color="#E9D8FF" stop-opacity=".6"/><stop offset=".526" stop-color="#EEDEF5" stop-opacity=".4"/><stop offset="1" stop-color="#FDF2D8" stop-opacity=".6"/></linearGradient><linearGradient id="paint76_linear" x1="1767.11" y1="1590.64" x2="1784.62" y2="1678.59" gradientUnits="userSpaceOnUse"><stop stop-color="#E9D8FF" stop-opacity=".6"/><stop offset=".526" stop-color="#EEDEF5" stop-opacity=".4"/><stop offset="1" stop-color="#FDF2D8" stop-opacity=".6"/></linearGradient><linearGradient id="paint77_linear" x1="178.561" y1="1396.8" x2="188.191" y2="1445.17" gradientUnits="userSpaceOnUse"><stop stop-color="#E9D8FF" stop-opacity=".6"/><stop offset=".526" stop-color="#EEDEF5" stop-opacity=".4"/><stop offset="1" stop-color="#FDF2D8" stop-opacity=".6"/></linearGradient><linearGradient id="paint78_linear" x1="1767.88" y1="1473.19" x2="1774.59" y2="1506.91" gradientUnits="userSpaceOnUse"><stop stop-color="#E9D8FF" stop-opacity=".6"/><stop offset=".526" stop-color="#EEDEF5" stop-opacity=".4"/><stop offset="1" stop-color="#FDF2D8" stop-opacity=".6"/></linearGradient><linearGradient id="paint79_linear" x1="1758.85" y1="1642.27" x2="1762.06" y2="1658.39" gradientUnits="userSpaceOnUse"><stop stop-color="#E9D8FF" stop-opacity=".6"/><stop offset=".526" stop-color="#EEDEF5" stop-opacity=".4"/><stop offset="1" stop-color="#FDF2D8" stop-opacity=".6"/></linearGradient><linearGradient id="paint80_linear" x1="1843.56" y1="1809.8" x2="1853.19" y2="1858.17" gradientUnits="userSpaceOnUse"><stop stop-color="#E9D8FF" stop-opacity=".6"/><stop offset=".526" stop-color="#EEDEF5" stop-opacity=".4"/><stop offset="1" stop-color="#FDF2D8" stop-opacity=".6"/></linearGradient><linearGradient id="paint81_linear" x1="32.525" y1="552.775" x2="129.534" y2="918.721" gradientUnits="userSpaceOnUse"><stop stop-color="#E9D8FF" stop-opacity=".6"/><stop offset=".526" stop-color="#EEDEF5" stop-opacity=".4"/><stop offset="1" stop-color="#FDF2D8" stop-opacity=".6"/></linearGradient><linearGradient id="paint82_linear" x1="1751.21" y1="-120.486" x2="1919.2" y2="362.043" gradientUnits="userSpaceOnUse"><stop stop-color="#E9D8FF" stop-opacity=".6"/><stop offset=".526" stop-color="#EEDEF5" stop-opacity=".4"/><stop offset="1" stop-color="#FDF2D8" stop-opacity=".6"/></linearGradient><linearGradient id="paint83_linear" x1="300.258" y1="160.408" x2="311.931" y2="219.044" gradientUnits="userSpaceOnUse"><stop stop-color="#E9D8FF" stop-opacity=".6"/><stop offset=".526" stop-color="#EEDEF5" stop-opacity=".4"/><stop offset="1" stop-color="#FDF2D8" stop-opacity=".6"/></linearGradient><linearGradient id="paint84_linear" x1="300.258" y1="160.408" x2="311.931" y2="219.044" gradientUnits="userSpaceOnUse"><stop stop-color="#E9D8FF" stop-opacity=".6"/><stop offset=".526" stop-color="#EEDEF5" stop-opacity=".4"/><stop offset="1" stop-color="#FDF2D8" stop-opacity=".6"/></linearGradient><linearGradient id="paint85_linear" x1="300.258" y1="160.408" x2="311.931" y2="219.044" gradientUnits="userSpaceOnUse"><stop stop-color="#E9D8FF" stop-opacity=".6"/><stop offset=".526" stop-color="#EEDEF5" stop-opacity=".4"/><stop offset="1" stop-color="#FDF2D8" stop-opacity=".6"/></linearGradient><linearGradient id="paint86_linear" x1="300.258" y1="160.408" x2="311.931" y2="219.044" gradientUnits="userSpaceOnUse"><stop stop-color="#E9D8FF" stop-opacity=".6"/><stop offset=".526" stop-color="#EEDEF5" stop-opacity=".4"/><stop offset="1" stop-color="#FDF2D8" stop-opacity=".6"/></linearGradient><linearGradient id="paint87_linear" x1="1746.1" y1="875.121" x2="1735.89" y2="926.427" gradientUnits="userSpaceOnUse"><stop stop-color="#E9D8FF" stop-opacity=".6"/><stop offset=".526" stop-color="#EEDEF5" stop-opacity=".4"/><stop offset="1" stop-color="#FDF2D8" stop-opacity=".6"/></linearGradient><linearGradient id="paint88_linear" x1="1746.1" y1="875.121" x2="1735.89" y2="926.427" gradientUnits="userSpaceOnUse"><stop stop-color="#E9D8FF" stop-opacity=".6"/><stop offset=".526" stop-color="#EEDEF5" stop-opacity=".4"/><stop offset="1" stop-color="#FDF2D8" stop-opacity=".6"/></linearGradient><linearGradient id="paint89_linear" x1="1746.1" y1="875.121" x2="1735.89" y2="926.427" gradientUnits="userSpaceOnUse"><stop stop-color="#E9D8FF" stop-opacity=".6"/><stop offset=".526" stop-color="#EEDEF5" stop-opacity=".4"/><stop offset="1" stop-color="#FDF2D8" stop-opacity=".6"/></linearGradient><linearGradient id="paint90_linear" x1="1746.1" y1="875.121" x2="1735.89" y2="926.427" gradientUnits="userSpaceOnUse"><stop stop-color="#E9D8FF" stop-opacity=".6"/><stop offset=".526" stop-color="#EEDEF5" stop-opacity=".4"/><stop offset="1" stop-color="#FDF2D8" stop-opacity=".6"/></linearGradient><linearGradient id="paint91_linear" x1="184.876" y1="417.194" x2="191.588" y2="450.909" gradientUnits="userSpaceOnUse"><stop stop-color="#E9D8FF" stop-opacity=".6"/><stop offset=".526" stop-color="#EEDEF5" stop-opacity=".4"/><stop offset="1" stop-color="#FDF2D8" stop-opacity=".6"/></linearGradient><linearGradient id="paint92_linear" x1="175.18" y1="272.624" x2="177.222" y2="282.885" gradientUnits="userSpaceOnUse"><stop stop-color="#E9D8FF" stop-opacity=".6"/><stop offset=".526" stop-color="#EEDEF5" stop-opacity=".4"/><stop offset="1" stop-color="#FDF2D8" stop-opacity=".6"/></linearGradient><linearGradient id="paint93_linear" x1="1676.85" y1="302.267" x2="1680.06" y2="318.391" gradientUnits="userSpaceOnUse"><stop stop-color="#E9D8FF" stop-opacity=".6"/><stop offset=".526" stop-color="#EEDEF5" stop-opacity=".4"/><stop offset="1" stop-color="#FDF2D8" stop-opacity=".6"/></linearGradient><linearGradient id="paint94_linear" x1="1853.85" y1="689.267" x2="1857.06" y2="705.391" gradientUnits="userSpaceOnUse"><stop stop-color="#E9D8FF" stop-opacity=".6"/><stop offset=".526" stop-color="#EEDEF5" stop-opacity=".4"/><stop offset="1" stop-color="#FDF2D8" stop-opacity=".6"/></linearGradient><linearGradient id="paint95_linear" x1="1646.85" y1="1015.27" x2="1650.06" y2="1031.39" gradientUnits="userSpaceOnUse"><stop stop-color="#E9D8FF" stop-opacity=".6"/><stop offset=".526" stop-color="#EEDEF5" stop-opacity=".4"/><stop offset="1" stop-color="#FDF2D8" stop-opacity=".6"/></linearGradient><linearGradient id="paint96_linear" x1="152.561" y1="950.8" x2="162.191" y2="999.174" gradientUnits="userSpaceOnUse"><stop stop-color="#E9D8FF" stop-opacity=".6"/><stop offset=".526" stop-color="#EEDEF5" stop-opacity=".4"/><stop offset="1" stop-color="#FDF2D8" stop-opacity=".6"/></linearGradient><linearGradient id="paint97_linear" x1="44.561" y1="253.8" x2="54.191" y2="302.174" gradientUnits="userSpaceOnUse"><stop stop-color="#E9D8FF" stop-opacity=".6"/><stop offset=".526" stop-color="#EEDEF5" stop-opacity=".4"/><stop offset="1" stop-color="#FDF2D8" stop-opacity=".6"/></linearGradient><linearGradient id="paint98_linear" x1="1829.56" y1="1052.2" x2="1839.19" y2="1003.83" gradientUnits="userSpaceOnUse"><stop stop-color="#E9D8FF" stop-opacity=".6"/><stop offset=".526" stop-color="#EEDEF5" stop-opacity=".4"/><stop offset="1" stop-color="#FDF2D8" stop-opacity=".6"/></linearGradient><linearGradient id="paint99_linear" x1="1745.11" y1="440.636" x2="1762.62" y2="528.589" gradientUnits="userSpaceOnUse"><stop stop-color="#E9D8FF" stop-opacity=".6"/><stop offset=".526" stop-color="#EEDEF5" stop-opacity=".4"/><stop offset="1" stop-color="#FDF2D8" stop-opacity=".6"/></linearGradient><linearGradient id="paint100_linear" x1="1641.06" y1="503.626" x2="1630.79" y2="541.105" gradientUnits="userSpaceOnUse"><stop stop-color="#E9D8FF" stop-opacity=".6"/><stop offset=".526" stop-color="#EEDEF5" stop-opacity=".4"/><stop offset="1" stop-color="#FDF2D8" stop-opacity=".6"/></linearGradient><linearGradient id="paint101_linear" x1="159.502" y1="111.069" x2="149.232" y2="148.548" gradientUnits="userSpaceOnUse"><stop stop-color="#E9D8FF" stop-opacity=".6"/><stop offset=".526" stop-color="#EEDEF5" stop-opacity=".4"/><stop offset="1" stop-color="#FDF2D8" stop-opacity=".6"/></linearGradient><clipPath id="clip0"><path fill="#fff" transform="matrix(1 0 0 -1 0 5175)" d="M0 0h1920v855H0z"/></clipPath></defs></svg>