<svg width="1920" height="5175" viewBox="0 0 1920 5175" fill="none" xmlns="http://www.w3.org/2000/svg">
<rect width="1920" height="5175" fill="white"/>
<g opacity="0.85">
<g clip-path="url(#clip0)">
<rect width="1920" height="855" transform="matrix(1 0 0 -1 0 5175)" fill="white"/>
<path d="M1816.23 4720.81C1890.57 4712.03 1920 4760 1920 4760V4503C1920 4503 1769.81 4571.36 1732.56 4659.07C1714.01 4702.74 1741.89 4729.58 1816.23 4720.81Z" fill="url(#paint0_linear)"/>
<path d="M1717.89 4492.31C1715.66 4488.96 1717.76 4483.61 1722.58 4480.37C1727.39 4477.13 1733.1 4477.22 1735.33 4480.58C1737.56 4483.94 1735.46 4489.28 1730.65 4492.52C1725.83 4495.76 1720.12 4495.67 1717.89 4492.31Z" fill="url(#paint1_linear)"/>
<path d="M1720.7 4507.29C1719.79 4503.59 1720.98 4500.11 1723.36 4499.51C1725.74 4498.92 1728.41 4501.44 1729.32 4505.14C1730.23 4508.84 1729.04 4512.32 1726.66 4512.91C1724.28 4513.51 1721.62 4510.99 1720.7 4507.29Z" fill="url(#paint2_linear)"/>
<path d="M1748.52 4488.58C1745.47 4486.32 1741.82 4486.09 1740.36 4488.08C1738.91 4490.06 1740.2 4493.51 1743.25 4495.77C1746.3 4498.03 1749.95 4498.26 1751.4 4496.27C1752.86 4494.29 1751.57 4490.84 1748.52 4488.58Z" fill="url(#paint3_linear)"/>
<path d="M1733.55 4504.38C1731.45 4501.21 1731.39 4497.53 1733.43 4496.16C1735.47 4494.78 1738.83 4496.24 1740.93 4499.41C1743.03 4502.58 1743.09 4506.26 1741.05 4507.63C1739.01 4509 1735.66 4507.55 1733.55 4504.38Z" fill="url(#paint4_linear)"/>
<circle r="11.5" transform="matrix(1 0 0 -1 192.5 4963.5)" fill="url(#paint5_linear)"/>
<circle r="3.5" transform="matrix(1 0 0 -1 177.5 5121.5)" fill="url(#paint6_linear)"/>
<circle r="5.5" transform="matrix(1 0 0 -1 1680.5 5088.5)" fill="url(#paint7_linear)"/>
<circle r="5.5" transform="matrix(1 0 0 -1 1857.5 4701.5)" fill="url(#paint8_linear)"/>
<circle r="5.5" transform="matrix(1 0 0 -1 1650.5 4375.5)" fill="url(#paint9_linear)"/>
<path d="M180 4421.5C180 4412.39 172.613 4405 163.5 4405C154.387 4405 147 4412.39 147 4421.5C147 4430.61 154.387 4438 163.5 4438C172.613 4438 180 4430.61 180 4421.5ZM151.95 4421.5C151.95 4415.12 157.121 4409.95 163.5 4409.95C169.879 4409.95 175.05 4415.12 175.05 4421.5C175.05 4427.88 169.879 4433.05 163.5 4433.05C157.121 4433.05 151.95 4427.88 151.95 4421.5Z" fill="url(#paint10_linear)"/>
<path d="M72 5118.5C72 5115.97 71.4178 5113.47 70.2984 5111.2C69.179 5108.93 67.5525 5106.95 65.5446 5105.41C63.5367 5103.87 61.2013 5102.81 58.719 5102.32C56.2367 5101.82 53.6741 5101.91 51.2295 5102.56C48.7848 5103.22 46.5236 5104.43 44.6208 5106.09C42.718 5107.76 41.2245 5109.85 40.256 5112.19C39.2875 5114.52 38.8698 5117.05 39.0353 5119.58C39.2009 5122.1 39.9451 5124.56 41.2106 5126.75L45.4974 5124.27C44.6116 5122.74 44.0906 5121.02 43.9747 5119.26C43.8589 5117.49 44.1512 5115.72 44.8292 5114.08C45.5072 5112.44 46.5526 5110.98 47.8846 5109.82C49.2165 5108.65 50.7994 5107.8 52.5106 5107.34C54.2219 5106.89 56.0157 5106.83 57.7533 5107.17C59.4909 5107.52 61.1257 5108.26 62.5312 5109.34C63.9367 5110.42 65.0753 5111.8 65.8589 5113.39C66.6425 5114.98 67.05 5116.73 67.05 5118.5H72Z" fill="url(#paint11_linear)"/>
<path d="M1857 4375.5C1857 4378.03 1856.42 4380.53 1855.3 4382.8C1854.18 4385.07 1852.55 4387.05 1850.54 4388.59C1848.54 4390.13 1846.2 4391.19 1843.72 4391.68C1841.24 4392.18 1838.67 4392.09 1836.23 4391.44C1833.78 4390.78 1831.52 4389.57 1829.62 4387.91C1827.72 4386.24 1826.22 4384.15 1825.26 4381.81C1824.29 4379.48 1823.87 4376.95 1824.04 4374.42C1824.2 4371.9 1824.95 4369.44 1826.21 4367.25L1830.5 4369.73C1829.61 4371.26 1829.09 4372.98 1828.97 4374.74C1828.86 4376.51 1829.15 4378.28 1829.83 4379.92C1830.51 4381.56 1831.55 4383.02 1832.88 4384.18C1834.22 4385.35 1835.8 4386.2 1837.51 4386.66C1839.22 4387.11 1841.02 4387.17 1842.75 4386.83C1844.49 4386.48 1846.13 4385.74 1847.53 4384.66C1848.94 4383.58 1850.08 4382.2 1850.86 4380.61C1851.64 4379.02 1852.05 4377.27 1852.05 4375.5H1857Z" fill="url(#paint12_linear)"/>
<path d="M180 4749C180 4732.43 166.569 4719 150 4719C133.431 4719 120 4732.43 120 4749C120 4765.57 133.431 4779 150 4779C166.569 4779 180 4765.57 180 4749ZM126 4749C126 4735.75 136.745 4725 150 4725C163.255 4725 174 4735.75 174 4749C174 4762.25 163.255 4773 150 4773C136.745 4773 126 4762.25 126 4749Z" fill="url(#paint13_linear)"/>
<path d="M313.5 4594L317.204 4582.6H329.192L319.494 4575.55L323.198 4564.15L313.5 4571.2L303.802 4564.15L307.506 4575.55L297.808 4582.6H309.796L313.5 4594Z" fill="url(#paint14_linear)"/>
<path d="M1644.82 4884.63L1643.41 4875.29L1651.85 4871.06L1642.54 4869.51L1641.13 4860.18L1636.78 4868.56L1627.46 4867.01L1634.09 4873.74L1629.74 4882.13L1638.19 4877.9L1644.82 4884.63Z" fill="url(#paint15_linear)"/>
<circle cx="95.5" cy="4652.5" r="5.5" fill="url(#paint16_linear)"/>
</g>
<rect width="1920" height="1080" transform="translate(0 3240)" fill="white"/>
<path d="M175.89 3426.69C173.662 3430.04 175.76 3435.39 180.576 3438.63C185.392 3441.87 191.102 3441.78 193.331 3438.42C195.559 3435.06 193.461 3429.72 188.645 3426.48C183.829 3423.24 178.119 3423.33 175.89 3426.69Z" fill="url(#paint17_linear)"/>
<path d="M178.705 3411.71C177.794 3415.41 178.983 3418.89 181.362 3419.49C183.741 3420.08 186.408 3417.56 187.319 3413.86C188.23 3410.16 187.04 3406.68 184.661 3406.09C182.283 3405.49 179.616 3408.01 178.705 3411.71Z" fill="url(#paint18_linear)"/>
<path d="M206.517 3430.42C203.469 3432.68 199.819 3432.91 198.364 3430.92C196.91 3428.94 198.202 3425.49 201.25 3423.23C204.298 3420.97 207.948 3420.74 209.402 3422.73C210.857 3424.71 209.565 3428.16 206.517 3430.42Z" fill="url(#paint19_linear)"/>
<path d="M191.551 3414.62C189.447 3417.79 189.393 3421.47 191.43 3422.84C193.468 3424.22 196.825 3422.76 198.93 3419.59C201.034 3416.42 201.089 3412.74 199.051 3411.37C197.014 3410 193.656 3411.45 191.551 3414.62Z" fill="url(#paint20_linear)"/>
<circle cx="249.5" cy="3324.5" r="3.5" fill="url(#paint21_linear)"/>
<circle cx="1688.5" cy="3941.5" r="5.5" fill="url(#paint22_linear)"/>
<path d="M1700 3341.5C1700 3338.97 1699.42 3336.47 1698.3 3334.2C1697.18 3331.93 1695.55 3329.95 1693.54 3328.41C1691.54 3326.87 1689.2 3325.81 1686.72 3325.32C1684.24 3324.82 1681.67 3324.91 1679.23 3325.56C1676.78 3326.22 1674.52 3327.43 1672.62 3329.09C1670.72 3330.76 1669.22 3332.85 1668.26 3335.19C1667.29 3337.52 1666.87 3340.05 1667.04 3342.58C1667.2 3345.1 1667.95 3347.56 1669.21 3349.75L1673.5 3347.27C1672.61 3345.74 1672.09 3344.02 1671.97 3342.26C1671.86 3340.49 1672.15 3338.72 1672.83 3337.08C1673.51 3335.44 1674.55 3333.98 1675.88 3332.82C1677.22 3331.65 1678.8 3330.8 1680.51 3330.34C1682.22 3329.89 1684.02 3329.83 1685.75 3330.17C1687.49 3330.52 1689.13 3331.26 1690.53 3332.34C1691.94 3333.42 1693.08 3334.8 1693.86 3336.39C1694.64 3337.98 1695.05 3339.73 1695.05 3341.5H1700Z" fill="url(#paint23_linear)"/>
<path d="M175 3861C175 3877.57 161.569 3891 145 3891C128.431 3891 115 3877.57 115 3861C115 3844.43 128.431 3831 145 3831C161.569 3831 175 3844.43 175 3861ZM121 3861C121 3874.25 131.745 3885 145 3885C158.255 3885 169 3874.25 169 3861C169 3847.75 158.255 3837 145 3837C131.745 3837 121 3847.75 121 3861Z" fill="url(#paint24_linear)"/>
<path d="M1726.5 3891L1730.2 3902.4H1742.19L1732.49 3909.45L1736.2 3920.85L1726.5 3913.8L1716.8 3920.85L1720.51 3909.45L1710.81 3902.4H1722.8L1726.5 3891Z" fill="url(#paint25_linear)"/>
<path d="M1683.5 4122L1687.2 4133.4H1699.19L1689.49 4140.45L1693.2 4151.85L1683.5 4144.8L1673.8 4151.85L1677.51 4140.45L1667.81 4133.4H1679.8L1683.5 4122Z" fill="url(#paint26_linear)"/>
<path d="M233.261 4214.82L231.851 4224.16L240.298 4228.38L230.98 4229.93L229.57 4239.27L225.221 4230.88L215.903 4232.43L222.533 4225.7L218.184 4217.32L226.631 4221.54L233.261 4214.82Z" fill="url(#paint27_linear)"/>
<path d="M46.2607 4208.82L44.851 4218.16L53.2976 4222.38L43.9798 4223.93L42.5702 4233.27L38.2211 4224.88L28.9033 4226.43L35.5332 4219.7L31.1842 4211.32L39.6307 4215.54L46.2607 4208.82Z" fill="url(#paint28_linear)"/>
<path d="M206 4122.5C206 4131.61 198.613 4139 189.5 4139C180.387 4139 173 4131.61 173 4122.5C173 4113.39 180.387 4106 189.5 4106C198.613 4106 206 4113.39 206 4122.5ZM177.95 4122.5C177.95 4128.88 183.121 4134.05 189.5 4134.05C195.879 4134.05 201.05 4128.88 201.05 4122.5C201.05 4116.12 195.879 4110.95 189.5 4110.95C183.121 4110.95 177.95 4116.12 177.95 4122.5Z" fill="url(#paint29_linear)"/>
<path d="M1803 3444C1803 3460.57 1789.57 3474 1773 3474C1756.43 3474 1743 3460.57 1743 3444C1743 3427.43 1756.43 3414 1773 3414C1789.57 3414 1803 3427.43 1803 3444ZM1749 3444C1749 3457.25 1759.75 3468 1773 3468C1786.25 3468 1797 3457.25 1797 3444C1797 3430.75 1786.25 3420 1773 3420C1759.75 3420 1749 3430.75 1749 3444Z" fill="url(#paint30_linear)"/>
<circle cx="98.5" cy="3747.5" r="5.5" fill="url(#paint31_linear)"/>
<path d="M51.2607 3555.82L49.851 3565.16L58.2976 3569.38L48.9798 3570.93L47.5702 3580.27L43.2211 3571.88L33.9033 3573.43L40.5332 3566.7L36.1842 3558.32L44.6307 3562.54L51.2607 3555.82Z" fill="url(#paint32_linear)"/>
<circle cx="87.5" cy="3381.5" r="5.5" fill="url(#paint33_linear)"/>
<path d="M1817 3801C1817 3805.73 1815.88 3810.4 1813.73 3814.62C1811.58 3818.84 1808.46 3822.49 1804.63 3825.27C1800.8 3828.05 1796.37 3829.89 1791.69 3830.63C1787.02 3831.37 1782.23 3830.99 1777.73 3829.53L1779.58 3823.83C1783.19 3825 1787.01 3825.3 1790.75 3824.7C1794.5 3824.11 1798.04 3822.64 1801.11 3820.42C1804.17 3818.19 1806.66 3815.27 1808.38 3811.9C1810.1 3808.52 1811 3804.79 1811 3801H1817Z" fill="url(#paint34_linear)"/>
<path d="M189.5 3568L193.204 3579.4H205.192L195.494 3586.45L199.198 3597.85L189.5 3590.8L179.802 3597.85L183.506 3586.45L173.808 3579.4H185.796L189.5 3568Z" fill="url(#paint35_linear)"/>
<circle cx="1775.5" cy="3652.5" r="11.5" fill="url(#paint36_linear)"/>
<circle cx="1762.5" cy="3811.5" r="5.5" fill="url(#paint37_linear)"/>
<path d="M1871 3997.5C1871 4000.03 1870.42 4002.53 1869.3 4004.8C1868.18 4007.07 1866.55 4009.05 1864.54 4010.59C1862.54 4012.13 1860.2 4013.19 1857.72 4013.68C1855.24 4014.18 1852.67 4014.09 1850.23 4013.44C1847.78 4012.78 1845.52 4011.57 1843.62 4009.91C1841.72 4008.24 1840.22 4006.15 1839.26 4003.81C1838.29 4001.48 1837.87 3998.95 1838.04 3996.42C1838.2 3993.9 1838.95 3991.44 1840.21 3989.25L1844.5 3991.73C1843.61 3993.26 1843.09 3994.98 1842.97 3996.74C1842.86 3998.51 1843.15 4000.28 1843.83 4001.92C1844.51 4003.56 1845.55 4005.02 1846.88 4006.18C1848.22 4007.35 1849.8 4008.2 1851.51 4008.66C1853.22 4009.11 1855.02 4009.17 1856.75 4008.83C1858.49 4008.48 1860.13 4007.74 1861.53 4006.66C1862.94 4005.58 1864.08 4004.2 1864.86 4002.61C1865.64 4001.02 1866.05 3999.27 1866.05 3997.5H1871Z" fill="url(#paint38_linear)"/>
<rect width="1920" height="1080" transform="translate(0 2160)" fill="white"/>
<path d="M132 2456.5C132 2459.03 131.418 2461.53 130.298 2463.8C129.179 2466.07 127.552 2468.05 125.545 2469.59C123.537 2471.13 121.201 2472.19 118.719 2472.68C116.237 2473.18 113.674 2473.09 111.229 2472.44C108.785 2471.78 106.524 2470.57 104.621 2468.91C102.718 2467.24 101.225 2465.15 100.256 2462.81C99.2875 2460.48 98.8698 2457.95 99.0353 2455.42C99.2009 2452.9 99.9451 2450.44 101.211 2448.25L105.497 2450.73C104.612 2452.26 104.091 2453.98 103.975 2455.74C103.859 2457.51 104.151 2459.28 104.829 2460.92C105.507 2462.56 106.553 2464.02 107.885 2465.18C109.217 2466.35 110.799 2467.2 112.511 2467.66C114.222 2468.11 116.016 2468.17 117.753 2467.83C119.491 2467.48 121.126 2466.74 122.531 2465.66C123.937 2464.58 125.075 2463.2 125.859 2461.61C126.642 2460.02 127.05 2458.27 127.05 2456.5H132Z" fill="url(#paint39_linear)"/>
<circle cx="1719.5" cy="2284.5" r="3.5" fill="url(#paint40_linear)"/>
<circle cx="1829.5" cy="2377.5" r="5.5" fill="url(#paint41_linear)"/>
<path d="M1805 2722C1805 2738.57 1791.57 2752 1775 2752C1758.43 2752 1745 2738.57 1745 2722C1745 2705.43 1758.43 2692 1775 2692C1791.57 2692 1805 2705.43 1805 2722ZM1751 2722C1751 2735.25 1761.75 2746 1775 2746C1788.25 2746 1799 2735.25 1799 2722C1799 2708.75 1788.25 2698 1775 2698C1761.75 2698 1751 2708.75 1751 2722Z" fill="url(#paint42_linear)"/>
<path d="M1681.89 2469.69C1679.66 2473.04 1681.76 2478.39 1686.58 2481.63C1691.39 2484.87 1697.1 2484.78 1699.33 2481.42C1701.56 2478.06 1699.46 2472.72 1694.65 2469.48C1689.83 2466.24 1684.12 2466.33 1681.89 2469.69Z" fill="url(#paint43_linear)"/>
<path d="M1684.7 2454.71C1683.79 2458.41 1684.98 2461.89 1687.36 2462.49C1689.74 2463.08 1692.41 2460.56 1693.32 2456.86C1694.23 2453.16 1693.04 2449.68 1690.66 2449.09C1688.28 2448.49 1685.62 2451.01 1684.7 2454.71Z" fill="url(#paint44_linear)"/>
<path d="M1712.52 2473.42C1709.47 2475.68 1705.82 2475.91 1704.36 2473.92C1702.91 2471.94 1704.2 2468.49 1707.25 2466.23C1710.3 2463.97 1713.95 2463.74 1715.4 2465.73C1716.86 2467.71 1715.57 2471.16 1712.52 2473.42Z" fill="url(#paint45_linear)"/>
<path d="M1697.55 2457.62C1695.45 2460.79 1695.39 2464.47 1697.43 2465.84C1699.47 2467.22 1702.83 2465.76 1704.93 2462.59C1707.03 2459.42 1707.09 2455.74 1705.05 2454.37C1703.01 2453 1699.66 2454.45 1697.55 2457.62Z" fill="url(#paint46_linear)"/>
<path d="M1715.5 2922L1719.2 2933.4H1731.19L1721.49 2940.45L1725.2 2951.85L1715.5 2944.8L1705.8 2951.85L1709.51 2940.45L1699.81 2933.4H1711.8L1715.5 2922Z" fill="url(#paint47_linear)"/>
<circle cx="126.5" cy="2781.5" r="3.5" fill="url(#paint48_linear)"/>
<circle cx="120.5" cy="2335.5" r="5.5" fill="url(#paint49_linear)"/>
<circle cx="1651.5" cy="2288.5" r="5.5" fill="url(#paint50_linear)"/>
<path d="M88 3163.5C88 3160.97 87.4178 3158.47 86.2984 3156.2C85.179 3153.93 83.5525 3151.95 81.5446 3150.41C79.5367 3148.87 77.2013 3147.81 74.719 3147.32C72.2367 3146.82 69.6741 3146.91 67.2295 3147.56C64.7848 3148.22 62.5236 3149.43 60.6208 3151.09C58.718 3152.76 57.2245 3154.85 56.256 3157.19C55.2875 3159.52 54.8698 3162.05 55.0353 3164.58C55.2009 3167.1 55.9451 3169.56 57.2106 3171.75L61.4974 3169.27C60.6116 3167.74 60.0906 3166.02 59.9747 3164.26C59.8589 3162.49 60.1512 3160.72 60.8292 3159.08C61.5072 3157.44 62.5526 3155.98 63.8846 3154.82C65.2165 3153.65 66.7994 3152.8 68.5106 3152.34C70.2219 3151.89 72.0157 3151.83 73.7533 3152.17C75.4909 3152.52 77.1257 3153.26 78.5312 3154.34C79.9367 3155.42 81.0753 3156.8 81.8589 3158.39C82.6425 3159.98 83.05 3161.73 83.05 3163.5H88Z" fill="url(#paint51_linear)"/>
<circle cx="93.5" cy="2613.5" r="5.5" fill="url(#paint52_linear)"/>
<path d="M177.261 2909.82L175.851 2919.16L184.298 2923.38L174.98 2924.93L173.57 2934.27L169.221 2925.88L159.903 2927.43L166.533 2920.7L162.184 2912.32L170.631 2916.54L177.261 2909.82Z" fill="url(#paint53_linear)"/>
<circle cx="182.5" cy="3081.5" r="11.5" fill="url(#paint54_linear)"/>
<circle cx="1702.5" cy="3096.5" r="3.5" fill="url(#paint55_linear)"/>
<path d="M1824 2234.5C1824 2243.61 1816.61 2251 1807.5 2251C1798.39 2251 1791 2243.61 1791 2234.5C1791 2225.39 1798.39 2218 1807.5 2218C1816.61 2218 1824 2225.39 1824 2234.5ZM1795.95 2234.5C1795.95 2240.88 1801.12 2246.05 1807.5 2246.05C1813.88 2246.05 1819.05 2240.88 1819.05 2234.5C1819.05 2228.12 1813.88 2222.95 1807.5 2222.95C1801.12 2222.95 1795.95 2228.12 1795.95 2234.5Z" fill="url(#paint56_linear)"/>
<path d="M1822 3130.5C1822 3133.03 1821.42 3135.53 1820.3 3137.8C1819.18 3140.07 1817.55 3142.05 1815.54 3143.59C1813.54 3145.13 1811.2 3146.19 1808.72 3146.68C1806.24 3147.18 1803.67 3147.09 1801.23 3146.44C1798.78 3145.78 1796.52 3144.57 1794.62 3142.91C1792.72 3141.24 1791.22 3139.15 1790.26 3136.81C1789.29 3134.48 1788.87 3131.95 1789.04 3129.42C1789.2 3126.9 1789.95 3124.44 1791.21 3122.25L1795.5 3124.73C1794.61 3126.26 1794.09 3127.98 1793.97 3129.74C1793.86 3131.51 1794.15 3133.28 1794.83 3134.92C1795.51 3136.56 1796.55 3138.02 1797.88 3139.18C1799.22 3140.35 1800.8 3141.2 1802.51 3141.66C1804.22 3142.11 1806.02 3142.17 1807.75 3141.83C1809.49 3141.48 1811.13 3140.74 1812.53 3139.66C1813.94 3138.58 1815.08 3137.2 1815.86 3135.61C1816.64 3134.02 1817.05 3132.27 1817.05 3130.5H1822Z" fill="url(#paint57_linear)"/>
<path d="M209.261 2556.82L207.851 2566.16L216.298 2570.38L206.98 2571.93L205.57 2581.27L201.221 2572.88L191.903 2574.43L198.533 2567.7L194.184 2559.32L202.631 2563.54L209.261 2556.82Z" fill="url(#paint58_linear)"/>
<rect width="1920" height="1080" transform="translate(0 1080)" fill="white"/>
<path d="M175.89 1266.69C173.662 1270.04 175.76 1275.39 180.576 1278.63C185.392 1281.87 191.102 1281.78 193.331 1278.42C195.559 1275.06 193.461 1269.72 188.645 1266.48C183.829 1263.24 178.119 1263.33 175.89 1266.69Z" fill="url(#paint59_linear)"/>
<path d="M178.705 1251.71C177.794 1255.41 178.983 1258.89 181.362 1259.49C183.741 1260.08 186.408 1257.56 187.319 1253.86C188.23 1250.16 187.04 1246.68 184.661 1246.09C182.283 1245.49 179.616 1248.01 178.705 1251.71Z" fill="url(#paint60_linear)"/>
<path d="M206.517 1270.42C203.469 1272.68 199.819 1272.91 198.364 1270.92C196.91 1268.94 198.202 1265.49 201.25 1263.23C204.298 1260.97 207.948 1260.74 209.402 1262.73C210.857 1264.71 209.565 1268.16 206.517 1270.42Z" fill="url(#paint61_linear)"/>
<path d="M191.551 1254.62C189.447 1257.79 189.393 1261.47 191.43 1262.84C193.468 1264.22 196.825 1262.76 198.93 1259.59C201.034 1256.42 201.089 1252.74 199.051 1251.37C197.014 1250 193.656 1251.45 191.551 1254.62Z" fill="url(#paint62_linear)"/>
<circle cx="249.5" cy="1164.5" r="3.5" fill="url(#paint63_linear)"/>
<circle cx="1688.5" cy="1781.5" r="5.5" fill="url(#paint64_linear)"/>
<path d="M1700 1181.5C1700 1178.97 1699.42 1176.47 1698.3 1174.2C1697.18 1171.93 1695.55 1169.95 1693.54 1168.41C1691.54 1166.87 1689.2 1165.81 1686.72 1165.32C1684.24 1164.82 1681.67 1164.91 1679.23 1165.56C1676.78 1166.22 1674.52 1167.43 1672.62 1169.09C1670.72 1170.76 1669.22 1172.85 1668.26 1175.19C1667.29 1177.52 1666.87 1180.05 1667.04 1182.58C1667.2 1185.1 1667.95 1187.56 1669.21 1189.75L1673.5 1187.27C1672.61 1185.74 1672.09 1184.02 1671.97 1182.26C1671.86 1180.49 1672.15 1178.72 1672.83 1177.08C1673.51 1175.44 1674.55 1173.98 1675.88 1172.82C1677.22 1171.65 1678.8 1170.8 1680.51 1170.34C1682.22 1169.89 1684.02 1169.83 1685.75 1170.17C1687.49 1170.52 1689.13 1171.26 1690.53 1172.34C1691.94 1173.42 1693.08 1174.8 1693.86 1176.39C1694.64 1177.98 1695.05 1179.73 1695.05 1181.5H1700Z" fill="url(#paint65_linear)"/>
<path d="M175 1701C175 1717.57 161.569 1731 145 1731C128.431 1731 115 1717.57 115 1701C115 1684.43 128.431 1671 145 1671C161.569 1671 175 1684.43 175 1701ZM121 1701C121 1714.25 131.745 1725 145 1725C158.255 1725 169 1714.25 169 1701C169 1687.75 158.255 1677 145 1677C131.745 1677 121 1687.75 121 1701Z" fill="url(#paint66_linear)"/>
<path d="M1726.5 1731L1730.2 1742.4H1742.19L1732.49 1749.45L1736.2 1760.85L1726.5 1753.8L1716.8 1760.85L1720.51 1749.45L1710.81 1742.4H1722.8L1726.5 1731Z" fill="url(#paint67_linear)"/>
<path d="M1683.5 1962L1687.2 1973.4H1699.19L1689.49 1980.45L1693.2 1991.85L1683.5 1984.8L1673.8 1991.85L1677.51 1980.45L1667.81 1973.4H1679.8L1683.5 1962Z" fill="url(#paint68_linear)"/>
<path d="M233.261 2054.82L231.851 2064.16L240.298 2068.38L230.98 2069.93L229.57 2079.27L225.221 2070.88L215.903 2072.43L222.533 2065.7L218.184 2057.32L226.631 2061.54L233.261 2054.82Z" fill="url(#paint69_linear)"/>
<path d="M46.2607 2048.82L44.851 2058.16L53.2976 2062.38L43.9798 2063.93L42.5702 2073.27L38.2211 2064.88L28.9033 2066.43L35.5332 2059.7L31.1842 2051.32L39.6307 2055.54L46.2607 2048.82Z" fill="url(#paint70_linear)"/>
<path d="M206 1962.5C206 1971.61 198.613 1979 189.5 1979C180.387 1979 173 1971.61 173 1962.5C173 1953.39 180.387 1946 189.5 1946C198.613 1946 206 1953.39 206 1962.5ZM177.95 1962.5C177.95 1968.88 183.121 1974.05 189.5 1974.05C195.879 1974.05 201.05 1968.88 201.05 1962.5C201.05 1956.12 195.879 1950.95 189.5 1950.95C183.121 1950.95 177.95 1956.12 177.95 1962.5Z" fill="url(#paint71_linear)"/>
<path d="M1803 1284C1803 1300.57 1789.57 1314 1773 1314C1756.43 1314 1743 1300.57 1743 1284C1743 1267.43 1756.43 1254 1773 1254C1789.57 1254 1803 1267.43 1803 1284ZM1749 1284C1749 1297.25 1759.75 1308 1773 1308C1786.25 1308 1797 1297.25 1797 1284C1797 1270.75 1786.25 1260 1773 1260C1759.75 1260 1749 1270.75 1749 1284Z" fill="url(#paint72_linear)"/>
<circle cx="98.5" cy="1587.5" r="5.5" fill="url(#paint73_linear)"/>
<path d="M51.2607 1395.82L49.851 1405.16L58.2976 1409.38L48.9798 1410.93L47.5702 1420.27L43.2211 1411.88L33.9033 1413.43L40.5332 1406.7L36.1842 1398.32L44.6307 1402.54L51.2607 1395.82Z" fill="url(#paint74_linear)"/>
<circle cx="87.5" cy="1221.5" r="5.5" fill="url(#paint75_linear)"/>
<path d="M1817 1641C1817 1645.73 1815.88 1650.4 1813.73 1654.62C1811.58 1658.84 1808.46 1662.49 1804.63 1665.27C1800.8 1668.05 1796.37 1669.89 1791.69 1670.63C1787.02 1671.37 1782.23 1670.99 1777.73 1669.53L1779.58 1663.83C1783.19 1665 1787.01 1665.3 1790.75 1664.7C1794.5 1664.11 1798.04 1662.64 1801.11 1660.42C1804.17 1658.19 1806.66 1655.27 1808.38 1651.9C1810.1 1648.52 1811 1644.79 1811 1641H1817Z" fill="url(#paint76_linear)"/>
<path d="M189.5 1408L193.204 1419.4H205.192L195.494 1426.45L199.198 1437.85L189.5 1430.8L179.802 1437.85L183.506 1426.45L173.808 1419.4H185.796L189.5 1408Z" fill="url(#paint77_linear)"/>
<circle cx="1775.5" cy="1492.5" r="11.5" fill="url(#paint78_linear)"/>
<circle cx="1762.5" cy="1651.5" r="5.5" fill="url(#paint79_linear)"/>
<path d="M1871 1837.5C1871 1840.03 1870.42 1842.53 1869.3 1844.8C1868.18 1847.07 1866.55 1849.05 1864.54 1850.59C1862.54 1852.13 1860.2 1853.19 1857.72 1853.68C1855.24 1854.18 1852.67 1854.09 1850.23 1853.44C1847.78 1852.78 1845.52 1851.57 1843.62 1849.91C1841.72 1848.24 1840.22 1846.15 1839.26 1843.81C1838.29 1841.48 1837.87 1838.95 1838.04 1836.42C1838.2 1833.9 1838.95 1831.44 1840.21 1829.25L1844.5 1831.73C1843.61 1833.26 1843.09 1834.98 1842.97 1836.74C1842.86 1838.51 1843.15 1840.28 1843.83 1841.92C1844.51 1843.56 1845.55 1845.02 1846.88 1846.18C1848.22 1847.35 1849.8 1848.2 1851.51 1848.66C1853.22 1849.11 1855.02 1849.17 1856.75 1848.83C1858.49 1848.48 1860.13 1847.74 1861.53 1846.66C1862.94 1845.58 1864.08 1844.2 1864.86 1842.61C1865.64 1841.02 1866.05 1839.27 1866.05 1837.5H1871Z" fill="url(#paint80_linear)"/>
<rect width="1920" height="1080" fill="white"/>
<path d="M103.769 679.195C29.4271 687.969 0 640 0 640V897C0 897 150.193 828.644 187.444 740.929C205.989 697.259 178.111 670.421 103.769 679.195Z" fill="url(#paint81_linear)"/>
<path d="M1831.91 261.844C1832.53 321.117 1920 355 1920 355V0.693522C1876.27 0.170174 1787.52 -0.562513 1782.29 0.693522C1777.05 1.94956 1691.5 101.176 1724.58 154.034C1757.67 206.893 1866.92 100.208 1867.3 176.538C1867.49 214.792 1831.51 223.594 1831.91 261.844Z" fill="url(#paint82_linear)"/>
<path d="M332.499 197.628C335.046 201.464 332.648 207.574 327.144 211.277C321.64 214.979 315.114 214.871 312.568 211.036C310.021 207.201 312.419 201.09 317.923 197.388C323.426 193.685 329.953 193.793 332.499 197.628Z" fill="url(#paint83_linear)"/>
<path d="M329.283 180.512C330.324 184.741 328.965 188.719 326.246 189.397C323.528 190.075 320.48 187.197 319.438 182.968C318.397 178.739 319.757 174.762 322.475 174.083C325.194 173.405 328.242 176.284 329.283 180.512Z" fill="url(#paint84_linear)"/>
<path d="M297.497 201.894C300.981 204.48 305.152 204.737 306.815 202.468C308.477 200.199 307.001 196.264 303.517 193.678C300.034 191.092 295.862 190.835 294.2 193.104C292.538 195.372 294.014 199.308 297.497 201.894Z" fill="url(#paint85_linear)"/>
<path d="M314.601 183.84C317.006 187.463 317.068 191.669 314.74 193.235C312.411 194.802 308.574 193.135 306.168 189.513C303.763 185.891 303.701 181.684 306.03 180.118C308.359 178.552 312.196 180.218 314.601 183.84Z" fill="url(#paint86_linear)"/>
<path d="M1717.89 907.688C1715.66 911.044 1717.76 916.391 1722.58 919.631C1727.39 922.87 1733.1 922.776 1735.33 919.42C1737.56 916.064 1735.46 910.717 1730.65 907.478C1725.83 904.238 1720.12 904.332 1717.89 907.688Z" fill="url(#paint87_linear)"/>
<path d="M1720.7 892.712C1719.79 896.412 1720.98 899.893 1723.36 900.486C1725.74 901.08 1728.41 898.561 1729.32 894.861C1730.23 891.161 1729.04 887.68 1726.66 887.087C1724.28 886.493 1721.62 889.012 1720.7 892.712Z" fill="url(#paint88_linear)"/>
<path d="M1748.52 911.421C1745.47 913.684 1741.82 913.908 1740.36 911.923C1738.91 909.938 1740.2 906.495 1743.25 904.232C1746.3 901.969 1749.95 901.744 1751.4 903.729C1752.86 905.715 1751.57 909.158 1748.52 911.421Z" fill="url(#paint89_linear)"/>
<path d="M1733.55 895.624C1731.45 898.794 1731.39 902.474 1733.43 903.845C1735.47 905.215 1738.83 903.757 1740.93 900.587C1743.03 897.418 1743.09 893.738 1741.05 892.367C1739.01 890.996 1735.66 892.455 1733.55 895.624Z" fill="url(#paint90_linear)"/>
<circle cx="192.5" cy="436.5" r="11.5" fill="url(#paint91_linear)"/>
<circle cx="177.5" cy="278.5" r="3.5" fill="url(#paint92_linear)"/>
<circle cx="1680.5" cy="311.5" r="5.5" fill="url(#paint93_linear)"/>
<circle cx="1857.5" cy="698.5" r="5.5" fill="url(#paint94_linear)"/>
<circle cx="1650.5" cy="1024.5" r="5.5" fill="url(#paint95_linear)"/>
<path d="M180 978.5C180 987.613 172.613 995 163.5 995C154.387 995 147 987.613 147 978.5C147 969.387 154.387 962 163.5 962C172.613 962 180 969.387 180 978.5ZM151.95 978.5C151.95 984.879 157.121 990.05 163.5 990.05C169.879 990.05 175.05 984.879 175.05 978.5C175.05 972.121 169.879 966.95 163.5 966.95C157.121 966.95 151.95 972.121 151.95 978.5Z" fill="url(#paint96_linear)"/>
<path d="M72 281.5C72 284.031 71.4178 286.528 70.2984 288.798C69.179 291.068 67.5525 293.05 65.5446 294.59C63.5367 296.131 61.2013 297.189 58.719 297.683C56.2367 298.177 53.6741 298.093 51.2295 297.438C48.7848 296.783 46.5236 295.574 44.6208 293.905C42.718 292.237 41.2245 290.153 40.256 287.814C39.2875 285.476 38.8698 282.946 39.0353 280.421C39.2009 277.895 39.9451 275.442 41.2106 273.25L45.4974 275.725C44.6116 277.259 44.0906 278.977 43.9747 280.745C43.8589 282.512 44.1512 284.283 44.8292 285.92C45.5072 287.557 46.5526 289.016 47.8846 290.184C49.2165 291.352 50.7994 292.198 52.5106 292.656C54.2219 293.115 56.0157 293.174 57.7533 292.828C59.4909 292.482 61.1257 291.742 62.5312 290.663C63.9367 289.585 65.0753 288.197 65.8589 286.608C66.6425 285.02 67.05 283.272 67.05 281.5H72Z" fill="url(#paint97_linear)"/>
<path d="M1857 1024.5C1857 1021.97 1856.42 1019.47 1855.3 1017.2C1854.18 1014.93 1852.55 1012.95 1850.54 1011.41C1848.54 1009.87 1846.2 1008.81 1843.72 1008.32C1841.24 1007.82 1838.67 1007.91 1836.23 1008.56C1833.78 1009.22 1831.52 1010.43 1829.62 1012.09C1827.72 1013.76 1826.22 1015.85 1825.26 1018.19C1824.29 1020.52 1823.87 1023.05 1824.04 1025.58C1824.2 1028.1 1824.95 1030.56 1826.21 1032.75L1830.5 1030.27C1829.61 1028.74 1829.09 1027.02 1828.97 1025.26C1828.86 1023.49 1829.15 1021.72 1829.83 1020.08C1830.51 1018.44 1831.55 1016.98 1832.88 1015.82C1834.22 1014.65 1835.8 1013.8 1837.51 1013.34C1839.22 1012.89 1841.02 1012.83 1842.75 1013.17C1844.49 1013.52 1846.13 1014.26 1847.53 1015.34C1848.94 1016.42 1850.08 1017.8 1850.86 1019.39C1851.64 1020.98 1852.05 1022.73 1852.05 1024.5H1857Z" fill="url(#paint98_linear)"/>
<path d="M1795 491C1795 507.569 1781.57 521 1765 521C1748.43 521 1735 507.569 1735 491C1735 474.431 1748.43 461 1765 461C1781.57 461 1795 474.431 1795 491ZM1741 491C1741 504.255 1751.75 515 1765 515C1778.25 515 1789 504.255 1789 491C1789 477.745 1778.25 467 1765 467C1751.75 467 1741 477.745 1741 491Z" fill="url(#paint99_linear)"/>
<path d="M1644.82 515.374L1643.41 524.714L1651.85 528.94L1642.54 530.486L1641.13 539.825L1636.78 531.441L1627.46 532.986L1634.09 526.259L1629.74 517.875L1638.19 522.101L1644.82 515.374Z" fill="url(#paint100_linear)"/>
<path d="M163.261 122.817L161.851 132.157L170.298 136.383L160.98 137.929L159.57 147.268L155.221 138.884L145.903 140.429L152.533 133.702L148.184 125.318L156.631 129.545L163.261 122.817Z" fill="url(#paint101_linear)"/>
</g>
<defs>
<linearGradient id="paint0_linear" x1="1887.48" y1="4847.23" x2="1790.47" y2="4481.28" gradientUnits="userSpaceOnUse">
<stop stop-color="#E9D8FF" stop-opacity="0.6"/>
<stop offset="0.526042" stop-color="#EEDEF5" stop-opacity="0.4"/>
<stop offset="1" stop-color="#FDF2D8" stop-opacity="0.6"/>
</linearGradient>
<linearGradient id="paint1_linear" x1="1746.1" y1="4524.88" x2="1735.89" y2="4473.57" gradientUnits="userSpaceOnUse">
<stop stop-color="#E9D8FF" stop-opacity="0.6"/>
<stop offset="0.526042" stop-color="#EEDEF5" stop-opacity="0.4"/>
<stop offset="1" stop-color="#FDF2D8" stop-opacity="0.6"/>
</linearGradient>
<linearGradient id="paint2_linear" x1="1746.1" y1="4524.88" x2="1735.89" y2="4473.57" gradientUnits="userSpaceOnUse">
<stop stop-color="#E9D8FF" stop-opacity="0.6"/>
<stop offset="0.526042" stop-color="#EEDEF5" stop-opacity="0.4"/>
<stop offset="1" stop-color="#FDF2D8" stop-opacity="0.6"/>
</linearGradient>
<linearGradient id="paint3_linear" x1="1746.1" y1="4524.88" x2="1735.89" y2="4473.57" gradientUnits="userSpaceOnUse">
<stop stop-color="#E9D8FF" stop-opacity="0.6"/>
<stop offset="0.526042" stop-color="#EEDEF5" stop-opacity="0.4"/>
<stop offset="1" stop-color="#FDF2D8" stop-opacity="0.6"/>
</linearGradient>
<linearGradient id="paint4_linear" x1="1746.1" y1="4524.88" x2="1735.89" y2="4473.57" gradientUnits="userSpaceOnUse">
<stop stop-color="#E9D8FF" stop-opacity="0.6"/>
<stop offset="0.526042" stop-color="#EEDEF5" stop-opacity="0.4"/>
<stop offset="1" stop-color="#FDF2D8" stop-opacity="0.6"/>
</linearGradient>
<linearGradient id="paint5_linear" x1="3.87599" y1="-7.80616" x2="10.5879" y2="25.9092" gradientUnits="userSpaceOnUse">
<stop stop-color="#E9D8FF" stop-opacity="0.6"/>
<stop offset="0.526042" stop-color="#EEDEF5" stop-opacity="0.4"/>
<stop offset="1" stop-color="#FDF2D8" stop-opacity="0.6"/>
</linearGradient>
<linearGradient id="paint6_linear" x1="1.17965" y1="-2.37579" x2="3.22241" y2="7.8854" gradientUnits="userSpaceOnUse">
<stop stop-color="#E9D8FF" stop-opacity="0.6"/>
<stop offset="0.526042" stop-color="#EEDEF5" stop-opacity="0.4"/>
<stop offset="1" stop-color="#FDF2D8" stop-opacity="0.6"/>
</linearGradient>
<linearGradient id="paint7_linear" x1="1.85374" y1="-3.73338" x2="5.06379" y2="12.3913" gradientUnits="userSpaceOnUse">
<stop stop-color="#E9D8FF" stop-opacity="0.6"/>
<stop offset="0.526042" stop-color="#EEDEF5" stop-opacity="0.4"/>
<stop offset="1" stop-color="#FDF2D8" stop-opacity="0.6"/>
</linearGradient>
<linearGradient id="paint8_linear" x1="1.85374" y1="-3.73338" x2="5.06379" y2="12.3913" gradientUnits="userSpaceOnUse">
<stop stop-color="#E9D8FF" stop-opacity="0.6"/>
<stop offset="0.526042" stop-color="#EEDEF5" stop-opacity="0.4"/>
<stop offset="1" stop-color="#FDF2D8" stop-opacity="0.6"/>
</linearGradient>
<linearGradient id="paint9_linear" x1="1.85374" y1="-3.73338" x2="5.06379" y2="12.3913" gradientUnits="userSpaceOnUse">
<stop stop-color="#E9D8FF" stop-opacity="0.6"/>
<stop offset="0.526042" stop-color="#EEDEF5" stop-opacity="0.4"/>
<stop offset="1" stop-color="#FDF2D8" stop-opacity="0.6"/>
</linearGradient>
<linearGradient id="paint10_linear" x1="152.561" y1="4449.2" x2="162.191" y2="4400.83" gradientUnits="userSpaceOnUse">
<stop stop-color="#E9D8FF" stop-opacity="0.6"/>
<stop offset="0.526042" stop-color="#EEDEF5" stop-opacity="0.4"/>
<stop offset="1" stop-color="#FDF2D8" stop-opacity="0.6"/>
</linearGradient>
<linearGradient id="paint11_linear" x1="44.5612" y1="5146.2" x2="54.1914" y2="5097.83" gradientUnits="userSpaceOnUse">
<stop stop-color="#E9D8FF" stop-opacity="0.6"/>
<stop offset="0.526042" stop-color="#EEDEF5" stop-opacity="0.4"/>
<stop offset="1" stop-color="#FDF2D8" stop-opacity="0.6"/>
</linearGradient>
<linearGradient id="paint12_linear" x1="1829.56" y1="4347.8" x2="1839.19" y2="4396.17" gradientUnits="userSpaceOnUse">
<stop stop-color="#E9D8FF" stop-opacity="0.6"/>
<stop offset="0.526042" stop-color="#EEDEF5" stop-opacity="0.4"/>
<stop offset="1" stop-color="#FDF2D8" stop-opacity="0.6"/>
</linearGradient>
<linearGradient id="paint13_linear" x1="130.111" y1="4799.36" x2="147.621" y2="4711.41" gradientUnits="userSpaceOnUse">
<stop stop-color="#E9D8FF" stop-opacity="0.6"/>
<stop offset="0.526042" stop-color="#EEDEF5" stop-opacity="0.4"/>
<stop offset="1" stop-color="#FDF2D8" stop-opacity="0.6"/>
</linearGradient>
<linearGradient id="paint14_linear" x1="302.561" y1="4605.2" x2="312.191" y2="4556.83" gradientUnits="userSpaceOnUse">
<stop stop-color="#E9D8FF" stop-opacity="0.6"/>
<stop offset="0.526042" stop-color="#EEDEF5" stop-opacity="0.4"/>
<stop offset="1" stop-color="#FDF2D8" stop-opacity="0.6"/>
</linearGradient>
<linearGradient id="paint15_linear" x1="1641.06" y1="4896.37" x2="1630.79" y2="4858.89" gradientUnits="userSpaceOnUse">
<stop stop-color="#E9D8FF" stop-opacity="0.6"/>
<stop offset="0.526042" stop-color="#EEDEF5" stop-opacity="0.4"/>
<stop offset="1" stop-color="#FDF2D8" stop-opacity="0.6"/>
</linearGradient>
<linearGradient id="paint16_linear" x1="91.8537" y1="4643.27" x2="95.0638" y2="4659.39" gradientUnits="userSpaceOnUse">
<stop stop-color="#E9D8FF" stop-opacity="0.6"/>
<stop offset="0.526042" stop-color="#EEDEF5" stop-opacity="0.4"/>
<stop offset="1" stop-color="#FDF2D8" stop-opacity="0.6"/>
</linearGradient>
<linearGradient id="paint17_linear" x1="204.102" y1="3394.12" x2="193.888" y2="3445.43" gradientUnits="userSpaceOnUse">
<stop stop-color="#E9D8FF" stop-opacity="0.6"/>
<stop offset="0.526042" stop-color="#EEDEF5" stop-opacity="0.4"/>
<stop offset="1" stop-color="#FDF2D8" stop-opacity="0.6"/>
</linearGradient>
<linearGradient id="paint18_linear" x1="204.102" y1="3394.12" x2="193.888" y2="3445.43" gradientUnits="userSpaceOnUse">
<stop stop-color="#E9D8FF" stop-opacity="0.6"/>
<stop offset="0.526042" stop-color="#EEDEF5" stop-opacity="0.4"/>
<stop offset="1" stop-color="#FDF2D8" stop-opacity="0.6"/>
</linearGradient>
<linearGradient id="paint19_linear" x1="204.102" y1="3394.12" x2="193.888" y2="3445.43" gradientUnits="userSpaceOnUse">
<stop stop-color="#E9D8FF" stop-opacity="0.6"/>
<stop offset="0.526042" stop-color="#EEDEF5" stop-opacity="0.4"/>
<stop offset="1" stop-color="#FDF2D8" stop-opacity="0.6"/>
</linearGradient>
<linearGradient id="paint20_linear" x1="204.102" y1="3394.12" x2="193.888" y2="3445.43" gradientUnits="userSpaceOnUse">
<stop stop-color="#E9D8FF" stop-opacity="0.6"/>
<stop offset="0.526042" stop-color="#EEDEF5" stop-opacity="0.4"/>
<stop offset="1" stop-color="#FDF2D8" stop-opacity="0.6"/>
</linearGradient>
<linearGradient id="paint21_linear" x1="247.18" y1="3318.62" x2="249.222" y2="3328.89" gradientUnits="userSpaceOnUse">
<stop stop-color="#E9D8FF" stop-opacity="0.6"/>
<stop offset="0.526042" stop-color="#EEDEF5" stop-opacity="0.4"/>
<stop offset="1" stop-color="#FDF2D8" stop-opacity="0.6"/>
</linearGradient>
<linearGradient id="paint22_linear" x1="1684.85" y1="3932.27" x2="1688.06" y2="3948.39" gradientUnits="userSpaceOnUse">
<stop stop-color="#E9D8FF" stop-opacity="0.6"/>
<stop offset="0.526042" stop-color="#EEDEF5" stop-opacity="0.4"/>
<stop offset="1" stop-color="#FDF2D8" stop-opacity="0.6"/>
</linearGradient>
<linearGradient id="paint23_linear" x1="1672.56" y1="3369.2" x2="1682.19" y2="3320.83" gradientUnits="userSpaceOnUse">
<stop stop-color="#E9D8FF" stop-opacity="0.6"/>
<stop offset="0.526042" stop-color="#EEDEF5" stop-opacity="0.4"/>
<stop offset="1" stop-color="#FDF2D8" stop-opacity="0.6"/>
</linearGradient>
<linearGradient id="paint24_linear" x1="125.111" y1="3810.64" x2="142.621" y2="3898.59" gradientUnits="userSpaceOnUse">
<stop stop-color="#E9D8FF" stop-opacity="0.6"/>
<stop offset="0.526042" stop-color="#EEDEF5" stop-opacity="0.4"/>
<stop offset="1" stop-color="#FDF2D8" stop-opacity="0.6"/>
</linearGradient>
<linearGradient id="paint25_linear" x1="1715.56" y1="3879.8" x2="1725.19" y2="3928.17" gradientUnits="userSpaceOnUse">
<stop stop-color="#E9D8FF" stop-opacity="0.6"/>
<stop offset="0.526042" stop-color="#EEDEF5" stop-opacity="0.4"/>
<stop offset="1" stop-color="#FDF2D8" stop-opacity="0.6"/>
</linearGradient>
<linearGradient id="paint26_linear" x1="1672.56" y1="4110.8" x2="1682.19" y2="4159.17" gradientUnits="userSpaceOnUse">
<stop stop-color="#E9D8FF" stop-opacity="0.6"/>
<stop offset="0.526042" stop-color="#EEDEF5" stop-opacity="0.4"/>
<stop offset="1" stop-color="#FDF2D8" stop-opacity="0.6"/>
</linearGradient>
<linearGradient id="paint27_linear" x1="229.502" y1="4203.07" x2="219.232" y2="4240.55" gradientUnits="userSpaceOnUse">
<stop stop-color="#E9D8FF" stop-opacity="0.6"/>
<stop offset="0.526042" stop-color="#EEDEF5" stop-opacity="0.4"/>
<stop offset="1" stop-color="#FDF2D8" stop-opacity="0.6"/>
</linearGradient>
<linearGradient id="paint28_linear" x1="42.5022" y1="4197.07" x2="32.232" y2="4234.55" gradientUnits="userSpaceOnUse">
<stop stop-color="#E9D8FF" stop-opacity="0.6"/>
<stop offset="0.526042" stop-color="#EEDEF5" stop-opacity="0.4"/>
<stop offset="1" stop-color="#FDF2D8" stop-opacity="0.6"/>
</linearGradient>
<linearGradient id="paint29_linear" x1="178.561" y1="4094.8" x2="188.191" y2="4143.17" gradientUnits="userSpaceOnUse">
<stop stop-color="#E9D8FF" stop-opacity="0.6"/>
<stop offset="0.526042" stop-color="#EEDEF5" stop-opacity="0.4"/>
<stop offset="1" stop-color="#FDF2D8" stop-opacity="0.6"/>
</linearGradient>
<linearGradient id="paint30_linear" x1="1753.11" y1="3393.64" x2="1770.62" y2="3481.59" gradientUnits="userSpaceOnUse">
<stop stop-color="#E9D8FF" stop-opacity="0.6"/>
<stop offset="0.526042" stop-color="#EEDEF5" stop-opacity="0.4"/>
<stop offset="1" stop-color="#FDF2D8" stop-opacity="0.6"/>
</linearGradient>
<linearGradient id="paint31_linear" x1="94.8537" y1="3738.27" x2="98.0638" y2="3754.39" gradientUnits="userSpaceOnUse">
<stop stop-color="#E9D8FF" stop-opacity="0.6"/>
<stop offset="0.526042" stop-color="#EEDEF5" stop-opacity="0.4"/>
<stop offset="1" stop-color="#FDF2D8" stop-opacity="0.6"/>
</linearGradient>
<linearGradient id="paint32_linear" x1="47.5022" y1="3544.07" x2="37.232" y2="3581.55" gradientUnits="userSpaceOnUse">
<stop stop-color="#E9D8FF" stop-opacity="0.6"/>
<stop offset="0.526042" stop-color="#EEDEF5" stop-opacity="0.4"/>
<stop offset="1" stop-color="#FDF2D8" stop-opacity="0.6"/>
</linearGradient>
<linearGradient id="paint33_linear" x1="83.8537" y1="3372.27" x2="87.0638" y2="3388.39" gradientUnits="userSpaceOnUse">
<stop stop-color="#E9D8FF" stop-opacity="0.6"/>
<stop offset="0.526042" stop-color="#EEDEF5" stop-opacity="0.4"/>
<stop offset="1" stop-color="#FDF2D8" stop-opacity="0.6"/>
</linearGradient>
<linearGradient id="paint34_linear" x1="1767.11" y1="3750.64" x2="1784.62" y2="3838.59" gradientUnits="userSpaceOnUse">
<stop stop-color="#E9D8FF" stop-opacity="0.6"/>
<stop offset="0.526042" stop-color="#EEDEF5" stop-opacity="0.4"/>
<stop offset="1" stop-color="#FDF2D8" stop-opacity="0.6"/>
</linearGradient>
<linearGradient id="paint35_linear" x1="178.561" y1="3556.8" x2="188.191" y2="3605.17" gradientUnits="userSpaceOnUse">
<stop stop-color="#E9D8FF" stop-opacity="0.6"/>
<stop offset="0.526042" stop-color="#EEDEF5" stop-opacity="0.4"/>
<stop offset="1" stop-color="#FDF2D8" stop-opacity="0.6"/>
</linearGradient>
<linearGradient id="paint36_linear" x1="1767.88" y1="3633.19" x2="1774.59" y2="3666.91" gradientUnits="userSpaceOnUse">
<stop stop-color="#E9D8FF" stop-opacity="0.6"/>
<stop offset="0.526042" stop-color="#EEDEF5" stop-opacity="0.4"/>
<stop offset="1" stop-color="#FDF2D8" stop-opacity="0.6"/>
</linearGradient>
<linearGradient id="paint37_linear" x1="1758.85" y1="3802.27" x2="1762.06" y2="3818.39" gradientUnits="userSpaceOnUse">
<stop stop-color="#E9D8FF" stop-opacity="0.6"/>
<stop offset="0.526042" stop-color="#EEDEF5" stop-opacity="0.4"/>
<stop offset="1" stop-color="#FDF2D8" stop-opacity="0.6"/>
</linearGradient>
<linearGradient id="paint38_linear" x1="1843.56" y1="3969.8" x2="1853.19" y2="4018.17" gradientUnits="userSpaceOnUse">
<stop stop-color="#E9D8FF" stop-opacity="0.6"/>
<stop offset="0.526042" stop-color="#EEDEF5" stop-opacity="0.4"/>
<stop offset="1" stop-color="#FDF2D8" stop-opacity="0.6"/>
</linearGradient>
<linearGradient id="paint39_linear" x1="104.561" y1="2428.8" x2="114.191" y2="2477.17" gradientUnits="userSpaceOnUse">
<stop stop-color="#E9D8FF" stop-opacity="0.6"/>
<stop offset="0.526042" stop-color="#EEDEF5" stop-opacity="0.4"/>
<stop offset="1" stop-color="#FDF2D8" stop-opacity="0.6"/>
</linearGradient>
<linearGradient id="paint40_linear" x1="1717.18" y1="2278.62" x2="1719.22" y2="2288.89" gradientUnits="userSpaceOnUse">
<stop stop-color="#E9D8FF" stop-opacity="0.6"/>
<stop offset="0.526042" stop-color="#EEDEF5" stop-opacity="0.4"/>
<stop offset="1" stop-color="#FDF2D8" stop-opacity="0.6"/>
</linearGradient>
<linearGradient id="paint41_linear" x1="1825.85" y1="2368.27" x2="1829.06" y2="2384.39" gradientUnits="userSpaceOnUse">
<stop stop-color="#E9D8FF" stop-opacity="0.6"/>
<stop offset="0.526042" stop-color="#EEDEF5" stop-opacity="0.4"/>
<stop offset="1" stop-color="#FDF2D8" stop-opacity="0.6"/>
</linearGradient>
<linearGradient id="paint42_linear" x1="1755.11" y1="2671.64" x2="1772.62" y2="2759.59" gradientUnits="userSpaceOnUse">
<stop stop-color="#E9D8FF" stop-opacity="0.6"/>
<stop offset="0.526042" stop-color="#EEDEF5" stop-opacity="0.4"/>
<stop offset="1" stop-color="#FDF2D8" stop-opacity="0.6"/>
</linearGradient>
<linearGradient id="paint43_linear" x1="1710.1" y1="2437.12" x2="1699.89" y2="2488.43" gradientUnits="userSpaceOnUse">
<stop stop-color="#E9D8FF" stop-opacity="0.6"/>
<stop offset="0.526042" stop-color="#EEDEF5" stop-opacity="0.4"/>
<stop offset="1" stop-color="#FDF2D8" stop-opacity="0.6"/>
</linearGradient>
<linearGradient id="paint44_linear" x1="1710.1" y1="2437.12" x2="1699.89" y2="2488.43" gradientUnits="userSpaceOnUse">
<stop stop-color="#E9D8FF" stop-opacity="0.6"/>
<stop offset="0.526042" stop-color="#EEDEF5" stop-opacity="0.4"/>
<stop offset="1" stop-color="#FDF2D8" stop-opacity="0.6"/>
</linearGradient>
<linearGradient id="paint45_linear" x1="1710.1" y1="2437.12" x2="1699.89" y2="2488.43" gradientUnits="userSpaceOnUse">
<stop stop-color="#E9D8FF" stop-opacity="0.6"/>
<stop offset="0.526042" stop-color="#EEDEF5" stop-opacity="0.4"/>
<stop offset="1" stop-color="#FDF2D8" stop-opacity="0.6"/>
</linearGradient>
<linearGradient id="paint46_linear" x1="1710.1" y1="2437.12" x2="1699.89" y2="2488.43" gradientUnits="userSpaceOnUse">
<stop stop-color="#E9D8FF" stop-opacity="0.6"/>
<stop offset="0.526042" stop-color="#EEDEF5" stop-opacity="0.4"/>
<stop offset="1" stop-color="#FDF2D8" stop-opacity="0.6"/>
</linearGradient>
<linearGradient id="paint47_linear" x1="1704.56" y1="2910.8" x2="1714.19" y2="2959.17" gradientUnits="userSpaceOnUse">
<stop stop-color="#E9D8FF" stop-opacity="0.6"/>
<stop offset="0.526042" stop-color="#EEDEF5" stop-opacity="0.4"/>
<stop offset="1" stop-color="#FDF2D8" stop-opacity="0.6"/>
</linearGradient>
<linearGradient id="paint48_linear" x1="124.18" y1="2775.62" x2="126.222" y2="2785.89" gradientUnits="userSpaceOnUse">
<stop stop-color="#E9D8FF" stop-opacity="0.6"/>
<stop offset="0.526042" stop-color="#EEDEF5" stop-opacity="0.4"/>
<stop offset="1" stop-color="#FDF2D8" stop-opacity="0.6"/>
</linearGradient>
<linearGradient id="paint49_linear" x1="116.854" y1="2326.27" x2="120.064" y2="2342.39" gradientUnits="userSpaceOnUse">
<stop stop-color="#E9D8FF" stop-opacity="0.6"/>
<stop offset="0.526042" stop-color="#EEDEF5" stop-opacity="0.4"/>
<stop offset="1" stop-color="#FDF2D8" stop-opacity="0.6"/>
</linearGradient>
<linearGradient id="paint50_linear" x1="1647.85" y1="2279.27" x2="1651.06" y2="2295.39" gradientUnits="userSpaceOnUse">
<stop stop-color="#E9D8FF" stop-opacity="0.6"/>
<stop offset="0.526042" stop-color="#EEDEF5" stop-opacity="0.4"/>
<stop offset="1" stop-color="#FDF2D8" stop-opacity="0.6"/>
</linearGradient>
<linearGradient id="paint51_linear" x1="60.5612" y1="3191.2" x2="70.1914" y2="3142.83" gradientUnits="userSpaceOnUse">
<stop stop-color="#E9D8FF" stop-opacity="0.6"/>
<stop offset="0.526042" stop-color="#EEDEF5" stop-opacity="0.4"/>
<stop offset="1" stop-color="#FDF2D8" stop-opacity="0.6"/>
</linearGradient>
<linearGradient id="paint52_linear" x1="89.8537" y1="2604.27" x2="93.0638" y2="2620.39" gradientUnits="userSpaceOnUse">
<stop stop-color="#E9D8FF" stop-opacity="0.6"/>
<stop offset="0.526042" stop-color="#EEDEF5" stop-opacity="0.4"/>
<stop offset="1" stop-color="#FDF2D8" stop-opacity="0.6"/>
</linearGradient>
<linearGradient id="paint53_linear" x1="173.502" y1="2898.07" x2="163.232" y2="2935.55" gradientUnits="userSpaceOnUse">
<stop stop-color="#E9D8FF" stop-opacity="0.6"/>
<stop offset="0.526042" stop-color="#EEDEF5" stop-opacity="0.4"/>
<stop offset="1" stop-color="#FDF2D8" stop-opacity="0.6"/>
</linearGradient>
<linearGradient id="paint54_linear" x1="174.876" y1="3062.19" x2="181.588" y2="3095.91" gradientUnits="userSpaceOnUse">
<stop stop-color="#E9D8FF" stop-opacity="0.6"/>
<stop offset="0.526042" stop-color="#EEDEF5" stop-opacity="0.4"/>
<stop offset="1" stop-color="#FDF2D8" stop-opacity="0.6"/>
</linearGradient>
<linearGradient id="paint55_linear" x1="1700.18" y1="3090.62" x2="1702.22" y2="3100.89" gradientUnits="userSpaceOnUse">
<stop stop-color="#E9D8FF" stop-opacity="0.6"/>
<stop offset="0.526042" stop-color="#EEDEF5" stop-opacity="0.4"/>
<stop offset="1" stop-color="#FDF2D8" stop-opacity="0.6"/>
</linearGradient>
<linearGradient id="paint56_linear" x1="1796.56" y1="2206.8" x2="1806.19" y2="2255.17" gradientUnits="userSpaceOnUse">
<stop stop-color="#E9D8FF" stop-opacity="0.6"/>
<stop offset="0.526042" stop-color="#EEDEF5" stop-opacity="0.4"/>
<stop offset="1" stop-color="#FDF2D8" stop-opacity="0.6"/>
</linearGradient>
<linearGradient id="paint57_linear" x1="1794.56" y1="3102.8" x2="1804.19" y2="3151.17" gradientUnits="userSpaceOnUse">
<stop stop-color="#E9D8FF" stop-opacity="0.6"/>
<stop offset="0.526042" stop-color="#EEDEF5" stop-opacity="0.4"/>
<stop offset="1" stop-color="#FDF2D8" stop-opacity="0.6"/>
</linearGradient>
<linearGradient id="paint58_linear" x1="205.502" y1="2545.07" x2="195.232" y2="2582.55" gradientUnits="userSpaceOnUse">
<stop stop-color="#E9D8FF" stop-opacity="0.6"/>
<stop offset="0.526042" stop-color="#EEDEF5" stop-opacity="0.4"/>
<stop offset="1" stop-color="#FDF2D8" stop-opacity="0.6"/>
</linearGradient>
<linearGradient id="paint59_linear" x1="204.102" y1="1234.12" x2="193.888" y2="1285.43" gradientUnits="userSpaceOnUse">
<stop stop-color="#E9D8FF" stop-opacity="0.6"/>
<stop offset="0.526042" stop-color="#EEDEF5" stop-opacity="0.4"/>
<stop offset="1" stop-color="#FDF2D8" stop-opacity="0.6"/>
</linearGradient>
<linearGradient id="paint60_linear" x1="204.102" y1="1234.12" x2="193.888" y2="1285.43" gradientUnits="userSpaceOnUse">
<stop stop-color="#E9D8FF" stop-opacity="0.6"/>
<stop offset="0.526042" stop-color="#EEDEF5" stop-opacity="0.4"/>
<stop offset="1" stop-color="#FDF2D8" stop-opacity="0.6"/>
</linearGradient>
<linearGradient id="paint61_linear" x1="204.102" y1="1234.12" x2="193.888" y2="1285.43" gradientUnits="userSpaceOnUse">
<stop stop-color="#E9D8FF" stop-opacity="0.6"/>
<stop offset="0.526042" stop-color="#EEDEF5" stop-opacity="0.4"/>
<stop offset="1" stop-color="#FDF2D8" stop-opacity="0.6"/>
</linearGradient>
<linearGradient id="paint62_linear" x1="204.102" y1="1234.12" x2="193.888" y2="1285.43" gradientUnits="userSpaceOnUse">
<stop stop-color="#E9D8FF" stop-opacity="0.6"/>
<stop offset="0.526042" stop-color="#EEDEF5" stop-opacity="0.4"/>
<stop offset="1" stop-color="#FDF2D8" stop-opacity="0.6"/>
</linearGradient>
<linearGradient id="paint63_linear" x1="247.18" y1="1158.62" x2="249.222" y2="1168.89" gradientUnits="userSpaceOnUse">
<stop stop-color="#E9D8FF" stop-opacity="0.6"/>
<stop offset="0.526042" stop-color="#EEDEF5" stop-opacity="0.4"/>
<stop offset="1" stop-color="#FDF2D8" stop-opacity="0.6"/>
</linearGradient>
<linearGradient id="paint64_linear" x1="1684.85" y1="1772.27" x2="1688.06" y2="1788.39" gradientUnits="userSpaceOnUse">
<stop stop-color="#E9D8FF" stop-opacity="0.6"/>
<stop offset="0.526042" stop-color="#EEDEF5" stop-opacity="0.4"/>
<stop offset="1" stop-color="#FDF2D8" stop-opacity="0.6"/>
</linearGradient>
<linearGradient id="paint65_linear" x1="1672.56" y1="1209.2" x2="1682.19" y2="1160.83" gradientUnits="userSpaceOnUse">
<stop stop-color="#E9D8FF" stop-opacity="0.6"/>
<stop offset="0.526042" stop-color="#EEDEF5" stop-opacity="0.4"/>
<stop offset="1" stop-color="#FDF2D8" stop-opacity="0.6"/>
</linearGradient>
<linearGradient id="paint66_linear" x1="125.111" y1="1650.64" x2="142.621" y2="1738.59" gradientUnits="userSpaceOnUse">
<stop stop-color="#E9D8FF" stop-opacity="0.6"/>
<stop offset="0.526042" stop-color="#EEDEF5" stop-opacity="0.4"/>
<stop offset="1" stop-color="#FDF2D8" stop-opacity="0.6"/>
</linearGradient>
<linearGradient id="paint67_linear" x1="1715.56" y1="1719.8" x2="1725.19" y2="1768.17" gradientUnits="userSpaceOnUse">
<stop stop-color="#E9D8FF" stop-opacity="0.6"/>
<stop offset="0.526042" stop-color="#EEDEF5" stop-opacity="0.4"/>
<stop offset="1" stop-color="#FDF2D8" stop-opacity="0.6"/>
</linearGradient>
<linearGradient id="paint68_linear" x1="1672.56" y1="1950.8" x2="1682.19" y2="1999.17" gradientUnits="userSpaceOnUse">
<stop stop-color="#E9D8FF" stop-opacity="0.6"/>
<stop offset="0.526042" stop-color="#EEDEF5" stop-opacity="0.4"/>
<stop offset="1" stop-color="#FDF2D8" stop-opacity="0.6"/>
</linearGradient>
<linearGradient id="paint69_linear" x1="229.502" y1="2043.07" x2="219.232" y2="2080.55" gradientUnits="userSpaceOnUse">
<stop stop-color="#E9D8FF" stop-opacity="0.6"/>
<stop offset="0.526042" stop-color="#EEDEF5" stop-opacity="0.4"/>
<stop offset="1" stop-color="#FDF2D8" stop-opacity="0.6"/>
</linearGradient>
<linearGradient id="paint70_linear" x1="42.5022" y1="2037.07" x2="32.232" y2="2074.55" gradientUnits="userSpaceOnUse">
<stop stop-color="#E9D8FF" stop-opacity="0.6"/>
<stop offset="0.526042" stop-color="#EEDEF5" stop-opacity="0.4"/>
<stop offset="1" stop-color="#FDF2D8" stop-opacity="0.6"/>
</linearGradient>
<linearGradient id="paint71_linear" x1="178.561" y1="1934.8" x2="188.191" y2="1983.17" gradientUnits="userSpaceOnUse">
<stop stop-color="#E9D8FF" stop-opacity="0.6"/>
<stop offset="0.526042" stop-color="#EEDEF5" stop-opacity="0.4"/>
<stop offset="1" stop-color="#FDF2D8" stop-opacity="0.6"/>
</linearGradient>
<linearGradient id="paint72_linear" x1="1753.11" y1="1233.64" x2="1770.62" y2="1321.59" gradientUnits="userSpaceOnUse">
<stop stop-color="#E9D8FF" stop-opacity="0.6"/>
<stop offset="0.526042" stop-color="#EEDEF5" stop-opacity="0.4"/>
<stop offset="1" stop-color="#FDF2D8" stop-opacity="0.6"/>
</linearGradient>
<linearGradient id="paint73_linear" x1="94.8537" y1="1578.27" x2="98.0638" y2="1594.39" gradientUnits="userSpaceOnUse">
<stop stop-color="#E9D8FF" stop-opacity="0.6"/>
<stop offset="0.526042" stop-color="#EEDEF5" stop-opacity="0.4"/>
<stop offset="1" stop-color="#FDF2D8" stop-opacity="0.6"/>
</linearGradient>
<linearGradient id="paint74_linear" x1="47.5022" y1="1384.07" x2="37.232" y2="1421.55" gradientUnits="userSpaceOnUse">
<stop stop-color="#E9D8FF" stop-opacity="0.6"/>
<stop offset="0.526042" stop-color="#EEDEF5" stop-opacity="0.4"/>
<stop offset="1" stop-color="#FDF2D8" stop-opacity="0.6"/>
</linearGradient>
<linearGradient id="paint75_linear" x1="83.8537" y1="1212.27" x2="87.0638" y2="1228.39" gradientUnits="userSpaceOnUse">
<stop stop-color="#E9D8FF" stop-opacity="0.6"/>
<stop offset="0.526042" stop-color="#EEDEF5" stop-opacity="0.4"/>
<stop offset="1" stop-color="#FDF2D8" stop-opacity="0.6"/>
</linearGradient>
<linearGradient id="paint76_linear" x1="1767.11" y1="1590.64" x2="1784.62" y2="1678.59" gradientUnits="userSpaceOnUse">
<stop stop-color="#E9D8FF" stop-opacity="0.6"/>
<stop offset="0.526042" stop-color="#EEDEF5" stop-opacity="0.4"/>
<stop offset="1" stop-color="#FDF2D8" stop-opacity="0.6"/>
</linearGradient>
<linearGradient id="paint77_linear" x1="178.561" y1="1396.8" x2="188.191" y2="1445.17" gradientUnits="userSpaceOnUse">
<stop stop-color="#E9D8FF" stop-opacity="0.6"/>
<stop offset="0.526042" stop-color="#EEDEF5" stop-opacity="0.4"/>
<stop offset="1" stop-color="#FDF2D8" stop-opacity="0.6"/>
</linearGradient>
<linearGradient id="paint78_linear" x1="1767.88" y1="1473.19" x2="1774.59" y2="1506.91" gradientUnits="userSpaceOnUse">
<stop stop-color="#E9D8FF" stop-opacity="0.6"/>
<stop offset="0.526042" stop-color="#EEDEF5" stop-opacity="0.4"/>
<stop offset="1" stop-color="#FDF2D8" stop-opacity="0.6"/>
</linearGradient>
<linearGradient id="paint79_linear" x1="1758.85" y1="1642.27" x2="1762.06" y2="1658.39" gradientUnits="userSpaceOnUse">
<stop stop-color="#E9D8FF" stop-opacity="0.6"/>
<stop offset="0.526042" stop-color="#EEDEF5" stop-opacity="0.4"/>
<stop offset="1" stop-color="#FDF2D8" stop-opacity="0.6"/>
</linearGradient>
<linearGradient id="paint80_linear" x1="1843.56" y1="1809.8" x2="1853.19" y2="1858.17" gradientUnits="userSpaceOnUse">
<stop stop-color="#E9D8FF" stop-opacity="0.6"/>
<stop offset="0.526042" stop-color="#EEDEF5" stop-opacity="0.4"/>
<stop offset="1" stop-color="#FDF2D8" stop-opacity="0.6"/>
</linearGradient>
<linearGradient id="paint81_linear" x1="32.5246" y1="552.775" x2="129.534" y2="918.721" gradientUnits="userSpaceOnUse">
<stop stop-color="#E9D8FF" stop-opacity="0.6"/>
<stop offset="0.526042" stop-color="#EEDEF5" stop-opacity="0.4"/>
<stop offset="1" stop-color="#FDF2D8" stop-opacity="0.6"/>
</linearGradient>
<linearGradient id="paint82_linear" x1="1751.21" y1="-120.486" x2="1919.2" y2="362.043" gradientUnits="userSpaceOnUse">
<stop stop-color="#E9D8FF" stop-opacity="0.6"/>
<stop offset="0.526042" stop-color="#EEDEF5" stop-opacity="0.4"/>
<stop offset="1" stop-color="#FDF2D8" stop-opacity="0.6"/>
</linearGradient>
<linearGradient id="paint83_linear" x1="300.258" y1="160.408" x2="311.931" y2="219.044" gradientUnits="userSpaceOnUse">
<stop stop-color="#E9D8FF" stop-opacity="0.6"/>
<stop offset="0.526042" stop-color="#EEDEF5" stop-opacity="0.4"/>
<stop offset="1" stop-color="#FDF2D8" stop-opacity="0.6"/>
</linearGradient>
<linearGradient id="paint84_linear" x1="300.258" y1="160.408" x2="311.931" y2="219.044" gradientUnits="userSpaceOnUse">
<stop stop-color="#E9D8FF" stop-opacity="0.6"/>
<stop offset="0.526042" stop-color="#EEDEF5" stop-opacity="0.4"/>
<stop offset="1" stop-color="#FDF2D8" stop-opacity="0.6"/>
</linearGradient>
<linearGradient id="paint85_linear" x1="300.258" y1="160.408" x2="311.931" y2="219.044" gradientUnits="userSpaceOnUse">
<stop stop-color="#E9D8FF" stop-opacity="0.6"/>
<stop offset="0.526042" stop-color="#EEDEF5" stop-opacity="0.4"/>
<stop offset="1" stop-color="#FDF2D8" stop-opacity="0.6"/>
</linearGradient>
<linearGradient id="paint86_linear" x1="300.258" y1="160.408" x2="311.931" y2="219.044" gradientUnits="userSpaceOnUse">
<stop stop-color="#E9D8FF" stop-opacity="0.6"/>
<stop offset="0.526042" stop-color="#EEDEF5" stop-opacity="0.4"/>
<stop offset="1" stop-color="#FDF2D8" stop-opacity="0.6"/>
</linearGradient>
<linearGradient id="paint87_linear" x1="1746.1" y1="875.121" x2="1735.89" y2="926.427" gradientUnits="userSpaceOnUse">
<stop stop-color="#E9D8FF" stop-opacity="0.6"/>
<stop offset="0.526042" stop-color="#EEDEF5" stop-opacity="0.4"/>
<stop offset="1" stop-color="#FDF2D8" stop-opacity="0.6"/>
</linearGradient>
<linearGradient id="paint88_linear" x1="1746.1" y1="875.121" x2="1735.89" y2="926.427" gradientUnits="userSpaceOnUse">
<stop stop-color="#E9D8FF" stop-opacity="0.6"/>
<stop offset="0.526042" stop-color="#EEDEF5" stop-opacity="0.4"/>
<stop offset="1" stop-color="#FDF2D8" stop-opacity="0.6"/>
</linearGradient>
<linearGradient id="paint89_linear" x1="1746.1" y1="875.121" x2="1735.89" y2="926.427" gradientUnits="userSpaceOnUse">
<stop stop-color="#E9D8FF" stop-opacity="0.6"/>
<stop offset="0.526042" stop-color="#EEDEF5" stop-opacity="0.4"/>
<stop offset="1" stop-color="#FDF2D8" stop-opacity="0.6"/>
</linearGradient>
<linearGradient id="paint90_linear" x1="1746.1" y1="875.121" x2="1735.89" y2="926.427" gradientUnits="userSpaceOnUse">
<stop stop-color="#E9D8FF" stop-opacity="0.6"/>
<stop offset="0.526042" stop-color="#EEDEF5" stop-opacity="0.4"/>
<stop offset="1" stop-color="#FDF2D8" stop-opacity="0.6"/>
</linearGradient>
<linearGradient id="paint91_linear" x1="184.876" y1="417.194" x2="191.588" y2="450.909" gradientUnits="userSpaceOnUse">
<stop stop-color="#E9D8FF" stop-opacity="0.6"/>
<stop offset="0.526042" stop-color="#EEDEF5" stop-opacity="0.4"/>
<stop offset="1" stop-color="#FDF2D8" stop-opacity="0.6"/>
</linearGradient>
<linearGradient id="paint92_linear" x1="175.18" y1="272.624" x2="177.222" y2="282.885" gradientUnits="userSpaceOnUse">
<stop stop-color="#E9D8FF" stop-opacity="0.6"/>
<stop offset="0.526042" stop-color="#EEDEF5" stop-opacity="0.4"/>
<stop offset="1" stop-color="#FDF2D8" stop-opacity="0.6"/>
</linearGradient>
<linearGradient id="paint93_linear" x1="1676.85" y1="302.267" x2="1680.06" y2="318.391" gradientUnits="userSpaceOnUse">
<stop stop-color="#E9D8FF" stop-opacity="0.6"/>
<stop offset="0.526042" stop-color="#EEDEF5" stop-opacity="0.4"/>
<stop offset="1" stop-color="#FDF2D8" stop-opacity="0.6"/>
</linearGradient>
<linearGradient id="paint94_linear" x1="1853.85" y1="689.267" x2="1857.06" y2="705.391" gradientUnits="userSpaceOnUse">
<stop stop-color="#E9D8FF" stop-opacity="0.6"/>
<stop offset="0.526042" stop-color="#EEDEF5" stop-opacity="0.4"/>
<stop offset="1" stop-color="#FDF2D8" stop-opacity="0.6"/>
</linearGradient>
<linearGradient id="paint95_linear" x1="1646.85" y1="1015.27" x2="1650.06" y2="1031.39" gradientUnits="userSpaceOnUse">
<stop stop-color="#E9D8FF" stop-opacity="0.6"/>
<stop offset="0.526042" stop-color="#EEDEF5" stop-opacity="0.4"/>
<stop offset="1" stop-color="#FDF2D8" stop-opacity="0.6"/>
</linearGradient>
<linearGradient id="paint96_linear" x1="152.561" y1="950.8" x2="162.191" y2="999.174" gradientUnits="userSpaceOnUse">
<stop stop-color="#E9D8FF" stop-opacity="0.6"/>
<stop offset="0.526042" stop-color="#EEDEF5" stop-opacity="0.4"/>
<stop offset="1" stop-color="#FDF2D8" stop-opacity="0.6"/>
</linearGradient>
<linearGradient id="paint97_linear" x1="44.5612" y1="253.8" x2="54.1914" y2="302.174" gradientUnits="userSpaceOnUse">
<stop stop-color="#E9D8FF" stop-opacity="0.6"/>
<stop offset="0.526042" stop-color="#EEDEF5" stop-opacity="0.4"/>
<stop offset="1" stop-color="#FDF2D8" stop-opacity="0.6"/>
</linearGradient>
<linearGradient id="paint98_linear" x1="1829.56" y1="1052.2" x2="1839.19" y2="1003.83" gradientUnits="userSpaceOnUse">
<stop stop-color="#E9D8FF" stop-opacity="0.6"/>
<stop offset="0.526042" stop-color="#EEDEF5" stop-opacity="0.4"/>
<stop offset="1" stop-color="#FDF2D8" stop-opacity="0.6"/>
</linearGradient>
<linearGradient id="paint99_linear" x1="1745.11" y1="440.636" x2="1762.62" y2="528.589" gradientUnits="userSpaceOnUse">
<stop stop-color="#E9D8FF" stop-opacity="0.6"/>
<stop offset="0.526042" stop-color="#EEDEF5" stop-opacity="0.4"/>
<stop offset="1" stop-color="#FDF2D8" stop-opacity="0.6"/>
</linearGradient>
<linearGradient id="paint100_linear" x1="1641.06" y1="503.626" x2="1630.79" y2="541.105" gradientUnits="userSpaceOnUse">
<stop stop-color="#E9D8FF" stop-opacity="0.6"/>
<stop offset="0.526042" stop-color="#EEDEF5" stop-opacity="0.4"/>
<stop offset="1" stop-color="#FDF2D8" stop-opacity="0.6"/>
</linearGradient>
<linearGradient id="paint101_linear" x1="159.502" y1="111.069" x2="149.232" y2="148.548" gradientUnits="userSpaceOnUse">
<stop stop-color="#E9D8FF" stop-opacity="0.6"/>
<stop offset="0.526042" stop-color="#EEDEF5" stop-opacity="0.4"/>
<stop offset="1" stop-color="#FDF2D8" stop-opacity="0.6"/>
</linearGradient>
<clipPath id="clip0">
<rect width="1920" height="855" fill="white" transform="matrix(1 0 0 -1 0 5175)"/>
</clipPath>
</defs>
</svg>
